<svg width="32" height="32" viewBox="0 0 32 32" fill="none" xmlns="http://www.w3.org/2000/svg">
<path d="M29.3333 17.3334V12C29.3333 5.33335 26.6666 2.66669 20 2.66669H12C5.33329 2.66669 2.66663 5.33335 2.66663 12V20C2.66663 26.6667 5.33329 29.3334 12 29.3334H17.3333" stroke="#FF00F8" stroke-width="1.5" stroke-linecap="round" stroke-linejoin="round"/>
<path opacity="0.4" d="M9.77332 19.32L12.9467 15.2C13.4 14.6133 14.24 14.5067 14.8267 14.96L17.2667 16.88C17.8533 17.3333 18.6933 17.2267 19.1466 16.6533L22.2267 12.68" stroke="#FF00F8" stroke-width="1.5" stroke-linecap="round" stroke-linejoin="round"/>
<path d="M25.9733 21.0934L26.3466 21.8533C26.5333 22.2267 26.9999 22.5734 27.4133 22.6534L27.92 22.7334C29.44 22.9867 29.8 24.1067 28.7066 25.2134L28.2399 25.68C27.9333 26 27.76 26.6133 27.8533 27.04L27.92 27.32C28.3333 29.16 27.36 29.8667 25.76 28.9067L25.4133 28.7067C24.9999 28.4667 24.3333 28.4667 23.92 28.7067L23.5733 28.9067C21.9599 29.88 20.9866 29.16 21.4133 27.32L21.4799 27.04C21.5733 26.6133 21.4 26 21.0933 25.68L20.6266 25.2134C19.5333 24.1067 19.8933 22.9867 21.4133 22.7334L21.92 22.6534C22.32 22.5867 22.7999 22.2267 22.9866 21.8533L23.3599 21.0934C24.0799 19.64 25.2533 19.64 25.9733 21.0934Z" stroke="#FF00F8" stroke-width="1.5" stroke-linecap="round" stroke-linejoin="round"/>
</svg>
