<svg width="32" height="32" viewBox="0 0 32 32" fill="none" xmlns="http://www.w3.org/2000/svg">
<path opacity="0.4" d="M29.3334 9.90666V17.9067C29.3334 19.9067 28.6667 21.5733 27.4933 22.7467C26.3333 23.9067 24.6667 24.5733 22.6667 24.5733V27.4133C22.6667 28.48 21.48 29.12 20.6 28.5334L14.6667 24.5733H11.84C11.9467 24.1733 12 23.76 12 23.3333C12 21.9733 11.48 20.72 10.6267 19.7734C9.66669 18.68 8.24002 18 6.66669 18C5.17335 18 3.81336 18.6134 2.84003 19.6134C2.72003 19.08 2.66669 18.5067 2.66669 17.9067V9.90666C2.66669 5.90666 5.33335 3.23999 9.33335 3.23999H22.6667C26.6667 3.23999 29.3334 5.90666 29.3334 9.90666Z" stroke="#FF00F8" stroke-width="1.5" stroke-miterlimit="10" stroke-linecap="round" stroke-linejoin="round"/>
<path d="M12 23.3333C12 24.9333 11.2933 26.36 10.1867 27.3333C9.24 28.16 8.01331 28.6667 6.66665 28.6667C3.71998 28.6667 1.33331 26.28 1.33331 23.3333C1.33331 21.6533 2.10665 20.1467 3.33331 19.1733C4.25331 18.44 5.41331 18 6.66665 18C9.61331 18 12 20.3867 12 23.3333Z" stroke="#FF00F8" stroke-width="1.5" stroke-miterlimit="10" stroke-linecap="round" stroke-linejoin="round"/>
<path d="M6.99998 21.6667V23.6667L5.33331 24.6667" stroke="#FF00F8" stroke-width="1.5" stroke-miterlimit="10" stroke-linecap="round" stroke-linejoin="round"/>
<path d="M11.3333 14H20.6666" stroke="#FF00F8" stroke-width="1.5" stroke-miterlimit="10" stroke-linecap="round" stroke-linejoin="round"/>
</svg>
