<svg width="340" height="318" viewBox="0 0 340 318" fill="none" xmlns="http://www.w3.org/2000/svg">
<path style="mix-blend-mode:screen" d="M257.68 77.5801H28.6799V306.58H257.68V77.5801Z" fill="url(#paint0_linear_207_26062)" fill-opacity="0.2"/>
<path d="M89.71 77.5801H28.6799V138.6" stroke="url(#paint1_linear_207_26062)" stroke-width="2.19" stroke-miterlimit="10"/>
<path d="M257.69 138.6V77.5801H196.66" stroke="url(#paint2_linear_207_26062)" stroke-width="2.19" stroke-miterlimit="10"/>
<path d="M196.66 306.571H257.69V245.541" stroke="url(#paint3_linear_207_26062)" stroke-width="2.19" stroke-miterlimit="10"/>
<path d="M28.6799 245.541V306.571H89.71" stroke="url(#paint4_linear_207_26062)" stroke-width="2.19" stroke-miterlimit="10"/>
<path d="M18.1499 192.08H39.2299" stroke="#4DA9FF" stroke-width="0.99" stroke-miterlimit="10"/>
<path d="M268.22 192.08H247.15" stroke="#4DA9FF" stroke-width="0.99" stroke-miterlimit="10"/>
<path d="M143.19 67.0508V88.1208" stroke="#4DA9FF" stroke-width="0.99" stroke-miterlimit="10"/>
<path d="M143.19 317.121V296.041" stroke="#4DA9FF" stroke-width="0.99" stroke-miterlimit="10"/>
<path d="M34.7 286.98H34.25V289.05H34.7V286.98Z" fill="#F94DFF"/>
<path d="M34.7 285.65H34.25V286.69H34.7V285.65Z" fill="#F94DFF"/>
<path d="M34.7 284.93H34.25V285.28H34.7V284.93Z" fill="#F94DFF"/>
<path d="M34.7 284.271H34.25V284.441H34.7V284.271Z" fill="#F94DFF"/>
<path d="M34.7 283.811H34.25V283.981H34.7V283.811Z" fill="#F94DFF"/>
<path d="M34.7 283.35H34.25V283.52H34.7V283.35Z" fill="#F94DFF"/>
<path d="M34.7 282.9H34.25V283.07H34.7V282.9Z" fill="#F94DFF"/>
<path d="M34.7 281.811H34.25V281.981H34.7V281.811Z" fill="#F94DFF"/>
<path d="M34.7 280.461H34.25V280.631H34.7V280.461Z" fill="#F94DFF"/>
<path d="M34.7 278.381H34.25V279.761H34.7V278.381Z" fill="#F94DFF"/>
<path d="M34.7 276.58H34.25V277.62H34.7V276.58Z" fill="#F94DFF"/>
<path d="M34.7 275.391H34.25V276.051H34.7V275.391Z" fill="#F94DFF"/>
<path d="M34.7 274.311H34.25V274.641H34.7V274.311Z" fill="#F94DFF"/>
<path d="M34.7 273.531H34.25V273.861H34.7V273.531Z" fill="#F94DFF"/>
<path d="M34.7 272.98H34.25V273.2H34.7V272.98Z" fill="#F94DFF"/>
<path d="M34.7 272.33H34.25V272.55H34.7V272.33Z" fill="#F94DFF"/>
<path d="M34.7 271.67H34.25V271.89H34.7V271.67Z" fill="#F94DFF"/>
<path d="M34.7 271.021H34.25V271.241H34.7V271.021Z" fill="#F94DFF"/>
<path d="M34.7 270.361H34.25V270.581H34.7V270.361Z" fill="#F94DFF"/>
<path d="M34.7 269.701H34.25V269.921H34.7V269.701Z" fill="#F94DFF"/>
<path d="M34.7 268.5H34.25V268.61H34.7V268.5Z" fill="#F94DFF"/>
<path d="M34.7 267.58H34.25V267.69H34.7V267.58Z" fill="#F94DFF"/>
<path d="M34.7 266.66H34.25V266.77H34.7V266.66Z" fill="#F94DFF"/>
<path d="M34.7 265.73H34.25V265.84H34.7V265.73Z" fill="#F94DFF"/>
<path d="M34.7 264.811H34.25V264.921H34.7V264.811Z" fill="#F94DFF"/>
<path d="M34.7 262.74H34.25V264.81H34.7V262.74Z" fill="#F94DFF"/>
<path d="M34.7 261.4H34.25V262.44H34.7V261.4Z" fill="#F94DFF"/>
<path d="M34.7 260.689H34.25V261.039H34.7V260.689Z" fill="#F94DFF"/>
<path d="M34.7 260.031H34.25V260.201H34.7V260.031Z" fill="#F94DFF"/>
<path d="M34.7 259.57H34.25V259.74H34.7V259.57Z" fill="#F94DFF"/>
<path d="M34.7 259.109H34.25V259.279H34.7V259.109Z" fill="#F94DFF"/>
<path d="M34.7 258.65H34.25V258.82H34.7V258.65Z" fill="#F94DFF"/>
<path d="M34.7 257.57H34.25V257.74H34.7V257.57Z" fill="#F94DFF"/>
<path d="M34.7 256.221H34.25V256.391H34.7V256.221Z" fill="#F94DFF"/>
<path d="M34.7 254.141H34.25V255.521H34.7V254.141Z" fill="#F94DFF"/>
<path d="M34.7 252.34H34.25V253.38H34.7V252.34Z" fill="#F94DFF"/>
<path d="M34.7 251.15H34.25V251.81H34.7V251.15Z" fill="#F94DFF"/>
<path d="M34.7 250.07H34.25V250.4H34.7V250.07Z" fill="#F94DFF"/>
<path d="M34.7 249.291H34.25V249.621H34.7V249.291Z" fill="#F94DFF"/>
<path d="M34.7 248.74H34.25V248.96H34.7V248.74Z" fill="#F94DFF"/>
<path d="M34.7 248.09H34.25V248.31H34.7V248.09Z" fill="#F94DFF"/>
<path d="M34.7 247.43H34.25V247.65H34.7V247.43Z" fill="#F94DFF"/>
<path d="M34.7 246.77H34.25V246.99H34.7V246.77Z" fill="#F94DFF"/>
<path d="M34.7 246.121H34.25V246.341H34.7V246.121Z" fill="#F94DFF"/>
<path d="M34.7 245.461H34.25V245.681H34.7V245.461Z" fill="#F94DFF"/>
<path d="M34.7 244.26H34.25V244.37H34.7V244.26Z" fill="#F94DFF"/>
<path d="M34.7 243.34H34.25V243.45H34.7V243.34Z" fill="#F94DFF"/>
<path d="M34.7 242.41H34.25V242.52H34.7V242.41Z" fill="#F94DFF"/>
<path d="M34.7 241.49H34.25V241.6H34.7V241.49Z" fill="#F94DFF"/>
<path d="M34.7 240.57H34.25V240.68H34.7V240.57Z" fill="#F94DFF"/>
<path d="M34.7 238.49H34.25V240.56H34.7V238.49Z" fill="#F94DFF"/>
<path d="M34.7 237.16H34.25V238.2H34.7V237.16Z" fill="#F94DFF"/>
<path d="M34.7 236.449H34.25V236.799H34.7V236.449Z" fill="#F94DFF"/>
<path d="M34.7 235.791H34.25V235.961H34.7V235.791Z" fill="#F94DFF"/>
<path d="M34.7 235.33H34.25V235.5H34.7V235.33Z" fill="#F94DFF"/>
<path d="M34.7 234.869H34.25V235.039H34.7V234.869Z" fill="#F94DFF"/>
<path d="M34.7 234.41H34.25V234.58H34.7V234.41Z" fill="#F94DFF"/>
<path d="M34.7 233.32H34.25V233.49H34.7V233.32Z" fill="#F94DFF"/>
<path d="M34.7 231.98H34.25V232.15H34.7V231.98Z" fill="#F94DFF"/>
<path d="M34.7 229.891H34.25V231.271H34.7V229.891Z" fill="#F94DFF"/>
<path d="M34.7 228.1H34.25V229.14H34.7V228.1Z" fill="#F94DFF"/>
<path d="M34.7 226.91H34.25V227.57H34.7V226.91Z" fill="#F94DFF"/>
<path d="M34.7 225.83H34.25V226.16H34.7V225.83Z" fill="#F94DFF"/>
<path d="M34.7 225.051H34.25V225.381H34.7V225.051Z" fill="#F94DFF"/>
<path d="M34.7 224.5H34.25V224.72H34.7V224.5Z" fill="#F94DFF"/>
<path d="M34.7 223.84H34.25V224.06H34.7V223.84Z" fill="#F94DFF"/>
<path d="M34.7 223.189H34.25V223.409H34.7V223.189Z" fill="#F94DFF"/>
<path d="M34.7 222.529H34.25V222.749H34.7V222.529Z" fill="#F94DFF"/>
<path d="M34.7 221.881H34.25V222.101H34.7V221.881Z" fill="#F94DFF"/>
<path d="M34.7 221.221H34.25V221.441H34.7V221.221Z" fill="#F94DFF"/>
<path d="M34.7 220.02H34.25V220.13H34.7V220.02Z" fill="#F94DFF"/>
<path d="M34.7 219.09H34.25V219.2H34.7V219.09Z" fill="#F94DFF"/>
<path d="M34.7 218.17H34.25V218.28H34.7V218.17Z" fill="#F94DFF"/>
<path d="M34.7 217.25H34.25V217.36H34.7V217.25Z" fill="#F94DFF"/>
<path d="M34.7 216.33H34.25V216.44H34.7V216.33Z" fill="#F94DFF"/>
<path d="M34.7 214.25H34.25V216.32H34.7V214.25Z" fill="#F94DFF"/>
<path d="M34.7 212.92H34.25V213.96H34.7V212.92Z" fill="#F94DFF"/>
<path d="M34.7 212.211H34.25V212.561H34.7V212.211Z" fill="#F94DFF"/>
<path d="M34.7 211.551H34.25V211.721H34.7V211.551Z" fill="#F94DFF"/>
<path d="M34.7 211.09H34.25V211.26H34.7V211.09Z" fill="#F94DFF"/>
<path d="M34.7 210.631H34.25V210.801H34.7V210.631Z" fill="#F94DFF"/>
<path d="M34.7 210.17H34.25V210.34H34.7V210.17Z" fill="#F94DFF"/>
<path d="M34.7 209.08H34.25V209.25H34.7V209.08Z" fill="#F94DFF"/>
<path d="M34.7 207.73H34.25V207.9H34.7V207.73Z" fill="#F94DFF"/>
<path d="M34.7 205.65H34.25V207.03H34.7V205.65Z" fill="#F94DFF"/>
<path d="M34.7 203.859H34.25V204.899H34.7V203.859Z" fill="#F94DFF"/>
<path d="M34.7 202.67H34.25V203.33H34.7V202.67Z" fill="#F94DFF"/>
<path d="M34.7 201.59H34.25V201.92H34.7V201.59Z" fill="#F94DFF"/>
<path d="M34.7 200.811H34.25V201.141H34.7V200.811Z" fill="#F94DFF"/>
<path d="M34.7 200.26H34.25V200.48H34.7V200.26Z" fill="#F94DFF"/>
<path d="M34.7 199.6H34.25V199.82H34.7V199.6Z" fill="#F94DFF"/>
<path d="M34.7 198.949H34.25V199.169H34.7V198.949Z" fill="#F94DFF"/>
<path d="M34.7 198.291H34.25V198.511H34.7V198.291Z" fill="#F94DFF"/>
<path d="M34.7 197.631H34.25V197.851H34.7V197.631Z" fill="#F94DFF"/>
<path d="M34.7 196.98H34.25V197.2H34.7V196.98Z" fill="#F94DFF"/>
<path d="M34.7 195.77H34.25V195.88H34.7V195.77Z" fill="#F94DFF"/>
<path d="M34.7 194.85H34.25V194.96H34.7V194.85Z" fill="#F94DFF"/>
<path d="M34.7 193.93H34.25V194.04H34.7V193.93Z" fill="#F94DFF"/>
<path d="M34.7 193.01H34.25V193.12H34.7V193.01Z" fill="#F94DFF"/>
<path d="M34.7 192.08H34.25V192.19H34.7V192.08Z" fill="#F94DFF"/>
<path d="M34.7 190.01H34.25V192.08H34.7V190.01Z" fill="#F94DFF"/>
<path d="M34.7 188.68H34.25V189.72H34.7V188.68Z" fill="#F94DFF"/>
<path d="M34.7 187.959H34.25V188.309H34.7V187.959Z" fill="#F94DFF"/>
<path d="M34.7 187.301H34.25V187.471H34.7V187.301Z" fill="#F94DFF"/>
<path d="M34.7 186.84H34.25V187.01H34.7V186.84Z" fill="#F94DFF"/>
<path d="M34.7 186.391H34.25V186.561H34.7V186.391Z" fill="#F94DFF"/>
<path d="M34.7 185.93H34.25V186.1H34.7V185.93Z" fill="#F94DFF"/>
<path d="M34.7 184.84H34.25V185.01H34.7V184.84Z" fill="#F94DFF"/>
<path d="M34.7 183.49H34.25V183.66H34.7V183.49Z" fill="#F94DFF"/>
<path d="M34.7 181.41H34.25V182.79H34.7V181.41Z" fill="#F94DFF"/>
<path d="M34.7 179.609H34.25V180.649H34.7V179.609Z" fill="#F94DFF"/>
<path d="M34.7 178.43H34.25V179.09H34.7V178.43Z" fill="#F94DFF"/>
<path d="M34.7 177.34H34.25V177.67H34.7V177.34Z" fill="#F94DFF"/>
<path d="M34.7 176.561H34.25V176.891H34.7V176.561Z" fill="#F94DFF"/>
<path d="M34.7 176.02H34.25V176.24H34.7V176.02Z" fill="#F94DFF"/>
<path d="M34.7 175.359H34.25V175.579H34.7V175.359Z" fill="#F94DFF"/>
<path d="M34.7 174.699H34.25V174.919H34.7V174.699Z" fill="#F94DFF"/>
<path d="M34.7 174.051H34.25V174.271H34.7V174.051Z" fill="#F94DFF"/>
<path d="M34.7 173.391H34.25V173.611H34.7V173.391Z" fill="#F94DFF"/>
<path d="M34.7 172.74H34.25V172.96H34.7V172.74Z" fill="#F94DFF"/>
<path d="M34.7 171.529H34.25V171.639H34.7V171.529Z" fill="#F94DFF"/>
<path d="M34.7 170.609H34.25V170.719H34.7V170.609Z" fill="#F94DFF"/>
<path d="M34.7 169.689H34.25V169.799H34.7V169.689Z" fill="#F94DFF"/>
<path d="M34.7 168.76H34.25V168.87H34.7V168.76Z" fill="#F94DFF"/>
<path d="M34.7 167.84H34.25V167.95H34.7V167.84Z" fill="#F94DFF"/>
<path d="M34.7 165.77H34.25V167.84H34.7V165.77Z" fill="#F94DFF"/>
<path d="M34.7 164.43H34.25V165.47H34.7V164.43Z" fill="#F94DFF"/>
<path d="M34.7 163.719H34.25V164.069H34.7V163.719Z" fill="#F94DFF"/>
<path d="M34.7 163.061H34.25V163.231H34.7V163.061Z" fill="#F94DFF"/>
<path d="M34.7 162.6H34.25V162.77H34.7V162.6Z" fill="#F94DFF"/>
<path d="M34.7 162.139H34.25V162.309H34.7V162.139Z" fill="#F94DFF"/>
<path d="M34.7 161.68H34.25V161.85H34.7V161.68Z" fill="#F94DFF"/>
<path d="M34.7 160.6H34.25V160.77H34.7V160.6Z" fill="#F94DFF"/>
<path d="M34.7 159.25H34.25V159.42H34.7V159.25Z" fill="#F94DFF"/>
<path d="M34.7 157.17H34.25V158.55H34.7V157.17Z" fill="#F94DFF"/>
<path d="M34.7 155.369H34.25V156.409H34.7V155.369Z" fill="#F94DFF"/>
<path d="M34.7 154.18H34.25V154.84H34.7V154.18Z" fill="#F94DFF"/>
<path d="M34.7 153.1H34.25V153.43H34.7V153.1Z" fill="#F94DFF"/>
<path d="M34.7 152.32H34.25V152.65H34.7V152.32Z" fill="#F94DFF"/>
<path d="M34.7 151.77H34.25V151.99H34.7V151.77Z" fill="#F94DFF"/>
<path d="M34.7 151.119H34.25V151.339H34.7V151.119Z" fill="#F94DFF"/>
<path d="M34.7 150.459H34.25V150.679H34.7V150.459Z" fill="#F94DFF"/>
<path d="M34.7 149.811H34.25V150.031H34.7V149.811Z" fill="#F94DFF"/>
<path d="M34.7 149.15H34.25V149.37H34.7V149.15Z" fill="#F94DFF"/>
<path d="M34.7 148.49H34.25V148.71H34.7V148.49Z" fill="#F94DFF"/>
<path d="M34.7 147.289H34.25V147.399H34.7V147.289Z" fill="#F94DFF"/>
<path d="M34.7 146.369H34.25V146.479H34.7V146.369Z" fill="#F94DFF"/>
<path d="M34.7 145.439H34.25V145.549H34.7V145.439Z" fill="#F94DFF"/>
<path d="M34.7 144.52H34.25V144.63H34.7V144.52Z" fill="#F94DFF"/>
<path d="M34.7 143.6H34.25V143.71H34.7V143.6Z" fill="#F94DFF"/>
<path d="M34.7 141.531H34.25V143.601H34.7V141.531Z" fill="#F94DFF"/>
<path d="M34.7 140.191H34.25V141.231H34.7V140.191Z" fill="#F94DFF"/>
<path d="M34.7 139.48H34.25V139.83H34.7V139.48Z" fill="#F94DFF"/>
<path d="M34.7 138.822H34.25V138.992H34.7V138.822Z" fill="#F94DFF"/>
<path d="M34.7 138.361H34.25V138.531H34.7V138.361Z" fill="#F94DFF"/>
<path d="M34.7 137.9H34.25V138.07H34.7V137.9Z" fill="#F94DFF"/>
<path d="M34.7 137.441H34.25V137.611H34.7V137.441Z" fill="#F94DFF"/>
<path d="M34.7 136.352H34.25V136.522H34.7V136.352Z" fill="#F94DFF"/>
<path d="M34.7 135.012H34.25V135.182H34.7V135.012Z" fill="#F94DFF"/>
<path d="M34.7 132.932H34.25V134.312H34.7V132.932Z" fill="#F94DFF"/>
<path d="M34.7 131.131H34.25V132.171H34.7V131.131Z" fill="#F94DFF"/>
<path d="M34.7 129.941H34.25V130.601H34.7V129.941Z" fill="#F94DFF"/>
<path d="M34.7 128.861H34.25V129.191H34.7V128.861Z" fill="#F94DFF"/>
<path d="M34.7 128.082H34.25V128.412H34.7V128.082Z" fill="#F94DFF"/>
<path d="M34.7 127.531H34.25V127.751H34.7V127.531Z" fill="#F94DFF"/>
<path d="M34.7 126.871H34.25V127.091H34.7V126.871Z" fill="#F94DFF"/>
<path d="M34.7 126.221H34.25V126.441H34.7V126.221Z" fill="#F94DFF"/>
<path d="M34.7 125.561H34.25V125.781H34.7V125.561Z" fill="#F94DFF"/>
<path d="M34.7 124.912H34.25V125.132H34.7V124.912Z" fill="#F94DFF"/>
<path d="M34.7 124.252H34.25V124.472H34.7V124.252Z" fill="#F94DFF"/>
<path d="M34.7 123.051H34.25V123.161H34.7V123.051Z" fill="#F94DFF"/>
<path d="M34.7 122.131H34.25V122.241H34.7V122.131Z" fill="#F94DFF"/>
<path d="M34.7 121.201H34.25V121.311H34.7V121.201Z" fill="#F94DFF"/>
<path d="M34.7 120.281H34.25V120.391H34.7V120.281Z" fill="#F94DFF"/>
<path d="M34.7 119.361H34.25V119.471H34.7V119.361Z" fill="#F94DFF"/>
<path d="M34.7 117.281H34.25V119.351H34.7V117.281Z" fill="#F94DFF"/>
<path d="M34.7 115.951H34.25V116.991H34.7V115.951Z" fill="#F94DFF"/>
<path d="M34.7 115.242H34.25V115.592H34.7V115.242Z" fill="#F94DFF"/>
<path d="M34.7 114.582H34.25V114.752H34.7V114.582Z" fill="#F94DFF"/>
<path d="M34.7 114.121H34.25V114.291H34.7V114.121Z" fill="#F94DFF"/>
<path d="M34.7 113.662H34.25V113.832H34.7V113.662Z" fill="#F94DFF"/>
<path d="M34.7 113.201H34.25V113.371H34.7V113.201Z" fill="#F94DFF"/>
<path d="M34.7 112.111H34.25V112.281H34.7V112.111Z" fill="#F94DFF"/>
<path d="M34.7 110.771H34.25V110.941H34.7V110.771Z" fill="#F94DFF"/>
<path d="M34.7 108.682H34.25V110.062H34.7V108.682Z" fill="#F94DFF"/>
<path d="M34.7 106.891H34.25V107.931H34.7V106.891Z" fill="#F94DFF"/>
<path d="M34.7 105.701H34.25V106.361H34.7V105.701Z" fill="#F94DFF"/>
<path d="M34.7 104.621H34.25V104.951H34.7V104.621Z" fill="#F94DFF"/>
<path d="M34.7 103.842H34.25V104.172H34.7V103.842Z" fill="#F94DFF"/>
<path d="M34.7 103.291H34.25V103.511H34.7V103.291Z" fill="#F94DFF"/>
<path d="M34.7 102.631H34.25V102.851H34.7V102.631Z" fill="#F94DFF"/>
<path d="M34.7 101.98H34.25V102.2H34.7V101.98Z" fill="#F94DFF"/>
<path d="M34.7 101.322H34.25V101.542H34.7V101.322Z" fill="#F94DFF"/>
<path d="M34.7 100.662H34.25V100.882H34.7V100.662Z" fill="#F94DFF"/>
<path d="M34.7 100.012H34.25V100.232H34.7V100.012Z" fill="#F94DFF"/>
<path d="M34.7 98.8105H34.25V98.9205H34.7V98.8105Z" fill="#F94DFF"/>
<path d="M34.7 97.8809H34.25V97.9909H34.7V97.8809Z" fill="#F94DFF"/>
<path d="M34.7 96.9609H34.25V97.0709H34.7V96.9609Z" fill="#F94DFF"/>
<path d="M34.7 96.041H34.25V96.151H34.7V96.041Z" fill="#F94DFF"/>
<path d="M34.7 95.1113H34.25V95.2213H34.7V95.1113Z" fill="#F94DFF"/>
<path d="M48.29 83.1504H46.22V83.6004H48.29V83.1504Z" fill="#F94DFF"/>
<path d="M49.6298 83.1504H48.5898V83.6004H49.6298V83.1504Z" fill="#F94DFF"/>
<path d="M50.34 83.1504H49.99V83.6004H50.34V83.1504Z" fill="#F94DFF"/>
<path d="M50.9898 83.1504H50.8198V83.6004H50.9898V83.1504Z" fill="#F94DFF"/>
<path d="M51.45 83.1504H51.28V83.6004H51.45V83.1504Z" fill="#F94DFF"/>
<path d="M51.91 83.1504H51.74V83.6004H51.91V83.1504Z" fill="#F94DFF"/>
<path d="M52.3699 83.1504H52.2V83.6004H52.3699V83.1504Z" fill="#F94DFF"/>
<path d="M53.46 83.1504H53.29V83.6004H53.46V83.1504Z" fill="#F94DFF"/>
<path d="M54.7999 83.1504H54.6299V83.6004H54.7999V83.1504Z" fill="#F94DFF"/>
<path d="M56.89 83.1504H55.51V83.6004H56.89V83.1504Z" fill="#F94DFF"/>
<path d="M58.6799 83.1504H57.6399V83.6004H58.6799V83.1504Z" fill="#F94DFF"/>
<path d="M59.8699 83.1504H59.21V83.6004H59.8699V83.1504Z" fill="#F94DFF"/>
<path d="M60.9599 83.1504H60.6299V83.6004H60.9599V83.1504Z" fill="#F94DFF"/>
<path d="M61.7399 83.1504H61.4099V83.6004H61.7399V83.1504Z" fill="#F94DFF"/>
<path d="M62.2899 83.1504H62.0698V83.6004H62.2899V83.1504Z" fill="#F94DFF"/>
<path d="M62.9399 83.1504H62.72V83.6004H62.9399V83.1504Z" fill="#F94DFF"/>
<path d="M63.5999 83.1504H63.3799V83.6004H63.5999V83.1504Z" fill="#F94DFF"/>
<path d="M64.25 83.1504H64.03V83.6004H64.25V83.1504Z" fill="#F94DFF"/>
<path d="M64.91 83.1504H64.6899V83.6004H64.91V83.1504Z" fill="#F94DFF"/>
<path d="M65.5701 83.1504H65.3501V83.6004H65.5701V83.1504Z" fill="#F94DFF"/>
<path d="M66.7699 83.1504H66.6599V83.6004H66.7699V83.1504Z" fill="#F94DFF"/>
<path d="M67.6901 83.1504H67.5801V83.6004H67.6901V83.1504Z" fill="#F94DFF"/>
<path d="M68.61 83.1504H68.5V83.6004H68.61V83.1504Z" fill="#F94DFF"/>
<path d="M69.54 83.1504H69.4299V83.6004H69.54V83.1504Z" fill="#F94DFF"/>
<path d="M70.4601 83.1504H70.3501V83.6004H70.4601V83.1504Z" fill="#F94DFF"/>
<path d="M72.53 83.1504H70.46V83.6004H72.53V83.1504Z" fill="#F94DFF"/>
<path d="M73.8701 83.1504H72.8301V83.6004H73.8701V83.1504Z" fill="#F94DFF"/>
<path d="M74.58 83.1504H74.23V83.6004H74.58V83.1504Z" fill="#F94DFF"/>
<path d="M75.2398 83.1504H75.0698V83.6004H75.2398V83.1504Z" fill="#F94DFF"/>
<path d="M75.69 83.1504H75.52V83.6004H75.69V83.1504Z" fill="#F94DFF"/>
<path d="M76.15 83.1504H75.98V83.6004H76.15V83.1504Z" fill="#F94DFF"/>
<path d="M76.6099 83.1504H76.4399V83.6004H76.6099V83.1504Z" fill="#F94DFF"/>
<path d="M77.7 83.1504H77.53V83.6004H77.7V83.1504Z" fill="#F94DFF"/>
<path d="M79.0499 83.1504H78.8799V83.6004H79.0499V83.1504Z" fill="#F94DFF"/>
<path d="M81.14 83.1504H79.76V83.6004H81.14V83.1504Z" fill="#F94DFF"/>
<path d="M82.9299 83.1504H81.8899V83.6004H82.9299V83.1504Z" fill="#F94DFF"/>
<path d="M84.1199 83.1504H83.46V83.6004H84.1199V83.1504Z" fill="#F94DFF"/>
<path d="M85.1999 83.1504H84.8699V83.6004H85.1999V83.1504Z" fill="#F94DFF"/>
<path d="M85.9799 83.1504H85.6499V83.6004H85.9799V83.1504Z" fill="#F94DFF"/>
<path d="M86.5301 83.1504H86.3101V83.6004H86.5301V83.1504Z" fill="#F94DFF"/>
<path d="M87.1799 83.1504H86.96V83.6004H87.1799V83.1504Z" fill="#F94DFF"/>
<path d="M87.8399 83.1504H87.6199V83.6004H87.8399V83.1504Z" fill="#F94DFF"/>
<path d="M88.5 83.1504H88.28V83.6004H88.5V83.1504Z" fill="#F94DFF"/>
<path d="M89.15 83.1504H88.9299V83.6004H89.15V83.1504Z" fill="#F94DFF"/>
<path d="M89.8098 83.1504H89.5898V83.6004H89.8098V83.1504Z" fill="#F94DFF"/>
<path d="M91.0099 83.1504H90.8999V83.6004H91.0099V83.1504Z" fill="#F94DFF"/>
<path d="M91.9298 83.1504H91.8198V83.6004H91.9298V83.1504Z" fill="#F94DFF"/>
<path d="M92.86 83.1504H92.75V83.6004H92.86V83.1504Z" fill="#F94DFF"/>
<path d="M93.78 83.1504H93.6699V83.6004H93.78V83.1504Z" fill="#F94DFF"/>
<path d="M94.6998 83.1504H94.5898V83.6004H94.6998V83.1504Z" fill="#F94DFF"/>
<path d="M96.77 83.1504H94.7V83.6004H96.77V83.1504Z" fill="#F94DFF"/>
<path d="M98.1098 83.1504H97.0698V83.6004H98.1098V83.1504Z" fill="#F94DFF"/>
<path d="M98.8199 83.1504H98.47V83.6004H98.8199V83.1504Z" fill="#F94DFF"/>
<path d="M99.48 83.1504H99.3101V83.6004H99.48V83.1504Z" fill="#F94DFF"/>
<path d="M99.94 83.1504H99.77V83.6004H99.94V83.1504Z" fill="#F94DFF"/>
<path d="M100.39 83.1504H100.22V83.6004H100.39V83.1504Z" fill="#F94DFF"/>
<path d="M100.85 83.1504H100.68V83.6004H100.85V83.1504Z" fill="#F94DFF"/>
<path d="M101.94 83.1504H101.77V83.6004H101.94V83.1504Z" fill="#F94DFF"/>
<path d="M103.29 83.1504H103.12V83.6004H103.29V83.1504Z" fill="#F94DFF"/>
<path d="M105.38 83.1504H104V83.6004H105.38V83.1504Z" fill="#F94DFF"/>
<path d="M107.17 83.1504H106.13V83.6004H107.17V83.1504Z" fill="#F94DFF"/>
<path d="M108.36 83.1504H107.7V83.6004H108.36V83.1504Z" fill="#F94DFF"/>
<path d="M109.44 83.1504H109.11V83.6004H109.44V83.1504Z" fill="#F94DFF"/>
<path d="M110.22 83.1504H109.89V83.6004H110.22V83.1504Z" fill="#F94DFF"/>
<path d="M110.77 83.1504H110.55V83.6004H110.77V83.1504Z" fill="#F94DFF"/>
<path d="M111.43 83.1504H111.21V83.6004H111.43V83.1504Z" fill="#F94DFF"/>
<path d="M112.08 83.1504H111.86V83.6004H112.08V83.1504Z" fill="#F94DFF"/>
<path d="M112.74 83.1504H112.52V83.6004H112.74V83.1504Z" fill="#F94DFF"/>
<path d="M113.39 83.1504H113.17V83.6004H113.39V83.1504Z" fill="#F94DFF"/>
<path d="M114.05 83.1504H113.83V83.6004H114.05V83.1504Z" fill="#F94DFF"/>
<path d="M115.25 83.1504H115.14V83.6004H115.25V83.1504Z" fill="#F94DFF"/>
<path d="M116.18 83.1504H116.07V83.6004H116.18V83.1504Z" fill="#F94DFF"/>
<path d="M117.1 83.1504H116.99V83.6004H117.1V83.1504Z" fill="#F94DFF"/>
<path d="M118.02 83.1504H117.91V83.6004H118.02V83.1504Z" fill="#F94DFF"/>
<path d="M118.94 83.1504H118.83V83.6004H118.94V83.1504Z" fill="#F94DFF"/>
<path d="M121.01 83.1504H118.94V83.6004H121.01V83.1504Z" fill="#F94DFF"/>
<path d="M122.35 83.1504H121.31V83.6004H122.35V83.1504Z" fill="#F94DFF"/>
<path d="M123.06 83.1504H122.71V83.6004H123.06V83.1504Z" fill="#F94DFF"/>
<path d="M123.72 83.1504H123.55V83.6004H123.72V83.1504Z" fill="#F94DFF"/>
<path d="M124.18 83.1504H124.01V83.6004H124.18V83.1504Z" fill="#F94DFF"/>
<path d="M124.64 83.1504H124.47V83.6004H124.64V83.1504Z" fill="#F94DFF"/>
<path d="M125.1 83.1504H124.93V83.6004H125.1V83.1504Z" fill="#F94DFF"/>
<path d="M126.18 83.1504H126.01V83.6004H126.18V83.1504Z" fill="#F94DFF"/>
<path d="M127.53 83.1504H127.36V83.6004H127.53V83.1504Z" fill="#F94DFF"/>
<path d="M129.62 83.1504H128.24V83.6004H129.62V83.1504Z" fill="#F94DFF"/>
<path d="M131.41 83.1504H130.37V83.6004H131.41V83.1504Z" fill="#F94DFF"/>
<path d="M132.6 83.1504H131.94V83.6004H132.6V83.1504Z" fill="#F94DFF"/>
<path d="M133.68 83.1504H133.35V83.6004H133.68V83.1504Z" fill="#F94DFF"/>
<path d="M134.46 83.1504H134.13V83.6004H134.46V83.1504Z" fill="#F94DFF"/>
<path d="M135.01 83.1504H134.79V83.6004H135.01V83.1504Z" fill="#F94DFF"/>
<path d="M135.67 83.1504H135.45V83.6004H135.67V83.1504Z" fill="#F94DFF"/>
<path d="M136.33 83.1504H136.11V83.6004H136.33V83.1504Z" fill="#F94DFF"/>
<path d="M136.98 83.1504H136.76V83.6004H136.98V83.1504Z" fill="#F94DFF"/>
<path d="M137.64 83.1504H137.42V83.6004H137.64V83.1504Z" fill="#F94DFF"/>
<path d="M138.29 83.1504H138.07V83.6004H138.29V83.1504Z" fill="#F94DFF"/>
<path d="M139.49 83.1504H139.38V83.6004H139.49V83.1504Z" fill="#F94DFF"/>
<path d="M140.42 83.1504H140.31V83.6004H140.42V83.1504Z" fill="#F94DFF"/>
<path d="M141.34 83.1504H141.23V83.6004H141.34V83.1504Z" fill="#F94DFF"/>
<path d="M142.26 83.1504H142.15V83.6004H142.26V83.1504Z" fill="#F94DFF"/>
<path d="M143.19 83.1504H143.08V83.6004H143.19V83.1504Z" fill="#F94DFF"/>
<path d="M145.26 83.1504H143.19V83.6004H145.26V83.1504Z" fill="#F94DFF"/>
<path d="M146.6 83.1504H145.56V83.6004H146.6V83.1504Z" fill="#F94DFF"/>
<path d="M147.31 83.1504H146.96V83.6004H147.31V83.1504Z" fill="#F94DFF"/>
<path d="M147.96 83.1504H147.79V83.6004H147.96V83.1504Z" fill="#F94DFF"/>
<path d="M148.42 83.1504H148.25V83.6004H148.42V83.1504Z" fill="#F94DFF"/>
<path d="M148.88 83.1504H148.71V83.6004H148.88V83.1504Z" fill="#F94DFF"/>
<path d="M149.34 83.1504H149.17V83.6004H149.34V83.1504Z" fill="#F94DFF"/>
<path d="M150.43 83.1504H150.26V83.6004H150.43V83.1504Z" fill="#F94DFF"/>
<path d="M151.77 83.1504H151.6V83.6004H151.77V83.1504Z" fill="#F94DFF"/>
<path d="M153.86 83.1504H152.48V83.6004H153.86V83.1504Z" fill="#F94DFF"/>
<path d="M155.65 83.1504H154.61V83.6004H155.65V83.1504Z" fill="#F94DFF"/>
<path d="M156.84 83.1504H156.18V83.6004H156.84V83.1504Z" fill="#F94DFF"/>
<path d="M157.93 83.1504H157.6V83.6004H157.93V83.1504Z" fill="#F94DFF"/>
<path d="M158.71 83.1504H158.38V83.6004H158.71V83.1504Z" fill="#F94DFF"/>
<path d="M159.26 83.1504H159.04V83.6004H159.26V83.1504Z" fill="#F94DFF"/>
<path d="M159.91 83.1504H159.69V83.6004H159.91V83.1504Z" fill="#F94DFF"/>
<path d="M160.57 83.1504H160.35V83.6004H160.57V83.1504Z" fill="#F94DFF"/>
<path d="M161.22 83.1504H161V83.6004H161.22V83.1504Z" fill="#F94DFF"/>
<path d="M161.88 83.1504H161.66V83.6004H161.88V83.1504Z" fill="#F94DFF"/>
<path d="M162.54 83.1504H162.32V83.6004H162.54V83.1504Z" fill="#F94DFF"/>
<path d="M163.74 83.1504H163.63V83.6004H163.74V83.1504Z" fill="#F94DFF"/>
<path d="M164.66 83.1504H164.55V83.6004H164.66V83.1504Z" fill="#F94DFF"/>
<path d="M165.58 83.1504H165.47V83.6004H165.58V83.1504Z" fill="#F94DFF"/>
<path d="M166.51 83.1504H166.4V83.6004H166.51V83.1504Z" fill="#F94DFF"/>
<path d="M167.43 83.1504H167.32V83.6004H167.43V83.1504Z" fill="#F94DFF"/>
<path d="M169.5 83.1504H167.43V83.6004H169.5V83.1504Z" fill="#F94DFF"/>
<path d="M170.84 83.1504H169.8V83.6004H170.84V83.1504Z" fill="#F94DFF"/>
<path d="M171.55 83.1504H171.2V83.6004H171.55V83.1504Z" fill="#F94DFF"/>
<path d="M172.2 83.1504H172.03V83.6004H172.2V83.1504Z" fill="#F94DFF"/>
<path d="M172.66 83.1504H172.49V83.6004H172.66V83.1504Z" fill="#F94DFF"/>
<path d="M173.12 83.1504H172.95V83.6004H173.12V83.1504Z" fill="#F94DFF"/>
<path d="M173.58 83.1504H173.41V83.6004H173.58V83.1504Z" fill="#F94DFF"/>
<path d="M174.67 83.1504H174.5V83.6004H174.67V83.1504Z" fill="#F94DFF"/>
<path d="M176.01 83.1504H175.84V83.6004H176.01V83.1504Z" fill="#F94DFF"/>
<path d="M178.1 83.1504H176.72V83.6004H178.1V83.1504Z" fill="#F94DFF"/>
<path d="M179.9 83.1504H178.86V83.6004H179.9V83.1504Z" fill="#F94DFF"/>
<path d="M181.09 83.1504H180.43V83.6004H181.09V83.1504Z" fill="#F94DFF"/>
<path d="M182.17 83.1504H181.84V83.6004H182.17V83.1504Z" fill="#F94DFF"/>
<path d="M182.95 83.1504H182.62V83.6004H182.95V83.1504Z" fill="#F94DFF"/>
<path d="M183.5 83.1504H183.28V83.6004H183.5V83.1504Z" fill="#F94DFF"/>
<path d="M184.15 83.1504H183.93V83.6004H184.15V83.1504Z" fill="#F94DFF"/>
<path d="M184.81 83.1504H184.59V83.6004H184.81V83.1504Z" fill="#F94DFF"/>
<path d="M185.47 83.1504H185.25V83.6004H185.47V83.1504Z" fill="#F94DFF"/>
<path d="M186.12 83.1504H185.9V83.6004H186.12V83.1504Z" fill="#F94DFF"/>
<path d="M186.78 83.1504H186.56V83.6004H186.78V83.1504Z" fill="#F94DFF"/>
<path d="M187.98 83.1504H187.87V83.6004H187.98V83.1504Z" fill="#F94DFF"/>
<path d="M188.9 83.1504H188.79V83.6004H188.9V83.1504Z" fill="#F94DFF"/>
<path d="M189.83 83.1504H189.72V83.6004H189.83V83.1504Z" fill="#F94DFF"/>
<path d="M190.75 83.1504H190.64V83.6004H190.75V83.1504Z" fill="#F94DFF"/>
<path d="M191.67 83.1504H191.56V83.6004H191.67V83.1504Z" fill="#F94DFF"/>
<path d="M193.74 83.1504H191.67V83.6004H193.74V83.1504Z" fill="#F94DFF"/>
<path d="M195.08 83.1504H194.04V83.6004H195.08V83.1504Z" fill="#F94DFF"/>
<path d="M195.79 83.1504H195.44V83.6004H195.79V83.1504Z" fill="#F94DFF"/>
<path d="M196.45 83.1504H196.28V83.6004H196.45V83.1504Z" fill="#F94DFF"/>
<path d="M196.9 83.1504H196.73V83.6004H196.9V83.1504Z" fill="#F94DFF"/>
<path d="M197.36 83.1504H197.19V83.6004H197.36V83.1504Z" fill="#F94DFF"/>
<path d="M197.82 83.1504H197.65V83.6004H197.82V83.1504Z" fill="#F94DFF"/>
<path d="M198.91 83.1504H198.74V83.6004H198.91V83.1504Z" fill="#F94DFF"/>
<path d="M200.26 83.1504H200.09V83.6004H200.26V83.1504Z" fill="#F94DFF"/>
<path d="M202.35 83.1504H200.97V83.6004H202.35V83.1504Z" fill="#F94DFF"/>
<path d="M204.14 83.1504H203.1V83.6004H204.14V83.1504Z" fill="#F94DFF"/>
<path d="M205.33 83.1504H204.67V83.6004H205.33V83.1504Z" fill="#F94DFF"/>
<path d="M206.41 83.1504H206.08V83.6004H206.41V83.1504Z" fill="#F94DFF"/>
<path d="M207.19 83.1504H206.86V83.6004H207.19V83.1504Z" fill="#F94DFF"/>
<path d="M207.74 83.1504H207.52V83.6004H207.74V83.1504Z" fill="#F94DFF"/>
<path d="M208.4 83.1504H208.18V83.6004H208.4V83.1504Z" fill="#F94DFF"/>
<path d="M209.05 83.1504H208.83V83.6004H209.05V83.1504Z" fill="#F94DFF"/>
<path d="M209.71 83.1504H209.49V83.6004H209.71V83.1504Z" fill="#F94DFF"/>
<path d="M210.36 83.1504H210.14V83.6004H210.36V83.1504Z" fill="#F94DFF"/>
<path d="M211.02 83.1504H210.8V83.6004H211.02V83.1504Z" fill="#F94DFF"/>
<path d="M212.22 83.1504H212.11V83.6004H212.22V83.1504Z" fill="#F94DFF"/>
<path d="M213.14 83.1504H213.03V83.6004H213.14V83.1504Z" fill="#F94DFF"/>
<path d="M214.07 83.1504H213.96V83.6004H214.07V83.1504Z" fill="#F94DFF"/>
<path d="M214.99 83.1504H214.88V83.6004H214.99V83.1504Z" fill="#F94DFF"/>
<path d="M215.91 83.1504H215.8V83.6004H215.91V83.1504Z" fill="#F94DFF"/>
<path d="M217.98 83.1504H215.91V83.6004H217.98V83.1504Z" fill="#F94DFF"/>
<path d="M219.32 83.1504H218.28V83.6004H219.32V83.1504Z" fill="#F94DFF"/>
<path d="M220.03 83.1504H219.68V83.6004H220.03V83.1504Z" fill="#F94DFF"/>
<path d="M220.69 83.1504H220.52V83.6004H220.69V83.1504Z" fill="#F94DFF"/>
<path d="M221.15 83.1504H220.98V83.6004H221.15V83.1504Z" fill="#F94DFF"/>
<path d="M221.61 83.1504H221.44V83.6004H221.61V83.1504Z" fill="#F94DFF"/>
<path d="M222.06 83.1504H221.89V83.6004H222.06V83.1504Z" fill="#F94DFF"/>
<path d="M223.15 83.1504H222.98V83.6004H223.15V83.1504Z" fill="#F94DFF"/>
<path d="M224.5 83.1504H224.33V83.6004H224.5V83.1504Z" fill="#F94DFF"/>
<path d="M226.59 83.1504H225.21V83.6004H226.59V83.1504Z" fill="#F94DFF"/>
<path d="M228.38 83.1504H227.34V83.6004H228.38V83.1504Z" fill="#F94DFF"/>
<path d="M229.57 83.1504H228.91V83.6004H229.57V83.1504Z" fill="#F94DFF"/>
<path d="M230.65 83.1504H230.32V83.6004H230.65V83.1504Z" fill="#F94DFF"/>
<path d="M231.43 83.1504H231.1V83.6004H231.43V83.1504Z" fill="#F94DFF"/>
<path d="M231.98 83.1504H231.76V83.6004H231.98V83.1504Z" fill="#F94DFF"/>
<path d="M232.64 83.1504H232.42V83.6004H232.64V83.1504Z" fill="#F94DFF"/>
<path d="M233.29 83.1504H233.07V83.6004H233.29V83.1504Z" fill="#F94DFF"/>
<path d="M233.95 83.1504H233.73V83.6004H233.95V83.1504Z" fill="#F94DFF"/>
<path d="M234.61 83.1504H234.39V83.6004H234.61V83.1504Z" fill="#F94DFF"/>
<path d="M235.26 83.1504H235.04V83.6004H235.26V83.1504Z" fill="#F94DFF"/>
<path d="M236.46 83.1504H236.35V83.6004H236.46V83.1504Z" fill="#F94DFF"/>
<path d="M237.39 83.1504H237.28V83.6004H237.39V83.1504Z" fill="#F94DFF"/>
<path d="M238.31 83.1504H238.2V83.6004H238.31V83.1504Z" fill="#F94DFF"/>
<path d="M239.23 83.1504H239.12V83.6004H239.23V83.1504Z" fill="#F94DFF"/>
<path d="M240.16 83.1504H240.05V83.6004H240.16V83.1504Z" fill="#F94DFF"/>
<path d="M252.12 95.1113H251.67V97.1813H252.12V95.1113Z" fill="#F94DFF"/>
<path d="M252.12 97.4922H251.67V98.5322H252.12V97.4922Z" fill="#F94DFF"/>
<path d="M252.12 98.8906H251.67V99.2406H252.12V98.8906Z" fill="#F94DFF"/>
<path d="M252.12 99.7207H251.67V99.8907H252.12V99.7207Z" fill="#F94DFF"/>
<path d="M252.12 100.182H251.67V100.352H252.12V100.182Z" fill="#F94DFF"/>
<path d="M252.12 100.641H251.67V100.811H252.12V100.641Z" fill="#F94DFF"/>
<path d="M252.12 101.102H251.67V101.272H252.12V101.102Z" fill="#F94DFF"/>
<path d="M252.12 102.191H251.67V102.361H252.12V102.191Z" fill="#F94DFF"/>
<path d="M252.12 103.531H251.67V103.701H252.12V103.531Z" fill="#F94DFF"/>
<path d="M252.12 104.412H251.67V105.792H252.12V104.412Z" fill="#F94DFF"/>
<path d="M252.12 106.541H251.67V107.581H252.12V106.541Z" fill="#F94DFF"/>
<path d="M252.12 108.111H251.67V108.771H252.12V108.111Z" fill="#F94DFF"/>
<path d="M252.12 109.521H251.67V109.851H252.12V109.521Z" fill="#F94DFF"/>
<path d="M252.12 110.301H251.67V110.631H252.12V110.301Z" fill="#F94DFF"/>
<path d="M252.12 110.971H251.67V111.191H252.12V110.971Z" fill="#F94DFF"/>
<path d="M252.12 111.621H251.67V111.841H252.12V111.621Z" fill="#F94DFF"/>
<path d="M252.12 112.281H251.67V112.501H252.12V112.281Z" fill="#F94DFF"/>
<path d="M252.12 112.932H251.67V113.152H252.12V112.932Z" fill="#F94DFF"/>
<path d="M252.12 113.592H251.67V113.812H252.12V113.592Z" fill="#F94DFF"/>
<path d="M252.12 114.242H251.67V114.462H252.12V114.242Z" fill="#F94DFF"/>
<path d="M252.12 115.561H251.67V115.671H252.12V115.561Z" fill="#F94DFF"/>
<path d="M252.12 116.48H251.67V116.59H252.12V116.48Z" fill="#F94DFF"/>
<path d="M252.12 117.4H251.67V117.51H252.12V117.4Z" fill="#F94DFF"/>
<path d="M252.12 118.332H251.67V118.442H252.12V118.332Z" fill="#F94DFF"/>
<path d="M252.12 119.252H251.67V119.362H252.12V119.252Z" fill="#F94DFF"/>
<path d="M252.12 119.361H251.67V121.431H252.12V119.361Z" fill="#F94DFF"/>
<path d="M252.12 121.73H251.67V122.77H252.12V121.73Z" fill="#F94DFF"/>
<path d="M252.12 123.131H251.67V123.481H252.12V123.131Z" fill="#F94DFF"/>
<path d="M252.12 123.961H251.67V124.131H252.12V123.961Z" fill="#F94DFF"/>
<path d="M252.12 124.422H251.67V124.592H252.12V124.422Z" fill="#F94DFF"/>
<path d="M252.12 124.881H251.67V125.051H252.12V124.881Z" fill="#F94DFF"/>
<path d="M252.12 125.342H251.67V125.512H252.12V125.342Z" fill="#F94DFF"/>
<path d="M252.12 126.432H251.67V126.602H252.12V126.432Z" fill="#F94DFF"/>
<path d="M252.12 127.771H251.67V127.941H252.12V127.771Z" fill="#F94DFF"/>
<path d="M252.12 128.65H251.67V130.03H252.12V128.65Z" fill="#F94DFF"/>
<path d="M252.12 130.791H251.67V131.831H252.12V130.791Z" fill="#F94DFF"/>
<path d="M252.12 132.361H251.67V133.021H252.12V132.361Z" fill="#F94DFF"/>
<path d="M252.12 133.771H251.67V134.101H252.12V133.771Z" fill="#F94DFF"/>
<path d="M252.12 134.551H251.67V134.881H252.12V134.551Z" fill="#F94DFF"/>
<path d="M252.12 135.211H251.67V135.431H252.12V135.211Z" fill="#F94DFF"/>
<path d="M252.12 135.861H251.67V136.081H252.12V135.861Z" fill="#F94DFF"/>
<path d="M252.12 136.521H251.67V136.741H252.12V136.521Z" fill="#F94DFF"/>
<path d="M252.12 137.182H251.67V137.402H252.12V137.182Z" fill="#F94DFF"/>
<path d="M252.12 137.832H251.67V138.052H252.12V137.832Z" fill="#F94DFF"/>
<path d="M252.12 138.492H251.67V138.712H252.12V138.492Z" fill="#F94DFF"/>
<path d="M252.12 139.801H251.67V139.911H252.12V139.801Z" fill="#F94DFF"/>
<path d="M252.12 140.721H251.67V140.831H252.12V140.721Z" fill="#F94DFF"/>
<path d="M252.12 141.641H251.67V141.751H252.12V141.641Z" fill="#F94DFF"/>
<path d="M252.12 142.572H251.67V142.682H252.12V142.572Z" fill="#F94DFF"/>
<path d="M252.12 143.492H251.67V143.602H252.12V143.492Z" fill="#F94DFF"/>
<path d="M252.12 143.6H251.67V145.67H252.12V143.6Z" fill="#F94DFF"/>
<path d="M252.12 145.969H251.67V147.009H252.12V145.969Z" fill="#F94DFF"/>
<path d="M252.12 147.369H251.67V147.719H252.12V147.369Z" fill="#F94DFF"/>
<path d="M252.12 148.209H251.67V148.379H252.12V148.209Z" fill="#F94DFF"/>
<path d="M252.12 148.66H251.67V148.83H252.12V148.66Z" fill="#F94DFF"/>
<path d="M252.12 149.119H251.67V149.289H252.12V149.119Z" fill="#F94DFF"/>
<path d="M252.12 149.58H251.67V149.75H252.12V149.58Z" fill="#F94DFF"/>
<path d="M252.12 150.67H251.67V150.84H252.12V150.67Z" fill="#F94DFF"/>
<path d="M252.12 152.02H251.67V152.19H252.12V152.02Z" fill="#F94DFF"/>
<path d="M252.12 152.9H251.67V154.28H252.12V152.9Z" fill="#F94DFF"/>
<path d="M252.12 155.029H251.67V156.069H252.12V155.029Z" fill="#F94DFF"/>
<path d="M252.12 156.6H251.67V157.26H252.12V156.6Z" fill="#F94DFF"/>
<path d="M252.12 158.01H251.67V158.34H252.12V158.01Z" fill="#F94DFF"/>
<path d="M252.12 158.789H251.67V159.119H252.12V158.789Z" fill="#F94DFF"/>
<path d="M252.12 159.449H251.67V159.669H252.12V159.449Z" fill="#F94DFF"/>
<path d="M252.12 160.109H251.67V160.329H252.12V160.109Z" fill="#F94DFF"/>
<path d="M252.12 160.76H251.67V160.98H252.12V160.76Z" fill="#F94DFF"/>
<path d="M252.12 161.42H251.67V161.64H252.12V161.42Z" fill="#F94DFF"/>
<path d="M252.12 162.07H251.67V162.29H252.12V162.07Z" fill="#F94DFF"/>
<path d="M252.12 162.73H251.67V162.95H252.12V162.73Z" fill="#F94DFF"/>
<path d="M252.12 164.039H251.67V164.149H252.12V164.039Z" fill="#F94DFF"/>
<path d="M252.12 164.959H251.67V165.069H252.12V164.959Z" fill="#F94DFF"/>
<path d="M252.12 165.889H251.67V165.999H252.12V165.889Z" fill="#F94DFF"/>
<path d="M252.12 166.811H251.67V166.921H252.12V166.811Z" fill="#F94DFF"/>
<path d="M252.12 167.73H251.67V167.84H252.12V167.73Z" fill="#F94DFF"/>
<path d="M252.12 167.84H251.67V169.91H252.12V167.84Z" fill="#F94DFF"/>
<path d="M252.12 170.209H251.67V171.249H252.12V170.209Z" fill="#F94DFF"/>
<path d="M252.12 171.609H251.67V171.959H252.12V171.609Z" fill="#F94DFF"/>
<path d="M252.12 172.449H251.67V172.619H252.12V172.449Z" fill="#F94DFF"/>
<path d="M252.12 172.91H251.67V173.08H252.12V172.91Z" fill="#F94DFF"/>
<path d="M252.12 173.369H251.67V173.539H252.12V173.369Z" fill="#F94DFF"/>
<path d="M252.12 173.82H251.67V173.99H252.12V173.82Z" fill="#F94DFF"/>
<path d="M252.12 174.91H251.67V175.08H252.12V174.91Z" fill="#F94DFF"/>
<path d="M252.12 176.26H251.67V176.43H252.12V176.26Z" fill="#F94DFF"/>
<path d="M252.12 177.141H251.67V178.521H252.12V177.141Z" fill="#F94DFF"/>
<path d="M252.12 179.27H251.67V180.31H252.12V179.27Z" fill="#F94DFF"/>
<path d="M252.12 180.84H251.67V181.5H252.12V180.84Z" fill="#F94DFF"/>
<path d="M252.12 182.25H251.67V182.58H252.12V182.25Z" fill="#F94DFF"/>
<path d="M252.12 183.029H251.67V183.359H252.12V183.029Z" fill="#F94DFF"/>
<path d="M252.12 183.689H251.67V183.909H252.12V183.689Z" fill="#F94DFF"/>
<path d="M252.12 184.35H251.67V184.57H252.12V184.35Z" fill="#F94DFF"/>
<path d="M252.12 185H251.67V185.22H252.12V185Z" fill="#F94DFF"/>
<path d="M252.12 185.66H251.67V185.88H252.12V185.66Z" fill="#F94DFF"/>
<path d="M252.12 186.32H251.67V186.54H252.12V186.32Z" fill="#F94DFF"/>
<path d="M252.12 186.971H251.67V187.191H252.12V186.971Z" fill="#F94DFF"/>
<path d="M252.12 188.279H251.67V188.389H252.12V188.279Z" fill="#F94DFF"/>
<path d="M252.12 189.209H251.67V189.319H252.12V189.209Z" fill="#F94DFF"/>
<path d="M252.12 190.129H251.67V190.239H252.12V190.129Z" fill="#F94DFF"/>
<path d="M252.12 191.051H251.67V191.161H252.12V191.051Z" fill="#F94DFF"/>
<path d="M252.12 191.971H251.67V192.081H252.12V191.971Z" fill="#F94DFF"/>
<path d="M252.12 192.08H251.67V194.15H252.12V192.08Z" fill="#F94DFF"/>
<path d="M252.12 194.449H251.67V195.489H252.12V194.449Z" fill="#F94DFF"/>
<path d="M252.12 195.859H251.67V196.209H252.12V195.859Z" fill="#F94DFF"/>
<path d="M252.12 196.689H251.67V196.859H252.12V196.689Z" fill="#F94DFF"/>
<path d="M252.12 197.15H251.67V197.32H252.12V197.15Z" fill="#F94DFF"/>
<path d="M252.12 197.609H251.67V197.779H252.12V197.609Z" fill="#F94DFF"/>
<path d="M252.12 198.07H251.67V198.24H252.12V198.07Z" fill="#F94DFF"/>
<path d="M252.12 199.15H251.67V199.32H252.12V199.15Z" fill="#F94DFF"/>
<path d="M252.12 200.5H251.67V200.67H252.12V200.5Z" fill="#F94DFF"/>
<path d="M252.12 201.381H251.67V202.761H252.12V201.381Z" fill="#F94DFF"/>
<path d="M252.12 203.51H251.67V204.55H252.12V203.51Z" fill="#F94DFF"/>
<path d="M252.12 205.08H251.67V205.74H252.12V205.08Z" fill="#F94DFF"/>
<path d="M252.12 206.49H251.67V206.82H252.12V206.49Z" fill="#F94DFF"/>
<path d="M252.12 207.27H251.67V207.6H252.12V207.27Z" fill="#F94DFF"/>
<path d="M252.12 207.93H251.67V208.15H252.12V207.93Z" fill="#F94DFF"/>
<path d="M252.12 208.59H251.67V208.81H252.12V208.59Z" fill="#F94DFF"/>
<path d="M252.12 209.25H251.67V209.47H252.12V209.25Z" fill="#F94DFF"/>
<path d="M252.12 209.9H251.67V210.12H252.12V209.9Z" fill="#F94DFF"/>
<path d="M252.12 210.561H251.67V210.781H252.12V210.561Z" fill="#F94DFF"/>
<path d="M252.12 211.211H251.67V211.431H252.12V211.211Z" fill="#F94DFF"/>
<path d="M252.12 212.529H251.67V212.639H252.12V212.529Z" fill="#F94DFF"/>
<path d="M252.12 213.449H251.67V213.559H252.12V213.449Z" fill="#F94DFF"/>
<path d="M252.12 214.369H251.67V214.479H252.12V214.369Z" fill="#F94DFF"/>
<path d="M252.12 215.291H251.67V215.401H252.12V215.291Z" fill="#F94DFF"/>
<path d="M252.12 216.221H251.67V216.331H252.12V216.221Z" fill="#F94DFF"/>
<path d="M252.12 216.33H251.67V218.4H252.12V216.33Z" fill="#F94DFF"/>
<path d="M252.12 218.699H251.67V219.739H252.12V218.699Z" fill="#F94DFF"/>
<path d="M252.12 220.1H251.67V220.45H252.12V220.1Z" fill="#F94DFF"/>
<path d="M252.12 220.93H251.67V221.1H252.12V220.93Z" fill="#F94DFF"/>
<path d="M252.12 221.391H251.67V221.561H252.12V221.391Z" fill="#F94DFF"/>
<path d="M252.12 221.85H251.67V222.02H252.12V221.85Z" fill="#F94DFF"/>
<path d="M252.12 222.311H251.67V222.481H252.12V222.311Z" fill="#F94DFF"/>
<path d="M252.12 223.4H251.67V223.57H252.12V223.4Z" fill="#F94DFF"/>
<path d="M252.12 224.74H251.67V224.91H252.12V224.74Z" fill="#F94DFF"/>
<path d="M252.12 225.619H251.67V226.999H252.12V225.619Z" fill="#F94DFF"/>
<path d="M252.12 227.75H251.67V228.79H252.12V227.75Z" fill="#F94DFF"/>
<path d="M252.12 229.32H251.67V229.98H252.12V229.32Z" fill="#F94DFF"/>
<path d="M252.12 230.74H251.67V231.07H252.12V230.74Z" fill="#F94DFF"/>
<path d="M252.12 231.52H251.67V231.85H252.12V231.52Z" fill="#F94DFF"/>
<path d="M252.12 232.18H251.67V232.4H252.12V232.18Z" fill="#F94DFF"/>
<path d="M252.12 232.83H251.67V233.05H252.12V232.83Z" fill="#F94DFF"/>
<path d="M252.12 233.49H251.67V233.71H252.12V233.49Z" fill="#F94DFF"/>
<path d="M252.12 234.141H251.67V234.361H252.12V234.141Z" fill="#F94DFF"/>
<path d="M252.12 234.801H251.67V235.021H252.12V234.801Z" fill="#F94DFF"/>
<path d="M252.12 235.461H251.67V235.681H252.12V235.461Z" fill="#F94DFF"/>
<path d="M252.12 236.77H251.67V236.88H252.12V236.77Z" fill="#F94DFF"/>
<path d="M252.12 237.689H251.67V237.799H252.12V237.689Z" fill="#F94DFF"/>
<path d="M252.12 238.609H251.67V238.719H252.12V238.609Z" fill="#F94DFF"/>
<path d="M252.12 239.541H251.67V239.651H252.12V239.541Z" fill="#F94DFF"/>
<path d="M252.12 240.461H251.67V240.571H252.12V240.461Z" fill="#F94DFF"/>
<path d="M252.12 240.57H251.67V242.64H252.12V240.57Z" fill="#F94DFF"/>
<path d="M252.12 242.939H251.67V243.979H252.12V242.939Z" fill="#F94DFF"/>
<path d="M252.12 244.34H251.67V244.69H252.12V244.34Z" fill="#F94DFF"/>
<path d="M252.12 245.17H251.67V245.34H252.12V245.17Z" fill="#F94DFF"/>
<path d="M252.12 245.631H251.67V245.801H252.12V245.631Z" fill="#F94DFF"/>
<path d="M252.12 246.09H251.67V246.26H252.12V246.09Z" fill="#F94DFF"/>
<path d="M252.12 246.551H251.67V246.721H252.12V246.551Z" fill="#F94DFF"/>
<path d="M252.12 247.641H251.67V247.811H252.12V247.641Z" fill="#F94DFF"/>
<path d="M252.12 248.98H251.67V249.15H252.12V248.98Z" fill="#F94DFF"/>
<path d="M252.12 249.859H251.67V251.239H252.12V249.859Z" fill="#F94DFF"/>
<path d="M252.12 252H251.67V253.04H252.12V252Z" fill="#F94DFF"/>
<path d="M252.12 253.57H251.67V254.23H252.12V253.57Z" fill="#F94DFF"/>
<path d="M252.12 254.98H251.67V255.31H252.12V254.98Z" fill="#F94DFF"/>
<path d="M252.12 255.76H251.67V256.09H252.12V255.76Z" fill="#F94DFF"/>
<path d="M252.12 256.42H251.67V256.64H252.12V256.42Z" fill="#F94DFF"/>
<path d="M252.12 257.07H251.67V257.29H252.12V257.07Z" fill="#F94DFF"/>
<path d="M252.12 257.73H251.67V257.95H252.12V257.73Z" fill="#F94DFF"/>
<path d="M252.12 258.391H251.67V258.611H252.12V258.391Z" fill="#F94DFF"/>
<path d="M252.12 259.041H251.67V259.261H252.12V259.041Z" fill="#F94DFF"/>
<path d="M252.12 259.701H251.67V259.921H252.12V259.701Z" fill="#F94DFF"/>
<path d="M252.12 261.01H251.67V261.12H252.12V261.01Z" fill="#F94DFF"/>
<path d="M252.12 261.93H251.67V262.04H252.12V261.93Z" fill="#F94DFF"/>
<path d="M252.12 262.859H251.67V262.969H252.12V262.859Z" fill="#F94DFF"/>
<path d="M252.12 263.781H251.67V263.891H252.12V263.781Z" fill="#F94DFF"/>
<path d="M252.12 264.701H251.67V264.811H252.12V264.701Z" fill="#F94DFF"/>
<path d="M252.12 264.811H251.67V266.881H252.12V264.811Z" fill="#F94DFF"/>
<path d="M252.12 267.18H251.67V268.22H252.12V267.18Z" fill="#F94DFF"/>
<path d="M252.12 268.58H251.67V268.93H252.12V268.58Z" fill="#F94DFF"/>
<path d="M252.12 269.42H251.67V269.59H252.12V269.42Z" fill="#F94DFF"/>
<path d="M252.12 269.881H251.67V270.051H252.12V269.881Z" fill="#F94DFF"/>
<path d="M252.12 270.33H251.67V270.5H252.12V270.33Z" fill="#F94DFF"/>
<path d="M252.12 270.791H251.67V270.961H252.12V270.791Z" fill="#F94DFF"/>
<path d="M252.12 271.881H251.67V272.051H252.12V271.881Z" fill="#F94DFF"/>
<path d="M252.12 273.23H251.67V273.4H252.12V273.23Z" fill="#F94DFF"/>
<path d="M252.12 274.111H251.67V275.491H252.12V274.111Z" fill="#F94DFF"/>
<path d="M252.12 276.24H251.67V277.28H252.12V276.24Z" fill="#F94DFF"/>
<path d="M252.12 277.811H251.67V278.471H252.12V277.811Z" fill="#F94DFF"/>
<path d="M252.12 279.221H251.67V279.551H252.12V279.221Z" fill="#F94DFF"/>
<path d="M252.12 280H251.67V280.33H252.12V280Z" fill="#F94DFF"/>
<path d="M252.12 280.66H251.67V280.88H252.12V280.66Z" fill="#F94DFF"/>
<path d="M252.12 281.32H251.67V281.54H252.12V281.32Z" fill="#F94DFF"/>
<path d="M252.12 281.971H251.67V282.191H252.12V281.971Z" fill="#F94DFF"/>
<path d="M252.12 282.631H251.67V282.851H252.12V282.631Z" fill="#F94DFF"/>
<path d="M252.12 283.281H251.67V283.501H252.12V283.281Z" fill="#F94DFF"/>
<path d="M252.12 283.941H251.67V284.161H252.12V283.941Z" fill="#F94DFF"/>
<path d="M252.12 285.25H251.67V285.36H252.12V285.25Z" fill="#F94DFF"/>
<path d="M252.12 286.18H251.67V286.29H252.12V286.18Z" fill="#F94DFF"/>
<path d="M252.12 287.1H251.67V287.21H252.12V287.1Z" fill="#F94DFF"/>
<path d="M252.12 288.021H251.67V288.131H252.12V288.021Z" fill="#F94DFF"/>
<path d="M252.12 288.941H251.67V289.051H252.12V288.941Z" fill="#F94DFF"/>
<path d="M240.15 300.57H238.08V301.02H240.15V300.57Z" fill="#F94DFF"/>
<path d="M237.79 300.57H236.75V301.02H237.79V300.57Z" fill="#F94DFF"/>
<path d="M236.38 300.57H236.03V301.02H236.38V300.57Z" fill="#F94DFF"/>
<path d="M235.54 300.57H235.37V301.02H235.54V300.57Z" fill="#F94DFF"/>
<path d="M235.08 300.57H234.91V301.02H235.08V300.57Z" fill="#F94DFF"/>
<path d="M234.63 300.57H234.46V301.02H234.63V300.57Z" fill="#F94DFF"/>
<path d="M234.17 300.57H234V301.02H234.17V300.57Z" fill="#F94DFF"/>
<path d="M233.08 300.57H232.91V301.02H233.08V300.57Z" fill="#F94DFF"/>
<path d="M231.73 300.57H231.56V301.02H231.73V300.57Z" fill="#F94DFF"/>
<path d="M230.86 300.57H229.48V301.02H230.86V300.57Z" fill="#F94DFF"/>
<path d="M228.72 300.57H227.68V301.02H228.72V300.57Z" fill="#F94DFF"/>
<path d="M227.16 300.57H226.5V301.02H227.16V300.57Z" fill="#F94DFF"/>
<path d="M225.74 300.57H225.41V301.02H225.74V300.57Z" fill="#F94DFF"/>
<path d="M224.96 300.57H224.63V301.02H224.96V300.57Z" fill="#F94DFF"/>
<path d="M224.31 300.57H224.09V301.02H224.31V300.57Z" fill="#F94DFF"/>
<path d="M223.65 300.57H223.43V301.02H223.65V300.57Z" fill="#F94DFF"/>
<path d="M222.99 300.57H222.77V301.02H222.99V300.57Z" fill="#F94DFF"/>
<path d="M222.34 300.57H222.12V301.02H222.34V300.57Z" fill="#F94DFF"/>
<path d="M221.68 300.57H221.46V301.02H221.68V300.57Z" fill="#F94DFF"/>
<path d="M221.03 300.57H220.81V301.02H221.03V300.57Z" fill="#F94DFF"/>
<path d="M219.71 300.57H219.6V301.02H219.71V300.57Z" fill="#F94DFF"/>
<path d="M218.79 300.57H218.68V301.02H218.79V300.57Z" fill="#F94DFF"/>
<path d="M217.87 300.57H217.76V301.02H217.87V300.57Z" fill="#F94DFF"/>
<path d="M216.94 300.57H216.83V301.02H216.94V300.57Z" fill="#F94DFF"/>
<path d="M216.02 300.57H215.91V301.02H216.02V300.57Z" fill="#F94DFF"/>
<path d="M215.91 300.57H213.84V301.02H215.91V300.57Z" fill="#F94DFF"/>
<path d="M213.54 300.57H212.5V301.02H213.54V300.57Z" fill="#F94DFF"/>
<path d="M212.14 300.57H211.79V301.02H212.14V300.57Z" fill="#F94DFF"/>
<path d="M211.3 300.57H211.13V301.02H211.3V300.57Z" fill="#F94DFF"/>
<path d="M210.84 300.57H210.67V301.02H210.84V300.57Z" fill="#F94DFF"/>
<path d="M210.38 300.57H210.21V301.02H210.38V300.57Z" fill="#F94DFF"/>
<path d="M209.93 300.57H209.76V301.02H209.93V300.57Z" fill="#F94DFF"/>
<path d="M208.84 300.57H208.67V301.02H208.84V300.57Z" fill="#F94DFF"/>
<path d="M207.49 300.57H207.32V301.02H207.49V300.57Z" fill="#F94DFF"/>
<path d="M206.62 300.57H205.24V301.02H206.62V300.57Z" fill="#F94DFF"/>
<path d="M204.48 300.57H203.44V301.02H204.48V300.57Z" fill="#F94DFF"/>
<path d="M202.91 300.57H202.25V301.02H202.91V300.57Z" fill="#F94DFF"/>
<path d="M201.5 300.57H201.17V301.02H201.5V300.57Z" fill="#F94DFF"/>
<path d="M200.72 300.57H200.39V301.02H200.72V300.57Z" fill="#F94DFF"/>
<path d="M200.06 300.57H199.84V301.02H200.06V300.57Z" fill="#F94DFF"/>
<path d="M199.41 300.57H199.19V301.02H199.41V300.57Z" fill="#F94DFF"/>
<path d="M198.75 300.57H198.53V301.02H198.75V300.57Z" fill="#F94DFF"/>
<path d="M198.1 300.57H197.88V301.02H198.1V300.57Z" fill="#F94DFF"/>
<path d="M197.44 300.57H197.22V301.02H197.44V300.57Z" fill="#F94DFF"/>
<path d="M196.78 300.57H196.56V301.02H196.78V300.57Z" fill="#F94DFF"/>
<path d="M195.47 300.57H195.36V301.02H195.47V300.57Z" fill="#F94DFF"/>
<path d="M194.55 300.57H194.44V301.02H194.55V300.57Z" fill="#F94DFF"/>
<path d="M193.63 300.57H193.52V301.02H193.63V300.57Z" fill="#F94DFF"/>
<path d="M192.7 300.57H192.59V301.02H192.7V300.57Z" fill="#F94DFF"/>
<path d="M191.78 300.57H191.67V301.02H191.78V300.57Z" fill="#F94DFF"/>
<path d="M191.67 300.57H189.6V301.02H191.67V300.57Z" fill="#F94DFF"/>
<path d="M189.3 300.57H188.26V301.02H189.3V300.57Z" fill="#F94DFF"/>
<path d="M187.9 300.57H187.55V301.02H187.9V300.57Z" fill="#F94DFF"/>
<path d="M187.06 300.57H186.89V301.02H187.06V300.57Z" fill="#F94DFF"/>
<path d="M186.6 300.57H186.43V301.02H186.6V300.57Z" fill="#F94DFF"/>
<path d="M186.14 300.57H185.97V301.02H186.14V300.57Z" fill="#F94DFF"/>
<path d="M185.68 300.57H185.51V301.02H185.68V300.57Z" fill="#F94DFF"/>
<path d="M184.59 300.57H184.42V301.02H184.59V300.57Z" fill="#F94DFF"/>
<path d="M183.25 300.57H183.08V301.02H183.25V300.57Z" fill="#F94DFF"/>
<path d="M182.38 300.57H181V301.02H182.38V300.57Z" fill="#F94DFF"/>
<path d="M180.24 300.57H179.2V301.02H180.24V300.57Z" fill="#F94DFF"/>
<path d="M178.67 300.57H178.01V301.02H178.67V300.57Z" fill="#F94DFF"/>
<path d="M177.26 300.57H176.93V301.02H177.26V300.57Z" fill="#F94DFF"/>
<path d="M176.48 300.57H176.15V301.02H176.48V300.57Z" fill="#F94DFF"/>
<path d="M175.82 300.57H175.6V301.02H175.82V300.57Z" fill="#F94DFF"/>
<path d="M175.17 300.57H174.95V301.02H175.17V300.57Z" fill="#F94DFF"/>
<path d="M174.51 300.57H174.29V301.02H174.51V300.57Z" fill="#F94DFF"/>
<path d="M173.85 300.57H173.63V301.02H173.85V300.57Z" fill="#F94DFF"/>
<path d="M173.2 300.57H172.98V301.02H173.2V300.57Z" fill="#F94DFF"/>
<path d="M172.54 300.57H172.32V301.02H172.54V300.57Z" fill="#F94DFF"/>
<path d="M171.23 300.57H171.12V301.02H171.23V300.57Z" fill="#F94DFF"/>
<path d="M170.31 300.57H170.2V301.02H170.31V300.57Z" fill="#F94DFF"/>
<path d="M169.38 300.57H169.27V301.02H169.38V300.57Z" fill="#F94DFF"/>
<path d="M168.46 300.57H168.35V301.02H168.46V300.57Z" fill="#F94DFF"/>
<path d="M167.54 300.57H167.43V301.02H167.54V300.57Z" fill="#F94DFF"/>
<path d="M167.42 300.57H165.35V301.02H167.42V300.57Z" fill="#F94DFF"/>
<path d="M165.06 300.57H164.02V301.02H165.06V300.57Z" fill="#F94DFF"/>
<path d="M163.66 300.57H163.31V301.02H163.66V300.57Z" fill="#F94DFF"/>
<path d="M162.82 300.57H162.65V301.02H162.82V300.57Z" fill="#F94DFF"/>
<path d="M162.36 300.57H162.19V301.02H162.36V300.57Z" fill="#F94DFF"/>
<path d="M161.9 300.57H161.73V301.02H161.9V300.57Z" fill="#F94DFF"/>
<path d="M161.44 300.57H161.27V301.02H161.44V300.57Z" fill="#F94DFF"/>
<path d="M160.35 300.57H160.18V301.02H160.35V300.57Z" fill="#F94DFF"/>
<path d="M159.01 300.57H158.84V301.02H159.01V300.57Z" fill="#F94DFF"/>
<path d="M158.13 300.57H156.75V301.02H158.13V300.57Z" fill="#F94DFF"/>
<path d="M156 300.57H154.96V301.02H156V300.57Z" fill="#F94DFF"/>
<path d="M154.43 300.57H153.77V301.02H154.43V300.57Z" fill="#F94DFF"/>
<path d="M153.02 300.57H152.69V301.02H153.02V300.57Z" fill="#F94DFF"/>
<path d="M152.24 300.57H151.91V301.02H152.24V300.57Z" fill="#F94DFF"/>
<path d="M151.58 300.57H151.36V301.02H151.58V300.57Z" fill="#F94DFF"/>
<path d="M150.92 300.57H150.7V301.02H150.92V300.57Z" fill="#F94DFF"/>
<path d="M150.27 300.57H150.05V301.02H150.27V300.57Z" fill="#F94DFF"/>
<path d="M149.61 300.57H149.39V301.02H149.61V300.57Z" fill="#F94DFF"/>
<path d="M148.96 300.57H148.74V301.02H148.96V300.57Z" fill="#F94DFF"/>
<path d="M148.3 300.57H148.08V301.02H148.3V300.57Z" fill="#F94DFF"/>
<path d="M146.99 300.57H146.88V301.02H146.99V300.57Z" fill="#F94DFF"/>
<path d="M146.06 300.57H145.95V301.02H146.06V300.57Z" fill="#F94DFF"/>
<path d="M145.14 300.57H145.03V301.02H145.14V300.57Z" fill="#F94DFF"/>
<path d="M144.22 300.57H144.11V301.02H144.22V300.57Z" fill="#F94DFF"/>
<path d="M143.3 300.57H143.19V301.02H143.3V300.57Z" fill="#F94DFF"/>
<path d="M143.18 300.57H141.11V301.02H143.18V300.57Z" fill="#F94DFF"/>
<path d="M140.82 300.57H139.78V301.02H140.82V300.57Z" fill="#F94DFF"/>
<path d="M139.41 300.57H139.06V301.02H139.41V300.57Z" fill="#F94DFF"/>
<path d="M138.57 300.57H138.4V301.02H138.57V300.57Z" fill="#F94DFF"/>
<path d="M138.12 300.57H137.95V301.02H138.12V300.57Z" fill="#F94DFF"/>
<path d="M137.66 300.57H137.49V301.02H137.66V300.57Z" fill="#F94DFF"/>
<path d="M137.2 300.57H137.03V301.02H137.2V300.57Z" fill="#F94DFF"/>
<path d="M136.11 300.57H135.94V301.02H136.11V300.57Z" fill="#F94DFF"/>
<path d="M134.76 300.57H134.59V301.02H134.76V300.57Z" fill="#F94DFF"/>
<path d="M133.89 300.57H132.51V301.02H133.89V300.57Z" fill="#F94DFF"/>
<path d="M131.76 300.57H130.72V301.02H131.76V300.57Z" fill="#F94DFF"/>
<path d="M130.19 300.57H129.53V301.02H130.19V300.57Z" fill="#F94DFF"/>
<path d="M128.78 300.57H128.45V301.02H128.78V300.57Z" fill="#F94DFF"/>
<path d="M128 300.57H127.67V301.02H128V300.57Z" fill="#F94DFF"/>
<path d="M127.34 300.57H127.12V301.02H127.34V300.57Z" fill="#F94DFF"/>
<path d="M126.68 300.57H126.46V301.02H126.68V300.57Z" fill="#F94DFF"/>
<path d="M126.03 300.57H125.81V301.02H126.03V300.57Z" fill="#F94DFF"/>
<path d="M125.37 300.57H125.15V301.02H125.37V300.57Z" fill="#F94DFF"/>
<path d="M124.71 300.57H124.49V301.02H124.71V300.57Z" fill="#F94DFF"/>
<path d="M124.06 300.57H123.84V301.02H124.06V300.57Z" fill="#F94DFF"/>
<path d="M122.74 300.57H122.63V301.02H122.74V300.57Z" fill="#F94DFF"/>
<path d="M121.82 300.57H121.71V301.02H121.82V300.57Z" fill="#F94DFF"/>
<path d="M120.9 300.57H120.79V301.02H120.9V300.57Z" fill="#F94DFF"/>
<path d="M119.98 300.57H119.87V301.02H119.98V300.57Z" fill="#F94DFF"/>
<path d="M119.05 300.57H118.94V301.02H119.05V300.57Z" fill="#F94DFF"/>
<path d="M118.94 300.57H116.87V301.02H118.94V300.57Z" fill="#F94DFF"/>
<path d="M116.58 300.57H115.54V301.02H116.58V300.57Z" fill="#F94DFF"/>
<path d="M115.17 300.57H114.82V301.02H115.17V300.57Z" fill="#F94DFF"/>
<path d="M114.33 300.57H114.16V301.02H114.33V300.57Z" fill="#F94DFF"/>
<path d="M113.87 300.57H113.7V301.02H113.87V300.57Z" fill="#F94DFF"/>
<path d="M113.41 300.57H113.24V301.02H113.41V300.57Z" fill="#F94DFF"/>
<path d="M112.96 300.57H112.79V301.02H112.96V300.57Z" fill="#F94DFF"/>
<path d="M111.87 300.57H111.7V301.02H111.87V300.57Z" fill="#F94DFF"/>
<path d="M110.52 300.57H110.35V301.02H110.52V300.57Z" fill="#F94DFF"/>
<path d="M109.65 300.57H108.27V301.02H109.65V300.57Z" fill="#F94DFF"/>
<path d="M107.51 300.57H106.47V301.02H107.51V300.57Z" fill="#F94DFF"/>
<path d="M105.95 300.57H105.29V301.02H105.95V300.57Z" fill="#F94DFF"/>
<path d="M104.53 300.57H104.2V301.02H104.53V300.57Z" fill="#F94DFF"/>
<path d="M103.75 300.57H103.42V301.02H103.75V300.57Z" fill="#F94DFF"/>
<path d="M103.09 300.57H102.87V301.02H103.09V300.57Z" fill="#F94DFF"/>
<path d="M102.44 300.57H102.22V301.02H102.44V300.57Z" fill="#F94DFF"/>
<path d="M101.78 300.57H101.56V301.02H101.78V300.57Z" fill="#F94DFF"/>
<path d="M101.13 300.57H100.91V301.02H101.13V300.57Z" fill="#F94DFF"/>
<path d="M100.47 300.57H100.25V301.02H100.47V300.57Z" fill="#F94DFF"/>
<path d="M99.8098 300.57H99.5898V301.02H99.8098V300.57Z" fill="#F94DFF"/>
<path d="M98.4999 300.57H98.3899V301.02H98.4999V300.57Z" fill="#F94DFF"/>
<path d="M97.58 300.57H97.47V301.02H97.58V300.57Z" fill="#F94DFF"/>
<path d="M96.6599 300.57H96.5498V301.02H96.6599V300.57Z" fill="#F94DFF"/>
<path d="M95.7299 300.57H95.6199V301.02H95.7299V300.57Z" fill="#F94DFF"/>
<path d="M94.8099 300.57H94.7V301.02H94.8099V300.57Z" fill="#F94DFF"/>
<path d="M94.6999 300.57H92.6299V301.02H94.6999V300.57Z" fill="#F94DFF"/>
<path d="M92.33 300.57H91.29V301.02H92.33V300.57Z" fill="#F94DFF"/>
<path d="M90.9301 300.57H90.5801V301.02H90.9301V300.57Z" fill="#F94DFF"/>
<path d="M90.09 300.57H89.9199V301.02H90.09V300.57Z" fill="#F94DFF"/>
<path d="M89.6299 300.57H89.46V301.02H89.6299V300.57Z" fill="#F94DFF"/>
<path d="M89.17 300.57H89V301.02H89.17V300.57Z" fill="#F94DFF"/>
<path d="M88.71 300.57H88.54V301.02H88.71V300.57Z" fill="#F94DFF"/>
<path d="M87.6299 300.57H87.46V301.02H87.6299V300.57Z" fill="#F94DFF"/>
<path d="M86.2799 300.57H86.1099V301.02H86.2799V300.57Z" fill="#F94DFF"/>
<path d="M85.41 300.57H84.03V301.02H85.41V300.57Z" fill="#F94DFF"/>
<path d="M83.27 300.57H82.23V301.02H83.27V300.57Z" fill="#F94DFF"/>
<path d="M81.7 300.57H81.04V301.02H81.7V300.57Z" fill="#F94DFF"/>
<path d="M80.29 300.57H79.96V301.02H80.29V300.57Z" fill="#F94DFF"/>
<path d="M79.5099 300.57H79.1799V301.02H79.5099V300.57Z" fill="#F94DFF"/>
<path d="M78.8499 300.57H78.6299V301.02H78.8499V300.57Z" fill="#F94DFF"/>
<path d="M78.2 300.57H77.98V301.02H78.2V300.57Z" fill="#F94DFF"/>
<path d="M77.5399 300.57H77.3198V301.02H77.5399V300.57Z" fill="#F94DFF"/>
<path d="M76.8799 300.57H76.6599V301.02H76.8799V300.57Z" fill="#F94DFF"/>
<path d="M76.23 300.57H76.01V301.02H76.23V300.57Z" fill="#F94DFF"/>
<path d="M75.5701 300.57H75.3501V301.02H75.5701V300.57Z" fill="#F94DFF"/>
<path d="M74.2599 300.57H74.1499V301.02H74.2599V300.57Z" fill="#F94DFF"/>
<path d="M73.34 300.57H73.23V301.02H73.34V300.57Z" fill="#F94DFF"/>
<path d="M72.4099 300.57H72.2998V301.02H72.4099V300.57Z" fill="#F94DFF"/>
<path d="M71.4899 300.57H71.3799V301.02H71.4899V300.57Z" fill="#F94DFF"/>
<path d="M70.5699 300.57H70.46V301.02H70.5699V300.57Z" fill="#F94DFF"/>
<path d="M70.4499 300.57H68.3799V301.02H70.4499V300.57Z" fill="#F94DFF"/>
<path d="M68.0898 300.57H67.0498V301.02H68.0898V300.57Z" fill="#F94DFF"/>
<path d="M66.6898 300.57H66.3398V301.02H66.6898V300.57Z" fill="#F94DFF"/>
<path d="M65.85 300.57H65.6799V301.02H65.85V300.57Z" fill="#F94DFF"/>
<path d="M65.39 300.57H65.22V301.02H65.39V300.57Z" fill="#F94DFF"/>
<path d="M64.93 300.57H64.76V301.02H64.93V300.57Z" fill="#F94DFF"/>
<path d="M64.4698 300.57H64.2998V301.02H64.4698V300.57Z" fill="#F94DFF"/>
<path d="M63.3799 300.57H63.21V301.02H63.3799V300.57Z" fill="#F94DFF"/>
<path d="M62.0399 300.57H61.8699V301.02H62.0399V300.57Z" fill="#F94DFF"/>
<path d="M61.16 300.57H59.78V301.02H61.16V300.57Z" fill="#F94DFF"/>
<path d="M59.03 300.57H57.99V301.02H59.03V300.57Z" fill="#F94DFF"/>
<path d="M57.4598 300.57H56.7998V301.02H57.4598V300.57Z" fill="#F94DFF"/>
<path d="M56.0499 300.57H55.72V301.02H56.0499V300.57Z" fill="#F94DFF"/>
<path d="M55.27 300.57H54.9399V301.02H55.27V300.57Z" fill="#F94DFF"/>
<path d="M54.6099 300.57H54.3899V301.02H54.6099V300.57Z" fill="#F94DFF"/>
<path d="M53.95 300.57H53.73V301.02H53.95V300.57Z" fill="#F94DFF"/>
<path d="M53.3 300.57H53.0801V301.02H53.3V300.57Z" fill="#F94DFF"/>
<path d="M52.64 300.57H52.4199V301.02H52.64V300.57Z" fill="#F94DFF"/>
<path d="M51.99 300.57H51.77V301.02H51.99V300.57Z" fill="#F94DFF"/>
<path d="M51.3299 300.57H51.1099V301.02H51.3299V300.57Z" fill="#F94DFF"/>
<path d="M50.0199 300.57H49.9099V301.02H50.0199V300.57Z" fill="#F94DFF"/>
<path d="M49.09 300.57H48.98V301.02H49.09V300.57Z" fill="#F94DFF"/>
<path d="M48.17 300.57H48.0601V301.02H48.17V300.57Z" fill="#F94DFF"/>
<path d="M47.2499 300.57H47.1399V301.02H47.2499V300.57Z" fill="#F94DFF"/>
<path d="M46.33 300.57H46.22V301.02H46.33V300.57Z" fill="#F94DFF"/>
<mask id="mask0_207_26062" style="mask-type:luminance" maskUnits="userSpaceOnUse" x="34" y="83" width="1" height="13">
<path d="M34.7 95.1104V83.6004L34.25 83.1504V95.1104H34.7Z" fill="white"/>
</mask>
<g mask="url(#mask0_207_26062)">
<path d="M34.7 93.1113H34.25V95.1213H34.7V93.1113Z" fill="#F94DFF"/>
<path d="M34.7 91.8203H34.25V92.8203H34.7V91.8203Z" fill="#F94DFF"/>
<path d="M34.7 91.1211H34.25V91.4611H34.7V91.1211Z" fill="#F94DFF"/>
<path d="M34.7 90.4902H34.25V90.6602H34.7V90.4902Z" fill="#F94DFF"/>
<path d="M34.7 90.041H34.25V90.211H34.7V90.041Z" fill="#F94DFF"/>
<path d="M34.7 89.6016H34.25V89.7716H34.7V89.6016Z" fill="#F94DFF"/>
<path d="M34.7 89.1504H34.25V89.3204H34.7V89.1504Z" fill="#F94DFF"/>
<path d="M34.7 88.1016H34.25V88.2716H34.7V88.1016Z" fill="#F94DFF"/>
<path d="M34.7 86.8008H34.25V86.9708H34.7V86.8008Z" fill="#F94DFF"/>
<path d="M34.7 84.7812H34.25V86.1113H34.7V84.7812Z" fill="#F94DFF"/>
<path d="M34.7 83.041H34.25V84.051H34.7V83.041Z" fill="#F94DFF"/>
</g>
<mask id="mask1_207_26062" style="mask-type:luminance" maskUnits="userSpaceOnUse" x="34" y="83" width="13" height="1">
<path d="M46.22 83.6004H34.7L34.25 83.1504H46.22V83.6004Z" fill="white"/>
</mask>
<g mask="url(#mask1_207_26062)">
<path d="M34.8201 83.1504H33.8101V83.6004H34.8201V83.1504Z" fill="#F94DFF"/>
<path d="M35.9701 83.1504H35.3301V83.6004H35.9701V83.1504Z" fill="#F94DFF"/>
<path d="M37.02 83.1504H36.7V83.6004H37.02V83.1504Z" fill="#F94DFF"/>
<path d="M37.77 83.1504H37.45V83.6004H37.77V83.1504Z" fill="#F94DFF"/>
<path d="M38.3 83.1504H38.0901V83.6004H38.3V83.1504Z" fill="#F94DFF"/>
<path d="M38.94 83.1504H38.73V83.6004H38.94V83.1504Z" fill="#F94DFF"/>
<path d="M39.5699 83.1504H39.3599V83.6004H39.5699V83.1504Z" fill="#F94DFF"/>
<path d="M40.21 83.1504H40V83.6004H40.21V83.1504Z" fill="#F94DFF"/>
<path d="M40.8399 83.1504H40.6299V83.6004H40.8399V83.1504Z" fill="#F94DFF"/>
<path d="M41.48 83.1504H41.27V83.6004H41.48V83.1504Z" fill="#F94DFF"/>
<path d="M42.65 83.1504H42.54V83.6004H42.65V83.1504Z" fill="#F94DFF"/>
<path d="M43.54 83.1504H43.4299V83.6004H43.54V83.1504Z" fill="#F94DFF"/>
<path d="M44.4301 83.1504H44.3201V83.6004H44.4301V83.1504Z" fill="#F94DFF"/>
<path d="M45.33 83.1504H45.22V83.6004H45.33V83.1504Z" fill="#F94DFF"/>
<path d="M46.2199 83.1504H46.1099V83.6004H46.2199V83.1504Z" fill="#F94DFF"/>
</g>
<mask id="mask2_207_26062" style="mask-type:luminance" maskUnits="userSpaceOnUse" x="240" y="83" width="13" height="1">
<path d="M240.15 83.6004H251.67L252.12 83.1504H240.15V83.6004Z" fill="white"/>
</mask>
<g mask="url(#mask2_207_26062)">
<path d="M242.16 83.1504H240.15V83.6004H242.16V83.1504Z" fill="#F94DFF"/>
<path d="M243.45 83.1504H242.45V83.6004H243.45V83.1504Z" fill="#F94DFF"/>
<path d="M244.15 83.1504H243.81V83.6004H244.15V83.1504Z" fill="#F94DFF"/>
<path d="M244.78 83.1504H244.61V83.6004H244.78V83.1504Z" fill="#F94DFF"/>
<path d="M245.23 83.1504H245.06V83.6004H245.23V83.1504Z" fill="#F94DFF"/>
<path d="M245.67 83.1504H245.5V83.6004H245.67V83.1504Z" fill="#F94DFF"/>
<path d="M246.12 83.1504H245.95V83.6004H246.12V83.1504Z" fill="#F94DFF"/>
<path d="M247.17 83.1504H247V83.6004H247.17V83.1504Z" fill="#F94DFF"/>
<path d="M248.47 83.1504H248.3V83.6004H248.47V83.1504Z" fill="#F94DFF"/>
<path d="M250.49 83.1504H249.16V83.6004H250.49V83.1504Z" fill="#F94DFF"/>
<path d="M252.23 83.1504H251.22V83.6004H252.23V83.1504Z" fill="#F94DFF"/>
</g>
<mask id="mask3_207_26062" style="mask-type:luminance" maskUnits="userSpaceOnUse" x="251" y="83" width="2" height="13">
<path d="M251.67 95.1104V83.6004L252.12 83.1504V95.1104H251.67Z" fill="white"/>
</mask>
<g mask="url(#mask3_207_26062)">
<path d="M252.12 82.7109H251.67V83.7209H252.12V82.7109Z" fill="#F94DFF"/>
<path d="M252.12 84.2305H251.67V84.8705H252.12V84.2305Z" fill="#F94DFF"/>
<path d="M252.12 85.5898H251.67V85.9098H252.12V85.5898Z" fill="#F94DFF"/>
<path d="M252.12 86.3516H251.67V86.6716H252.12V86.3516Z" fill="#F94DFF"/>
<path d="M252.12 86.9902H251.67V87.2002H252.12V86.9902Z" fill="#F94DFF"/>
<path d="M252.12 87.6211H251.67V87.8311H252.12V87.6211Z" fill="#F94DFF"/>
<path d="M252.12 88.2598H251.67V88.4698H252.12V88.2598Z" fill="#F94DFF"/>
<path d="M252.12 88.8906H251.67V89.1006H252.12V88.8906Z" fill="#F94DFF"/>
<path d="M252.12 89.5312H251.67V89.7413H252.12V89.5312Z" fill="#F94DFF"/>
<path d="M252.12 90.1602H251.67V90.3702H252.12V90.1602Z" fill="#F94DFF"/>
<path d="M252.12 91.4297H251.67V91.5397H252.12V91.4297Z" fill="#F94DFF"/>
<path d="M252.12 92.3301H251.67V92.4401H252.12V92.3301Z" fill="#F94DFF"/>
<path d="M252.12 93.2207H251.67V93.3307H252.12V93.2207Z" fill="#F94DFF"/>
<path d="M252.12 94.1211H251.67V94.2311H252.12V94.1211Z" fill="#F94DFF"/>
<path d="M252.12 95.0098H251.67V95.1198H252.12V95.0098Z" fill="#F94DFF"/>
</g>
<mask id="mask4_207_26062" style="mask-type:luminance" maskUnits="userSpaceOnUse" x="251" y="289" width="2" height="13">
<path d="M251.67 289.051V300.571L252.12 301.011V289.051H251.67Z" fill="white"/>
</mask>
<g mask="url(#mask4_207_26062)">
<path d="M252.12 289.051H251.67V291.061H252.12V289.051Z" fill="#F94DFF"/>
<path d="M252.12 291.352H251.67V292.352H252.12V291.352Z" fill="#F94DFF"/>
<path d="M252.12 292.701H251.67V293.041H252.12V292.701Z" fill="#F94DFF"/>
<path d="M252.12 293.512H251.67V293.682H252.12V293.512Z" fill="#F94DFF"/>
<path d="M252.12 293.961H251.67V294.131H252.12V293.961Z" fill="#F94DFF"/>
<path d="M252.12 294.4H251.67V294.57H252.12V294.4Z" fill="#F94DFF"/>
<path d="M252.12 294.852H251.67V295.022H252.12V294.852Z" fill="#F94DFF"/>
<path d="M252.12 295.9H251.67V296.07H252.12V295.9Z" fill="#F94DFF"/>
<path d="M252.12 297.201H251.67V297.371H252.12V297.201Z" fill="#F94DFF"/>
<path d="M252.12 298.051H251.67V299.381H252.12V298.051Z" fill="#F94DFF"/>
<path d="M252.12 300.121H251.67V301.131H252.12V300.121Z" fill="#F94DFF"/>
</g>
<mask id="mask5_207_26062" style="mask-type:luminance" maskUnits="userSpaceOnUse" x="240" y="300" width="13" height="2">
<path d="M240.15 300.57H251.67L252.12 301.01H240.15V300.57Z" fill="white"/>
</mask>
<g mask="url(#mask5_207_26062)">
<path d="M252.56 300.57H251.55V301.02H252.56V300.57Z" fill="#F94DFF"/>
<path d="M251.04 300.57H250.4V301.02H251.04V300.57Z" fill="#F94DFF"/>
<path d="M249.68 300.57H249.36V301.02H249.68V300.57Z" fill="#F94DFF"/>
<path d="M248.92 300.57H248.6V301.02H248.92V300.57Z" fill="#F94DFF"/>
<path d="M248.28 300.57H248.07V301.02H248.28V300.57Z" fill="#F94DFF"/>
<path d="M247.64 300.57H247.43V301.02H247.64V300.57Z" fill="#F94DFF"/>
<path d="M247.01 300.57H246.8V301.02H247.01V300.57Z" fill="#F94DFF"/>
<path d="M246.37 300.57H246.16V301.02H246.37V300.57Z" fill="#F94DFF"/>
<path d="M245.74 300.57H245.53V301.02H245.74V300.57Z" fill="#F94DFF"/>
<path d="M245.1 300.57H244.89V301.02H245.1V300.57Z" fill="#F94DFF"/>
<path d="M243.84 300.57H243.73V301.02H243.84V300.57Z" fill="#F94DFF"/>
<path d="M242.94 300.57H242.83V301.02H242.94V300.57Z" fill="#F94DFF"/>
<path d="M242.05 300.57H241.94V301.02H242.05V300.57Z" fill="#F94DFF"/>
<path d="M241.16 300.57H241.05V301.02H241.16V300.57Z" fill="#F94DFF"/>
<path d="M240.26 300.57H240.15V301.02H240.26V300.57Z" fill="#F94DFF"/>
</g>
<mask id="mask6_207_26062" style="mask-type:luminance" maskUnits="userSpaceOnUse" x="34" y="300" width="13" height="2">
<path d="M46.22 300.57H34.7L34.25 301.01H46.22V300.57Z" fill="white"/>
</mask>
<g mask="url(#mask6_207_26062)">
<path d="M46.22 300.57H44.21V301.02H46.22V300.57Z" fill="#F94DFF"/>
<path d="M43.9199 300.57H42.9199V301.02H43.9199V300.57Z" fill="#F94DFF"/>
<path d="M42.57 300.57H42.23V301.02H42.57V300.57Z" fill="#F94DFF"/>
<path d="M41.7601 300.57H41.5901V301.02H41.7601V300.57Z" fill="#F94DFF"/>
<path d="M41.3101 300.57H41.1401V301.02H41.3101V300.57Z" fill="#F94DFF"/>
<path d="M40.8699 300.57H40.7V301.02H40.8699V300.57Z" fill="#F94DFF"/>
<path d="M40.42 300.57H40.25V301.02H40.42V300.57Z" fill="#F94DFF"/>
<path d="M39.3699 300.57H39.2V301.02H39.3699V300.57Z" fill="#F94DFF"/>
<path d="M38.0699 300.57H37.8999V301.02H38.0699V300.57Z" fill="#F94DFF"/>
<path d="M37.2099 300.57H35.8799V301.02H37.2099V300.57Z" fill="#F94DFF"/>
<path d="M35.1501 300.57H34.1401V301.02H35.1501V300.57Z" fill="#F94DFF"/>
</g>
<mask id="mask7_207_26062" style="mask-type:luminance" maskUnits="userSpaceOnUse" x="34" y="289" width="1" height="13">
<path d="M34.7 289.051V300.571L34.25 301.011V289.051H34.7Z" fill="white"/>
</mask>
<g mask="url(#mask7_207_26062)">
<path d="M34.7 300.451H34.25V301.461H34.7V300.451Z" fill="#F94DFF"/>
<path d="M34.7 299.301H34.25V299.941H34.7V299.301Z" fill="#F94DFF"/>
<path d="M34.7 298.25H34.25V298.57H34.7V298.25Z" fill="#F94DFF"/>
<path d="M34.7 297.5H34.25V297.82H34.7V297.5Z" fill="#F94DFF"/>
<path d="M34.7 296.971H34.25V297.181H34.7V296.971Z" fill="#F94DFF"/>
<path d="M34.7 296.33H34.25V296.54H34.7V296.33Z" fill="#F94DFF"/>
<path d="M34.7 295.701H34.25V295.911H34.7V295.701Z" fill="#F94DFF"/>
<path d="M34.7 295.061H34.25V295.271H34.7V295.061Z" fill="#F94DFF"/>
<path d="M34.7 294.432H34.25V294.642H34.7V294.432Z" fill="#F94DFF"/>
<path d="M34.7 293.791H34.25V294.001H34.7V293.791Z" fill="#F94DFF"/>
<path d="M34.7 292.631H34.25V292.741H34.7V292.631Z" fill="#F94DFF"/>
<path d="M34.7 291.73H34.25V291.84H34.7V291.73Z" fill="#F94DFF"/>
<path d="M34.7 290.84H34.25V290.95H34.7V290.84Z" fill="#F94DFF"/>
<path d="M34.7 289.951H34.25V290.061H34.7V289.951Z" fill="#F94DFF"/>
<path d="M34.7 289.051H34.25V289.161H34.7V289.051Z" fill="#F94DFF"/>
</g>
<path d="M142.13 256.31V282.83L178.19 236.58L142.13 256.31Z" stroke="#52BAFF" stroke-width="1.81" stroke-linecap="round" stroke-linejoin="round"/>
<path d="M142.13 282.83L179.52 263.13L178.19 236.58" stroke="#52BAFF" stroke-width="1.81" stroke-linecap="round" stroke-linejoin="round"/>
<path d="M207.69 159.85L187.49 112.51" stroke="#52BAFF" stroke-width="1.81" stroke-linecap="round" stroke-linejoin="round"/>
<path d="M149.22 168.41L187.49 112.51L158.62 98.1504L142.13 155.22L149.22 168.41ZM149.22 168.41L142.13 217.33" stroke="#52BAFF" stroke-width="1.81" stroke-linecap="round" stroke-linejoin="round"/>
<path d="M204.5 205.4L207.69 159.85L191.35 170.56" stroke="#52BAFF" stroke-width="1.81" stroke-linecap="round" stroke-linejoin="round"/>
<path d="M157.72 212.46L149.22 168.41" stroke="#52BAFF" stroke-width="1.81" stroke-linecap="round" stroke-linejoin="round"/>
<path d="M204.5 205.4L157.72 212.46" stroke="#52BAFF" stroke-width="1.81" stroke-linecap="round" stroke-linejoin="round"/>
<path d="M142.13 232.921L178.19 236.581L157.72 212.461L142.13 232.921ZM142.13 232.921V217.331L157.72 212.461" stroke="#52BAFF" stroke-width="1.81" stroke-linecap="round" stroke-linejoin="round"/>
<path d="M178.19 236.58L204.5 205.4L179.52 263.13" stroke="#52BAFF" stroke-width="1.81" stroke-linecap="round" stroke-linejoin="round"/>
<path d="M204.5 205.4L149.22 168.41L191.35 170.56L187.49 112.51" stroke="#52BAFF" stroke-width="1.81" stroke-linecap="round" stroke-linejoin="round"/>
<path d="M191.35 170.561L185.23 192.511" stroke="#52BAFF" stroke-width="1.81" stroke-linecap="round" stroke-linejoin="round"/>
<path d="M142.11 256.31V282.83L106.05 236.58L142.11 256.31Z" stroke="#52BAFF" stroke-width="1.81" stroke-linecap="round" stroke-linejoin="round"/>
<path d="M142.11 282.83L104.72 263.13L106.05 236.58" stroke="#52BAFF" stroke-width="1.81" stroke-linecap="round" stroke-linejoin="round"/>
<path d="M76.54 159.85L96.74 112.51" stroke="#52BAFF" stroke-width="1.81" stroke-linecap="round" stroke-linejoin="round"/>
<path d="M135.02 168.41L96.74 112.51L125.62 98.1504L142.11 155.22L135.02 168.41ZM135.02 168.41L142.11 217.33" stroke="#52BAFF" stroke-width="1.81" stroke-linecap="round" stroke-linejoin="round"/>
<path d="M79.73 205.4L76.54 159.85L92.89 170.56" stroke="#52BAFF" stroke-width="1.81" stroke-linecap="round" stroke-linejoin="round"/>
<path d="M126.51 212.46L135.02 168.41" stroke="#52BAFF" stroke-width="1.81" stroke-linecap="round" stroke-linejoin="round"/>
<path d="M79.73 205.4L126.51 212.46" stroke="#52BAFF" stroke-width="1.81" stroke-linecap="round" stroke-linejoin="round"/>
<path d="M142.11 232.921L106.05 236.581L126.51 212.461L142.11 232.921ZM142.11 232.921V217.331L126.51 212.461" stroke="#52BAFF" stroke-width="1.81" stroke-linecap="round" stroke-linejoin="round"/>
<path d="M106.05 236.58L79.73 205.4L104.72 263.13" stroke="#52BAFF" stroke-width="1.81" stroke-linecap="round" stroke-linejoin="round"/>
<path d="M79.73 205.4L135.02 168.41L92.89 170.56L96.74 112.51" stroke="#52BAFF" stroke-width="1.81" stroke-linecap="round" stroke-linejoin="round"/>
<path d="M92.8901 170.561L99.0001 192.511" stroke="#52BAFF" stroke-width="1.81" stroke-linecap="round" stroke-linejoin="round"/>
<path d="M125.62 98.1504H158.62" stroke="#52BAFF" stroke-width="1.81" stroke-linecap="round" stroke-linejoin="round"/>
<path d="M135.02 168.41H149.22" stroke="#52BAFF" stroke-width="1.81" stroke-linecap="round" stroke-linejoin="round"/>
<path style="mix-blend-mode:color-dodge" d="M245.417 233.686C246.336 232.314 228 218.418 204.462 202.649C180.924 186.88 161.097 175.208 160.178 176.58C159.259 177.952 177.595 191.848 201.133 207.617C224.672 223.387 244.498 235.058 245.417 233.686Z" fill="url(#paint5_radial_207_26062)"/>
<path style="mix-blend-mode:color-dodge" opacity="0.6" d="M183.8 192.421C187.1 187.501 198.3 189.211 208.81 196.261C219.32 203.301 225.17 213.011 221.87 217.931C218.57 222.851 207.37 221.141 196.86 214.091C186.35 207.051 180.5 197.341 183.8 192.421Z" fill="url(#paint6_radial_207_26062)"/>
<path style="mix-blend-mode:color-dodge" opacity="0.7" d="M170.01 183.18C172.76 179.07 189.69 185.59 207.82 197.73C225.95 209.88 238.41 223.06 235.66 227.17C232.91 231.28 215.98 224.76 197.85 212.62C179.72 200.47 167.26 187.29 170.01 183.18Z" fill="url(#paint7_radial_207_26062)"/>
<path style="mix-blend-mode:color-dodge" d="M97.1 153.371C119.263 153.371 137.23 135.149 137.23 112.671C137.23 90.1927 119.263 71.9707 97.1 71.9707C74.9368 71.9707 56.97 90.1927 56.97 112.671C56.97 135.149 74.9368 153.371 97.1 153.371Z" fill="url(#paint8_radial_207_26062)"/>
<path style="mix-blend-mode:color-dodge" d="M103.12 107.06C105.473 107.06 107.38 105.126 107.38 102.74C107.38 100.354 105.473 98.4199 103.12 98.4199C100.767 98.4199 98.8599 100.354 98.8599 102.74C98.8599 105.126 100.767 107.06 103.12 107.06Z" fill="url(#paint9_radial_207_26062)"/>
<path style="mix-blend-mode:color-dodge" d="M81.79 95.111C81.79 97.501 79.88 99.431 77.53 99.431C75.18 99.431 73.27 97.501 73.27 95.111C73.27 92.721 75.18 90.791 77.53 90.791C79.88 90.791 81.79 92.721 81.79 95.111Z" fill="url(#paint10_radial_207_26062)"/>
<path style="mix-blend-mode:color-dodge" d="M16.8 76.1505C23.56 76.1505 29.0401 70.5899 29.0401 63.7305C29.0401 56.8712 23.56 51.3105 16.8 51.3105C10.0401 51.3105 4.56006 56.8712 4.56006 63.7305C4.56006 70.5899 10.0401 76.1505 16.8 76.1505Z" fill="url(#paint11_radial_207_26062)"/>
<path style="mix-blend-mode:color-dodge" d="M68.65 151.211C78.4309 151.211 86.3599 143.17 86.3599 133.251C86.3599 123.332 78.4309 115.291 68.65 115.291C58.869 115.291 50.9399 123.332 50.9399 133.251C50.9399 143.17 58.869 151.211 68.65 151.211Z" fill="url(#paint12_radial_207_26062)"/>
<path style="mix-blend-mode:color-dodge" d="M81.7401 80.8002C88.0416 80.8002 93.1501 75.6201 93.1501 69.2302C93.1501 62.8402 88.0416 57.6602 81.7401 57.6602C75.4385 57.6602 70.3301 62.8402 70.3301 69.2302C70.3301 75.6201 75.4385 80.8002 81.7401 80.8002Z" fill="url(#paint13_radial_207_26062)"/>
<path style="mix-blend-mode:color-dodge" d="M64.2401 92.1704C68.6031 92.1704 72.1401 88.5842 72.1401 84.1604C72.1401 79.7366 68.6031 76.1504 64.2401 76.1504C59.877 76.1504 56.3401 79.7366 56.3401 84.1604C56.3401 88.5842 59.877 92.1704 64.2401 92.1704Z" fill="url(#paint14_radial_207_26062)"/>
<path style="mix-blend-mode:color-dodge" d="M20.04 142C31.1078 142 40.08 132.898 40.08 121.67C40.08 110.442 31.1078 101.34 20.04 101.34C8.97225 101.34 0 110.442 0 121.67C0 132.898 8.97225 142 20.04 142Z" fill="url(#paint15_radial_207_26062)"/>
<path style="mix-blend-mode:color-dodge" d="M60.08 206.41C77.9629 206.41 92.46 191.708 92.46 173.57C92.46 155.433 77.9629 140.73 60.08 140.73C42.197 140.73 27.7 155.433 27.7 173.57C27.7 191.708 42.197 206.41 60.08 206.41Z" fill="url(#paint16_radial_207_26062)"/>
<path style="mix-blend-mode:color-dodge" d="M235.858 214.44C238.501 208.658 236.022 201.859 230.322 199.252C224.621 196.646 217.857 199.22 215.213 205.001C212.57 210.782 215.049 217.582 220.75 220.188C226.451 222.795 233.215 220.221 235.858 214.44Z" fill="url(#paint17_radial_207_26062)"/>
<path style="mix-blend-mode:color-dodge" d="M244.24 255.181C240.63 263.061 231.41 266.571 223.64 263.021C215.87 259.471 212.49 250.191 216.09 242.311C219.7 234.431 228.92 230.921 236.69 234.471C244.46 238.021 247.84 247.301 244.24 255.181Z" fill="url(#paint18_radial_207_26062)"/>
<path style="mix-blend-mode:color-dodge" d="M212.44 222.661C211.52 224.671 209.16 225.571 207.18 224.661C205.19 223.751 204.33 221.381 205.25 219.371C206.17 217.361 208.53 216.461 210.51 217.371C212.5 218.281 213.36 220.651 212.44 222.661Z" fill="url(#paint19_radial_207_26062)"/>
<g opacity="0.6">
<path style="mix-blend-mode:color-dodge" d="M195.83 308.911C191.56 308.561 192.91 248.901 198.85 175.641C204.78 102.381 213.05 43.2707 217.32 43.6207C221.59 43.9707 220.24 103.631 214.3 176.891C208.37 250.151 200.1 309.261 195.83 308.911Z" fill="url(#paint20_radial_207_26062)"/>
<path style="mix-blend-mode:color-dodge" opacity="0.6" d="M234.337 178.506C236.987 145.78 226.707 118.243 211.376 117.002C196.045 115.76 181.469 141.283 178.818 174.01C176.168 206.736 186.448 234.272 201.779 235.514C217.11 236.755 231.686 211.232 234.337 178.506Z" fill="url(#paint21_radial_207_26062)"/>
<path style="mix-blend-mode:color-dodge" opacity="0.7" d="M229.742 178.133C234.312 121.703 227.645 75.1177 214.852 74.0816C202.059 73.0455 187.983 117.951 183.413 174.381C178.843 230.811 185.51 277.397 198.303 278.433C211.096 279.469 225.172 234.563 229.742 178.133Z" fill="url(#paint22_radial_207_26062)"/>
</g>
<path style="mix-blend-mode:color-dodge" d="M78.0001 200.27C79.8101 199.49 90.9201 221.31 102.82 249C114.72 276.69 122.9 299.76 121.09 300.54C119.28 301.32 108.17 279.5 96.2701 251.81C84.3701 224.12 76.1901 201.05 78.0001 200.27Z" fill="url(#paint23_radial_207_26062)"/>
<path style="mix-blend-mode:color-dodge" opacity="0.6" d="M109.178 272.839C115.678 270.047 116.639 257.754 111.324 245.383C106.009 233.011 96.4303 225.246 89.9301 228.039C83.4299 230.832 82.4691 243.125 87.7843 255.496C93.0994 267.867 102.678 275.632 109.178 272.839Z" fill="url(#paint24_radial_207_26062)"/>
<path style="mix-blend-mode:color-dodge" opacity="0.7" d="M116.145 289.057C121.57 286.726 118.539 267.548 109.376 246.22C100.213 224.893 88.3875 209.493 82.963 211.823C77.5385 214.154 80.5692 233.332 89.7322 254.66C98.8952 275.987 110.721 291.387 116.145 289.057Z" fill="url(#paint25_radial_207_26062)"/>
<path style="mix-blend-mode:color-dodge" d="M156.06 246.931C154.74 245.371 175.35 225.671 202.1 202.921C228.85 180.171 251.62 163.001 252.94 164.561C254.26 166.121 233.65 185.821 206.9 208.571C180.15 231.321 157.38 248.491 156.06 246.931Z" fill="url(#paint26_radial_207_26062)"/>
<path style="mix-blend-mode:color-dodge" opacity="0.6" d="M182.86 224.141C178.1 218.541 183.93 205.771 195.88 195.611C207.83 185.451 221.38 181.751 226.14 187.351C230.9 192.951 225.07 205.721 213.12 215.881C201.17 226.041 187.62 229.741 182.86 224.141Z" fill="url(#paint27_radial_207_26062)"/>
<path style="mix-blend-mode:color-dodge" opacity="0.7" d="M167.19 237.472C163.22 232.802 176.7 214.812 197.31 197.292C217.92 179.772 237.84 169.352 241.82 174.032C245.79 178.702 232.31 196.692 211.7 214.212C191.09 231.732 171.17 242.152 167.19 237.472Z" fill="url(#paint28_radial_207_26062)"/>
<path style="mix-blend-mode:color-dodge" opacity="0.5" d="M225.104 281.569C288.463 265.219 325.27 195.56 307.314 125.982C289.359 56.4035 223.441 13.2537 160.082 29.604C96.7228 45.9544 59.9158 115.613 77.8711 185.192C95.8264 254.77 161.745 297.92 225.104 281.569Z" fill="url(#paint29_radial_207_26062)"/>
<path style="mix-blend-mode:color-dodge" opacity="0.8" d="M28.6799 222.922C37.9086 222.922 45.39 181.025 45.39 129.342C45.39 77.6589 37.9086 35.7617 28.6799 35.7617C19.4513 35.7617 11.97 77.6589 11.97 129.342C11.97 181.025 19.4513 222.922 28.6799 222.922Z" fill="url(#paint30_radial_207_26062)"/>
<path style="mix-blend-mode:color-dodge" opacity="0.8" d="M197.44 317.101C274.285 317.101 336.58 312.387 336.58 306.571C336.58 300.755 274.285 296.041 197.44 296.041C120.595 296.041 58.3 300.755 58.3 306.571C58.3 312.387 120.595 317.101 197.44 317.101Z" fill="url(#paint31_radial_207_26062)"/>
<defs>
<linearGradient id="paint0_linear_207_26062" x1="28.6799" y1="77.5801" x2="257.68" y2="306.58" gradientUnits="userSpaceOnUse">
<stop stop-color="#D100B2"/>
<stop offset="0.06" stop-color="#B720C0" stop-opacity="0.9"/>
<stop offset="0.15" stop-color="#9151D6" stop-opacity="0.76"/>
<stop offset="0.23" stop-color="#7377E8" stop-opacity="0.65"/>
<stop offset="0.31" stop-color="#5E92F4" stop-opacity="0.57"/>
<stop offset="0.38" stop-color="#51A3FC" stop-opacity="0.52"/>
<stop offset="0.43" stop-color="#4DA9FF" stop-opacity="0.5"/>
<stop offset="0.67" stop-color="#4DA9FF"/>
<stop offset="1" stop-color="#4DA9FF" stop-opacity="0.5"/>
</linearGradient>
<linearGradient id="paint1_linear_207_26062" x1="12.5999" y1="123.62" x2="74.7199" y2="61.5" gradientUnits="userSpaceOnUse">
<stop stop-color="#9636CF"/>
<stop offset="0.27" stop-color="#4DA9FF"/>
<stop offset="1" stop-color="#4DA9FF" stop-opacity="0.5"/>
</linearGradient>
<linearGradient id="paint2_linear_207_26062" x1="226.63" y1="108.64" x2="258.79" y2="76.4801" gradientUnits="userSpaceOnUse">
<stop stop-color="#4DA9FF" stop-opacity="0.5"/>
<stop offset="0.6" stop-color="#4DA9FF"/>
<stop offset="0.67" stop-color="#539EFA"/>
<stop offset="0.77" stop-color="#6582EF"/>
<stop offset="0.91" stop-color="#8155DC"/>
<stop offset="1" stop-color="#9735CF"/>
</linearGradient>
<linearGradient id="paint3_linear_207_26062" x1="258.79" y1="276.601" x2="196.66" y2="276.601" gradientUnits="userSpaceOnUse">
<stop stop-color="#4DA9FF" stop-opacity="0.5"/>
<stop offset="1" stop-color="#4DA9FF"/>
</linearGradient>
<linearGradient id="paint4_linear_207_26062" x1="89.71" y1="276.601" x2="27.5799" y2="276.601" gradientUnits="userSpaceOnUse">
<stop stop-color="#4DA9FF" stop-opacity="0.5"/>
<stop offset="0.48" stop-color="#4DA9FF"/>
<stop offset="0.54" stop-color="#559EFA"/>
<stop offset="0.65" stop-color="#6A82ED"/>
<stop offset="0.78" stop-color="#8E55D8"/>
<stop offset="0.94" stop-color="#BE17BC"/>
<stop offset="1" stop-color="#D100B2"/>
</linearGradient>
<radialGradient id="paint5_radial_207_26062" cx="0" cy="0" r="1" gradientUnits="userSpaceOnUse" gradientTransform="translate(233.906 165.022) rotate(-146.18) scale(51.2677 2.94359)">
<stop stop-color="white"/>
<stop offset="0.16" stop-color="#C0C0C0" stop-opacity="0.75"/>
<stop offset="0.32" stop-color="#868686" stop-opacity="0.53"/>
<stop offset="0.48" stop-color="#565656" stop-opacity="0.34"/>
<stop offset="0.63" stop-color="#303030" stop-opacity="0.19"/>
<stop offset="0.77" stop-color="#161616" stop-opacity="0.09"/>
<stop offset="0.9" stop-color="#050505" stop-opacity="0.02"/>
<stop offset="0.99" stop-opacity="0"/>
</radialGradient>
<radialGradient id="paint6_radial_207_26062" cx="0" cy="0" r="1" gradientUnits="userSpaceOnUse" gradientTransform="translate(199.513 240.697) rotate(-146.18) scale(22.854 10.7824)">
<stop stop-color="#F8F8F8" stop-opacity="0.98"/>
<stop offset="0.09" stop-color="#C5C5C5" stop-opacity="0.77"/>
<stop offset="0.17" stop-color="#969696" stop-opacity="0.59"/>
<stop offset="0.26" stop-color="#6D6D6D" stop-opacity="0.43"/>
<stop offset="0.35" stop-color="#4B4B4B" stop-opacity="0.3"/>
<stop offset="0.44" stop-color="#303030" stop-opacity="0.19"/>
<stop offset="0.55" stop-color="#1A1A1A" stop-opacity="0.1"/>
<stop offset="0.66" stop-color="#0B0B0B" stop-opacity="0.05"/>
<stop offset="0.8" stop-color="#020202" stop-opacity="0.01"/>
<stop offset="1" stop-opacity="0"/>
</radialGradient>
<radialGradient id="paint7_radial_207_26062" cx="0" cy="0" r="1" gradientUnits="userSpaceOnUse" gradientTransform="translate(228.554 181.507) rotate(-146.18) scale(39.4625 8.897)">
<stop stop-color="#F8F8F8" stop-opacity="0.98"/>
<stop offset="0.09" stop-color="#C5C5C5" stop-opacity="0.77"/>
<stop offset="0.17" stop-color="#969696" stop-opacity="0.59"/>
<stop offset="0.26" stop-color="#6D6D6D" stop-opacity="0.43"/>
<stop offset="0.35" stop-color="#4B4B4B" stop-opacity="0.3"/>
<stop offset="0.44" stop-color="#303030" stop-opacity="0.19"/>
<stop offset="0.55" stop-color="#1A1A1A" stop-opacity="0.1"/>
<stop offset="0.66" stop-color="#0B0B0B" stop-opacity="0.05"/>
<stop offset="0.8" stop-color="#020202" stop-opacity="0.01"/>
<stop offset="1" stop-opacity="0"/>
</radialGradient>
<radialGradient id="paint8_radial_207_26062" cx="0" cy="0" r="1" gradientUnits="userSpaceOnUse" gradientTransform="translate(99.2899 124.184) scale(40.25 40.6)">
<stop stop-color="white"/>
<stop offset="0.15" stop-color="#C4C4C4" stop-opacity="0.77"/>
<stop offset="0.32" stop-color="#898989" stop-opacity="0.54"/>
<stop offset="0.48" stop-color="#585858" stop-opacity="0.35"/>
<stop offset="0.64" stop-color="#323232" stop-opacity="0.2"/>
<stop offset="0.78" stop-color="#161616" stop-opacity="0.09"/>
<stop offset="0.9" stop-color="#050505" stop-opacity="0.02"/>
<stop offset="1" stop-opacity="0"/>
</radialGradient>
<radialGradient id="paint9_radial_207_26062" cx="0" cy="0" r="1" gradientUnits="userSpaceOnUse" gradientTransform="translate(105.327 114.277) scale(4.27801 4.3152)">
<stop stop-color="white"/>
<stop offset="0.15" stop-color="#C4C4C4" stop-opacity="0.77"/>
<stop offset="0.32" stop-color="#898989" stop-opacity="0.54"/>
<stop offset="0.48" stop-color="#585858" stop-opacity="0.35"/>
<stop offset="0.64" stop-color="#323232" stop-opacity="0.2"/>
<stop offset="0.78" stop-color="#161616" stop-opacity="0.09"/>
<stop offset="0.9" stop-color="#050505" stop-opacity="0.02"/>
<stop offset="1" stop-opacity="0"/>
</radialGradient>
<radialGradient id="paint10_radial_207_26062" cx="0" cy="0" r="1" gradientUnits="userSpaceOnUse" gradientTransform="translate(79.6595 106.668) scale(4.27801 4.3152)">
<stop stop-color="white"/>
<stop offset="0.15" stop-color="#C4C4C4" stop-opacity="0.77"/>
<stop offset="0.32" stop-color="#898989" stop-opacity="0.54"/>
<stop offset="0.48" stop-color="#585858" stop-opacity="0.35"/>
<stop offset="0.64" stop-color="#323232" stop-opacity="0.2"/>
<stop offset="0.78" stop-color="#161616" stop-opacity="0.09"/>
<stop offset="0.9" stop-color="#050505" stop-opacity="0.02"/>
<stop offset="1" stop-opacity="0"/>
</radialGradient>
<radialGradient id="paint11_radial_207_26062" cx="0" cy="0" r="1" gradientUnits="userSpaceOnUse" gradientTransform="translate(18.7441 75.3709) scale(12.282 12.3888)">
<stop stop-color="white"/>
<stop offset="0.15" stop-color="#C4C4C4" stop-opacity="0.77"/>
<stop offset="0.32" stop-color="#898989" stop-opacity="0.54"/>
<stop offset="0.48" stop-color="#585858" stop-opacity="0.35"/>
<stop offset="0.64" stop-color="#323232" stop-opacity="0.2"/>
<stop offset="0.78" stop-color="#161616" stop-opacity="0.09"/>
<stop offset="0.9" stop-color="#050505" stop-opacity="0.02"/>
<stop offset="1" stop-opacity="0"/>
</radialGradient>
<radialGradient id="paint12_radial_207_26062" cx="0" cy="0" r="1" gradientUnits="userSpaceOnUse" gradientTransform="translate(70.7469 144.716) scale(17.7675 17.922)">
<stop stop-color="white"/>
<stop offset="0.15" stop-color="#C4C4C4" stop-opacity="0.77"/>
<stop offset="0.32" stop-color="#898989" stop-opacity="0.54"/>
<stop offset="0.48" stop-color="#585858" stop-opacity="0.35"/>
<stop offset="0.64" stop-color="#323232" stop-opacity="0.2"/>
<stop offset="0.78" stop-color="#161616" stop-opacity="0.09"/>
<stop offset="0.9" stop-color="#050505" stop-opacity="0.02"/>
<stop offset="1" stop-opacity="0"/>
</radialGradient>
<radialGradient id="paint13_radial_207_26062" cx="0" cy="0" r="1" gradientUnits="userSpaceOnUse" gradientTransform="translate(83.8801 80.8574) scale(11.4425 11.542)">
<stop stop-color="white"/>
<stop offset="0.15" stop-color="#C4C4C4" stop-opacity="0.77"/>
<stop offset="0.32" stop-color="#898989" stop-opacity="0.54"/>
<stop offset="0.48" stop-color="#585858" stop-opacity="0.35"/>
<stop offset="0.64" stop-color="#323232" stop-opacity="0.2"/>
<stop offset="0.78" stop-color="#161616" stop-opacity="0.09"/>
<stop offset="0.9" stop-color="#050505" stop-opacity="0.02"/>
<stop offset="1" stop-opacity="0"/>
</radialGradient>
<radialGradient id="paint14_radial_207_26062" cx="0" cy="0" r="1" gradientUnits="userSpaceOnUse" gradientTransform="translate(66.3196 95.7404) scale(7.92349 7.9924)">
<stop stop-color="white"/>
<stop offset="0.15" stop-color="#C4C4C4" stop-opacity="0.77"/>
<stop offset="0.32" stop-color="#898989" stop-opacity="0.54"/>
<stop offset="0.48" stop-color="#585858" stop-opacity="0.35"/>
<stop offset="0.64" stop-color="#323232" stop-opacity="0.2"/>
<stop offset="0.78" stop-color="#161616" stop-opacity="0.09"/>
<stop offset="0.9" stop-color="#050505" stop-opacity="0.02"/>
<stop offset="1" stop-opacity="0"/>
</radialGradient>
<radialGradient id="paint15_radial_207_26062" cx="0" cy="0" r="1" gradientUnits="userSpaceOnUse" gradientTransform="translate(21.9985 133.161) scale(20.102 20.2768)">
<stop stop-color="white"/>
<stop offset="0.15" stop-color="#C4C4C4" stop-opacity="0.77"/>
<stop offset="0.32" stop-color="#898989" stop-opacity="0.54"/>
<stop offset="0.48" stop-color="#585858" stop-opacity="0.35"/>
<stop offset="0.64" stop-color="#323232" stop-opacity="0.2"/>
<stop offset="0.78" stop-color="#161616" stop-opacity="0.09"/>
<stop offset="0.9" stop-color="#050505" stop-opacity="0.02"/>
<stop offset="1" stop-opacity="0"/>
</radialGradient>
<radialGradient id="paint16_radial_207_26062" cx="0" cy="0" r="1" gradientUnits="userSpaceOnUse" gradientTransform="translate(62.1565 184.933) scale(32.476 32.7584)">
<stop stop-color="white"/>
<stop offset="0.15" stop-color="#C4C4C4" stop-opacity="0.77"/>
<stop offset="0.32" stop-color="#898989" stop-opacity="0.54"/>
<stop offset="0.48" stop-color="#585858" stop-opacity="0.35"/>
<stop offset="0.64" stop-color="#323232" stop-opacity="0.2"/>
<stop offset="0.78" stop-color="#161616" stop-opacity="0.09"/>
<stop offset="0.9" stop-color="#050505" stop-opacity="0.02"/>
<stop offset="1" stop-opacity="0"/>
</radialGradient>
<radialGradient id="paint17_radial_207_26062" cx="0" cy="0" r="1" gradientUnits="userSpaceOnUse" gradientTransform="translate(224.517 221.826) rotate(24.57) scale(11.385 11.484)">
<stop stop-color="white"/>
<stop offset="0.15" stop-color="#C4C4C4" stop-opacity="0.77"/>
<stop offset="0.32" stop-color="#898989" stop-opacity="0.54"/>
<stop offset="0.48" stop-color="#585858" stop-opacity="0.35"/>
<stop offset="0.64" stop-color="#323232" stop-opacity="0.2"/>
<stop offset="0.78" stop-color="#161616" stop-opacity="0.09"/>
<stop offset="0.9" stop-color="#050505" stop-opacity="0.02"/>
<stop offset="1" stop-opacity="0"/>
</radialGradient>
<radialGradient id="paint18_radial_207_26062" cx="0" cy="0" r="1" gradientUnits="userSpaceOnUse" gradientTransform="translate(229.309 260.853) rotate(24.57) scale(15.525 15.66)">
<stop stop-color="white"/>
<stop offset="0.15" stop-color="#C4C4C4" stop-opacity="0.77"/>
<stop offset="0.32" stop-color="#898989" stop-opacity="0.54"/>
<stop offset="0.48" stop-color="#585858" stop-opacity="0.35"/>
<stop offset="0.64" stop-color="#323232" stop-opacity="0.2"/>
<stop offset="0.78" stop-color="#161616" stop-opacity="0.09"/>
<stop offset="0.9" stop-color="#050505" stop-opacity="0.02"/>
<stop offset="1" stop-opacity="0"/>
</radialGradient>
<radialGradient id="paint19_radial_207_26062" cx="0" cy="0" r="1" gradientUnits="userSpaceOnUse" gradientTransform="translate(207.873 233.119) rotate(24.57) scale(3.9675 4.002)">
<stop stop-color="white"/>
<stop offset="0.15" stop-color="#C4C4C4" stop-opacity="0.77"/>
<stop offset="0.32" stop-color="#898989" stop-opacity="0.54"/>
<stop offset="0.48" stop-color="#585858" stop-opacity="0.35"/>
<stop offset="0.64" stop-color="#323232" stop-opacity="0.2"/>
<stop offset="0.78" stop-color="#161616" stop-opacity="0.09"/>
<stop offset="0.9" stop-color="#050505" stop-opacity="0.02"/>
<stop offset="1" stop-opacity="0"/>
</radialGradient>
<radialGradient id="paint20_radial_207_26062" cx="0" cy="0" r="1" gradientUnits="userSpaceOnUse" gradientTransform="translate(171.333 173.2) rotate(94.63) scale(133.008 7.63679)">
<stop stop-color="white"/>
<stop offset="0.16" stop-color="#C0C0C0" stop-opacity="0.75"/>
<stop offset="0.32" stop-color="#868686" stop-opacity="0.53"/>
<stop offset="0.48" stop-color="#565656" stop-opacity="0.34"/>
<stop offset="0.63" stop-color="#303030" stop-opacity="0.19"/>
<stop offset="0.77" stop-color="#161616" stop-opacity="0.09"/>
<stop offset="0.9" stop-color="#050505" stop-opacity="0.02"/>
<stop offset="0.99" stop-opacity="0"/>
</radialGradient>
<radialGradient id="paint21_radial_207_26062" cx="0" cy="0" r="1" gradientUnits="userSpaceOnUse" gradientTransform="translate(232.943 174.531) rotate(94.63) scale(59.2995 27.9772)">
<stop stop-color="#F8F8F8" stop-opacity="0.98"/>
<stop offset="0.09" stop-color="#C5C5C5" stop-opacity="0.77"/>
<stop offset="0.17" stop-color="#969696" stop-opacity="0.59"/>
<stop offset="0.26" stop-color="#6D6D6D" stop-opacity="0.43"/>
<stop offset="0.35" stop-color="#4B4B4B" stop-opacity="0.3"/>
<stop offset="0.44" stop-color="#303030" stop-opacity="0.19"/>
<stop offset="0.55" stop-color="#1A1A1A" stop-opacity="0.1"/>
<stop offset="0.66" stop-color="#0B0B0B" stop-opacity="0.05"/>
<stop offset="0.8" stop-color="#020202" stop-opacity="0.01"/>
<stop offset="1" stop-opacity="0"/>
</radialGradient>
<radialGradient id="paint22_radial_207_26062" cx="0" cy="0" r="1" gradientUnits="userSpaceOnUse" gradientTransform="translate(178.941 171.666) rotate(94.63) scale(102.41 23.0888)">
<stop stop-color="#F8F8F8" stop-opacity="0.98"/>
<stop offset="0.09" stop-color="#C5C5C5" stop-opacity="0.77"/>
<stop offset="0.17" stop-color="#969696" stop-opacity="0.59"/>
<stop offset="0.26" stop-color="#6D6D6D" stop-opacity="0.43"/>
<stop offset="0.35" stop-color="#4B4B4B" stop-opacity="0.3"/>
<stop offset="0.44" stop-color="#303030" stop-opacity="0.19"/>
<stop offset="0.55" stop-color="#1A1A1A" stop-opacity="0.1"/>
<stop offset="0.66" stop-color="#0B0B0B" stop-opacity="0.05"/>
<stop offset="0.8" stop-color="#020202" stop-opacity="0.01"/>
<stop offset="1" stop-opacity="0"/>
</radialGradient>
<radialGradient id="paint23_radial_207_26062" cx="0" cy="0" r="1" gradientUnits="userSpaceOnUse" gradientTransform="translate(155.825 238.567) rotate(-113.25) scale(54.4422 3.5124)">
<stop stop-color="white"/>
<stop offset="0.16" stop-color="#C0C0C0" stop-opacity="0.75"/>
<stop offset="0.32" stop-color="#868686" stop-opacity="0.53"/>
<stop offset="0.48" stop-color="#565656" stop-opacity="0.34"/>
<stop offset="0.63" stop-color="#303030" stop-opacity="0.19"/>
<stop offset="0.77" stop-color="#161616" stop-opacity="0.09"/>
<stop offset="0.9" stop-color="#050505" stop-opacity="0.02"/>
<stop offset="0.99" stop-opacity="0"/>
</radialGradient>
<radialGradient id="paint24_radial_207_26062" cx="0" cy="0" r="1" gradientUnits="userSpaceOnUse" gradientTransform="translate(72.1307 269.77) rotate(-113.25) scale(24.3426 12.8708)">
<stop stop-color="#F8F8F8" stop-opacity="0.98"/>
<stop offset="0.09" stop-color="#C5C5C5" stop-opacity="0.77"/>
<stop offset="0.17" stop-color="#969696" stop-opacity="0.59"/>
<stop offset="0.26" stop-color="#6D6D6D" stop-opacity="0.43"/>
<stop offset="0.35" stop-color="#4B4B4B" stop-opacity="0.3"/>
<stop offset="0.44" stop-color="#303030" stop-opacity="0.19"/>
<stop offset="0.55" stop-color="#1A1A1A" stop-opacity="0.1"/>
<stop offset="0.66" stop-color="#0B0B0B" stop-opacity="0.05"/>
<stop offset="0.8" stop-color="#020202" stop-opacity="0.01"/>
<stop offset="1" stop-opacity="0"/>
</radialGradient>
<radialGradient id="paint25_radial_207_26062" cx="0" cy="0" r="1" gradientUnits="userSpaceOnUse" gradientTransform="translate(137.681 243.913) rotate(-113.25) scale(41.9685 10.6206)">
<stop stop-color="#F8F8F8" stop-opacity="0.98"/>
<stop offset="0.09" stop-color="#C5C5C5" stop-opacity="0.77"/>
<stop offset="0.17" stop-color="#969696" stop-opacity="0.59"/>
<stop offset="0.26" stop-color="#6D6D6D" stop-opacity="0.43"/>
<stop offset="0.35" stop-color="#4B4B4B" stop-opacity="0.3"/>
<stop offset="0.44" stop-color="#303030" stop-opacity="0.19"/>
<stop offset="0.55" stop-color="#1A1A1A" stop-opacity="0.1"/>
<stop offset="0.66" stop-color="#0B0B0B" stop-opacity="0.05"/>
<stop offset="0.8" stop-color="#020202" stop-opacity="0.01"/>
<stop offset="1" stop-opacity="0"/>
</radialGradient>
<radialGradient id="paint26_radial_207_26062" cx="0" cy="0" r="1" gradientUnits="userSpaceOnUse" gradientTransform="translate(195.48 192.346) rotate(139.63) scale(63.536 3.648)">
<stop stop-color="white"/>
<stop offset="0.16" stop-color="#C0C0C0" stop-opacity="0.75"/>
<stop offset="0.32" stop-color="#868686" stop-opacity="0.53"/>
<stop offset="0.48" stop-color="#565656" stop-opacity="0.34"/>
<stop offset="0.63" stop-color="#303030" stop-opacity="0.19"/>
<stop offset="0.77" stop-color="#161616" stop-opacity="0.09"/>
<stop offset="0.9" stop-color="#050505" stop-opacity="0.02"/>
<stop offset="0.99" stop-opacity="0"/>
</radialGradient>
<radialGradient id="paint27_radial_207_26062" cx="0" cy="0" r="1" gradientUnits="userSpaceOnUse" gradientTransform="translate(223.843 214.828) rotate(139.63) scale(28.3335 13.3676)">
<stop stop-color="#F8F8F8" stop-opacity="0.98"/>
<stop offset="0.09" stop-color="#C5C5C5" stop-opacity="0.77"/>
<stop offset="0.17" stop-color="#969696" stop-opacity="0.59"/>
<stop offset="0.26" stop-color="#6D6D6D" stop-opacity="0.43"/>
<stop offset="0.35" stop-color="#4B4B4B" stop-opacity="0.3"/>
<stop offset="0.44" stop-color="#303030" stop-opacity="0.19"/>
<stop offset="0.55" stop-color="#1A1A1A" stop-opacity="0.1"/>
<stop offset="0.66" stop-color="#0B0B0B" stop-opacity="0.05"/>
<stop offset="0.8" stop-color="#020202" stop-opacity="0.01"/>
<stop offset="1" stop-opacity="0"/>
</radialGradient>
<radialGradient id="paint28_radial_207_26062" cx="0" cy="0" r="1" gradientUnits="userSpaceOnUse" gradientTransform="translate(195.255 187.979) rotate(139.63) scale(48.9225 11.0298)">
<stop stop-color="#F8F8F8" stop-opacity="0.98"/>
<stop offset="0.09" stop-color="#C5C5C5" stop-opacity="0.77"/>
<stop offset="0.17" stop-color="#969696" stop-opacity="0.59"/>
<stop offset="0.26" stop-color="#6D6D6D" stop-opacity="0.43"/>
<stop offset="0.35" stop-color="#4B4B4B" stop-opacity="0.3"/>
<stop offset="0.44" stop-color="#303030" stop-opacity="0.19"/>
<stop offset="0.55" stop-color="#1A1A1A" stop-opacity="0.1"/>
<stop offset="0.66" stop-color="#0B0B0B" stop-opacity="0.05"/>
<stop offset="0.8" stop-color="#020202" stop-opacity="0.01"/>
<stop offset="1" stop-opacity="0"/>
</radialGradient>
<radialGradient id="paint29_radial_207_26062" cx="0" cy="0" r="1" gradientUnits="userSpaceOnUse" gradientTransform="translate(195.687 155.201) rotate(-14.47) scale(119.091 130.256)">
<stop stop-color="#D100B2"/>
<stop offset="1" stop-opacity="0"/>
</radialGradient>
<radialGradient id="paint30_radial_207_26062" cx="0" cy="0" r="1" gradientUnits="userSpaceOnUse" gradientTransform="translate(29.7103 125.417) scale(16.7481 93.045)">
<stop stop-color="white"/>
<stop offset="0.13" stop-color="#CCCCCC" stop-opacity="0.8"/>
<stop offset="0.31" stop-color="#8F8F8F" stop-opacity="0.56"/>
<stop offset="0.48" stop-color="#5B5B5B" stop-opacity="0.36"/>
<stop offset="0.64" stop-color="#343434" stop-opacity="0.2"/>
<stop offset="0.78" stop-color="#171717" stop-opacity="0.09"/>
<stop offset="0.91" stop-color="#060606" stop-opacity="0.02"/>
<stop offset="1" stop-opacity="0"/>
</radialGradient>
<radialGradient id="paint31_radial_207_26062" cx="0" cy="0" r="1" gradientUnits="userSpaceOnUse" gradientTransform="translate(202.178 454.753) rotate(90) scale(11.1618 139.523)">
<stop stop-color="white"/>
<stop offset="0.13" stop-color="#CCCCCC" stop-opacity="0.8"/>
<stop offset="0.31" stop-color="#8F8F8F" stop-opacity="0.56"/>
<stop offset="0.48" stop-color="#5B5B5B" stop-opacity="0.36"/>
<stop offset="0.64" stop-color="#343434" stop-opacity="0.2"/>
<stop offset="0.78" stop-color="#171717" stop-opacity="0.09"/>
<stop offset="0.91" stop-color="#060606" stop-opacity="0.02"/>
<stop offset="1" stop-opacity="0"/>
</radialGradient>
</defs>
</svg>
