<svg width="362" height="311" viewBox="0 0 362 311" fill="none" xmlns="http://www.w3.org/2000/svg">
<path d="M168.47 277.64C168.47 277.64 64.6201 251.71 64.6201 71.4103C99.2401 68.6003 133.13 64.6703 168.47 32.3203C203.81 64.6703 237.7 68.6003 272.32 71.4103C272.32 251.71 168.47 277.64 168.47 277.64Z" fill="url(#paint0_linear_207_25244)" fill-opacity="0.2" stroke="url(#paint1_linear_207_25244)" stroke-width="2.86" stroke-linecap="round" stroke-linejoin="round"/>
<path d="M224.27 64.0202C228.96 62.1502 233.57 60.4302 238.1 58.8402C286.22 41.9502 324.28 40.9602 336.2 59.7102C355.27 89.7002 300.18 158.87 213.16 214.19C126.14 269.51 40.1302 290.05 21.0602 260.05C7.86019 239.29 30.2002 199.75 74.0602 159.03" stroke="url(#paint2_linear_207_25244)" stroke-width="2.86" stroke-linecap="round" stroke-linejoin="round"/>
<path d="M184.77 203.29L175.51 134.38C180.1 131.88 183.21 127.02 183.21 121.42C183.21 113.08 176.28 106.35 167.86 106.69C160.26 106.99 154.07 113.16 153.74 120.75C153.48 126.62 156.66 131.78 161.43 134.37L152.17 203.28H184.78L184.77 203.29Z" stroke="url(#paint3_linear_207_25244)" stroke-width="2.86" stroke-linecap="round" stroke-linejoin="round"/>
<path style="mix-blend-mode:color-dodge" d="M262.5 256.61C262.5 258.66 203.74 260.32 131.25 260.32C58.76 260.32 0 258.66 0 256.61C0 254.56 58.76 252.9 131.25 252.9C203.74 252.9 262.5 254.56 262.5 256.61Z" fill="url(#paint4_radial_207_25244)"/>
<path style="mix-blend-mode:color-dodge" opacity="0.5" d="M131.25 286.671C153.529 286.671 171.59 273.212 171.59 256.611C171.59 240.009 153.529 226.551 131.25 226.551C108.971 226.551 90.9102 240.009 90.9102 256.611C90.9102 273.212 108.971 286.671 131.25 286.671Z" fill="url(#paint5_radial_207_25244)"/>
<path style="mix-blend-mode:color-dodge" opacity="0.8" d="M131.25 269.921C147.879 269.921 161.36 263.962 161.36 256.611C161.36 249.26 147.879 243.301 131.25 243.301C114.621 243.301 101.14 249.26 101.14 256.611C101.14 263.962 114.621 269.921 131.25 269.921Z" fill="url(#paint6_radial_207_25244)"/>
<path style="mix-blend-mode:color-dodge" d="M185.22 202.64C186.59 204.01 163.54 229.29 133.73 259.09C103.92 288.9 78.6502 311.95 77.2802 310.58C75.9102 309.21 98.9602 283.93 128.77 254.13C158.58 224.32 183.85 201.27 185.22 202.64Z" fill="url(#paint7_radial_207_25244)"/>
<path style="mix-blend-mode:color-dodge" opacity="0.5" d="M151.389 276.759C160.551 267.597 158.959 251.151 147.833 240.025C136.707 228.899 120.26 227.306 111.098 236.468C101.937 245.63 103.529 262.076 114.655 273.202C125.781 284.328 142.228 285.921 151.389 276.759Z" fill="url(#paint8_radial_207_25244)"/>
<path style="mix-blend-mode:color-dodge" opacity="0.8" d="M140.168 265.536C147.006 258.698 148.554 249.16 143.626 244.231C138.697 239.303 129.158 240.851 122.32 247.689C115.482 254.527 113.934 264.066 118.863 268.994C123.791 273.922 133.33 272.374 140.168 265.536Z" fill="url(#paint9_radial_207_25244)"/>
<path style="mix-blend-mode:color-dodge" d="M293.65 86.72C293.02 88.61 258.12 78.74 215.69 64.68C173.26 50.62 139.37 37.69 140 35.81C140.63 33.92 175.53 43.79 217.96 57.85C260.39 71.91 294.28 84.84 293.65 86.72Z" fill="url(#paint10_radial_207_25244)"/>
<path style="mix-blend-mode:color-dodge" opacity="0.5" d="M250.463 72.3561C252.694 65.6246 239.423 55.172 220.822 49.0095C202.221 42.8471 185.334 43.3085 183.104 50.04C180.874 56.7715 194.145 67.2242 212.746 73.3866C231.347 79.549 248.233 79.0877 250.463 72.3561Z" fill="url(#paint11_radial_207_25244)"/>
<path style="mix-blend-mode:color-dodge" opacity="0.8" d="M241.97 69.5892C240.98 72.5692 228.93 71.2592 215.04 66.6592C201.16 62.0592 190.7 55.9092 191.69 52.9292C192.68 49.9492 204.73 51.2592 218.62 55.8592C232.5 60.4592 242.96 66.6092 241.97 69.5892Z" fill="url(#paint12_radial_207_25244)"/>
<path style="mix-blend-mode:color-dodge" d="M259.138 191.456C315.936 144.134 359.745 103.088 356.988 99.7787C354.23 96.4691 305.951 132.149 249.152 179.471C192.354 226.794 148.545 267.839 151.303 271.149C154.06 274.458 202.34 238.779 259.138 191.456Z" fill="url(#paint13_radial_207_25244)"/>
<path style="mix-blend-mode:color-dodge" opacity="0.6" d="M272.075 206.983C297.449 185.843 309.991 159.07 300.089 147.185C290.186 135.3 261.59 142.803 236.216 163.944C210.842 185.085 198.3 211.857 208.202 223.742C218.104 235.627 246.701 228.124 272.075 206.983Z" fill="url(#paint14_radial_207_25244)"/>
<path style="mix-blend-mode:color-dodge" opacity="0.7" d="M269.111 203.425C312.862 166.973 341.628 129.381 333.363 119.461C325.098 109.541 282.93 131.049 239.18 167.5C195.429 203.952 166.662 241.544 174.928 251.464C183.193 261.385 225.36 239.877 269.111 203.425Z" fill="url(#paint15_radial_207_25244)"/>
<path style="mix-blend-mode:color-dodge" d="M259.138 191.456C315.936 144.134 359.745 103.088 356.988 99.7787C354.23 96.4691 305.951 132.149 249.152 179.471C192.354 226.794 148.545 267.839 151.303 271.149C154.06 274.458 202.34 238.779 259.138 191.456Z" fill="url(#paint16_radial_207_25244)"/>
<path style="mix-blend-mode:color-dodge" opacity="0.6" d="M272.075 206.983C297.449 185.843 309.991 159.07 300.089 147.185C290.186 135.3 261.59 142.803 236.216 163.944C210.842 185.085 198.3 211.857 208.202 223.742C218.104 235.627 246.701 228.124 272.075 206.983Z" fill="url(#paint17_radial_207_25244)"/>
<path style="mix-blend-mode:color-dodge" opacity="0.7" d="M269.111 203.425C312.862 166.973 341.628 129.381 333.363 119.461C325.098 109.541 282.93 131.049 239.18 167.5C195.429 203.952 166.662 241.544 174.928 251.464C183.193 261.385 225.36 239.877 269.111 203.425Z" fill="url(#paint18_radial_207_25244)"/>
<path style="mix-blend-mode:color-dodge" d="M95.4804 79.7006C112.783 79.7006 126.81 65.4722 126.81 47.9206C126.81 30.369 112.783 16.1406 95.4804 16.1406C78.1773 16.1406 64.1504 30.369 64.1504 47.9206C64.1504 65.4722 78.1773 79.7006 95.4804 79.7006Z" fill="url(#paint19_radial_207_25244)"/>
<path style="mix-blend-mode:color-dodge" d="M32.7802 19.4C38.0601 19.4 42.3402 15.0571 42.3402 9.69998C42.3402 4.34282 38.0601 0 32.7802 0C27.5004 0 23.2202 4.34282 23.2202 9.69998C23.2202 15.0571 27.5004 19.4 32.7802 19.4Z" fill="url(#paint20_radial_207_25244)"/>
<path style="mix-blend-mode:color-dodge" d="M73.2602 78.0092C80.8983 78.0092 87.0902 71.7278 87.0902 63.9792C87.0902 56.2307 80.8983 49.9492 73.2602 49.9492C65.6221 49.9492 59.4302 56.2307 59.4302 63.9792C59.4302 71.7278 65.6221 78.0092 73.2602 78.0092Z" fill="url(#paint21_radial_207_25244)"/>
<path style="mix-blend-mode:color-dodge" d="M83.4901 23.0409C88.4109 23.0409 92.4001 18.9936 92.4001 14.0009C92.4001 9.00829 88.4109 4.96094 83.4901 4.96094C78.5692 4.96094 74.5801 9.00829 74.5801 14.0009C74.5801 18.9936 78.5692 23.0409 83.4901 23.0409Z" fill="url(#paint22_radial_207_25244)"/>
<path style="mix-blend-mode:color-dodge" d="M75.9802 25.6504C75.9802 29.1004 73.2201 31.9004 69.8101 31.9004C66.4001 31.9004 63.6401 29.1004 63.6401 25.6504C63.6401 22.2004 66.4001 19.4004 69.8101 19.4004C73.2201 19.4004 75.9802 22.2004 75.9802 25.6504Z" fill="url(#paint23_radial_207_25244)"/>
<path style="mix-blend-mode:color-dodge" d="M35.3101 70.8201C43.9534 70.8201 50.9601 63.7148 50.9601 54.9501C50.9601 46.1853 43.9534 39.0801 35.3101 39.0801C26.6669 39.0801 19.6602 46.1853 19.6602 54.9501C19.6602 63.7148 26.6669 70.8201 35.3101 70.8201Z" fill="url(#paint24_radial_207_25244)"/>
<path style="mix-blend-mode:color-dodge" d="M66.57 121.11C80.5318 121.11 91.85 109.631 91.85 95.4701C91.85 81.3095 80.5318 69.8301 66.57 69.8301C52.6082 69.8301 41.29 81.3095 41.29 95.4701C41.29 109.631 52.6082 121.11 66.57 121.11Z" fill="url(#paint25_radial_207_25244)"/>
<defs>
<linearGradient id="paint0_linear_207_25244" x1="64.6201" y1="154.99" x2="272.32" y2="154.99" gradientUnits="userSpaceOnUse">
<stop stop-color="#3990F9" stop-opacity="0.2"/>
<stop offset="0.07" stop-color="#3990F9" stop-opacity="0.28"/>
<stop offset="0.2" stop-color="#3990F9" stop-opacity="0.49"/>
<stop offset="0.4" stop-color="#3990F9" stop-opacity="0.83"/>
<stop offset="0.49" stop-color="#3990F9"/>
<stop offset="0.76" stop-color="#3990F9" stop-opacity="0.99"/>
<stop offset="0.82" stop-color="#3990F9" stop-opacity="0.81"/>
<stop offset="0.87" stop-color="#3990F9" stop-opacity="0.68"/>
<stop offset="0.92" stop-color="#3990F9" stop-opacity="0.58"/>
<stop offset="0.96" stop-color="#3990F9" stop-opacity="0.52"/>
<stop offset="1" stop-color="#3990F9" stop-opacity="0.5"/>
</linearGradient>
<linearGradient id="paint1_linear_207_25244" x1="85.7501" y1="48.2603" x2="251.19" y2="213.7" gradientUnits="userSpaceOnUse">
<stop stop-color="#3990F9" stop-opacity="0.5"/>
<stop offset="0.03" stop-color="#3990F9" stop-opacity="0.58"/>
<stop offset="0.08" stop-color="#3990F9" stop-opacity="0.79"/>
<stop offset="0.14" stop-color="#3990F9"/>
<stop offset="0.42" stop-color="#3990F9"/>
<stop offset="0.5" stop-color="#3990F9" stop-opacity="0.73"/>
<stop offset="0.6" stop-color="#3990F9" stop-opacity="0.42"/>
<stop offset="0.68" stop-color="#3990F9" stop-opacity="0.19"/>
<stop offset="0.74" stop-color="#3990F9" stop-opacity="0.05"/>
<stop offset="0.77" stop-color="#3990F9" stop-opacity="0"/>
<stop offset="0.83" stop-color="#3990F9" stop-opacity="0.29"/>
<stop offset="0.91" stop-color="#3990F9" stop-opacity="0.67"/>
<stop offset="0.97" stop-color="#3990F9" stop-opacity="0.91"/>
<stop offset="0.99" stop-color="#3990F9"/>
</linearGradient>
<linearGradient id="paint2_linear_207_25244" x1="144.854" y1="106.857" x2="207.548" y2="221.835" gradientUnits="userSpaceOnUse">
<stop stop-color="#3990F9" stop-opacity="0"/>
<stop offset="0.09" stop-color="#3990F9" stop-opacity="0.05"/>
<stop offset="0.26" stop-color="#3990F9" stop-opacity="0.19"/>
<stop offset="0.5" stop-color="#3990F9" stop-opacity="0.42"/>
<stop offset="0.78" stop-color="#3990F9" stop-opacity="0.73"/>
<stop offset="1" stop-color="#3990F9"/>
</linearGradient>
<linearGradient id="paint3_linear_207_25244" x1="137.72" y1="129.33" x2="199.24" y2="190.85" gradientUnits="userSpaceOnUse">
<stop stop-color="#3990F9" stop-opacity="0.5"/>
<stop offset="0.03" stop-color="#3990F9" stop-opacity="0.58"/>
<stop offset="0.08" stop-color="#3990F9" stop-opacity="0.79"/>
<stop offset="0.14" stop-color="#3990F9"/>
<stop offset="0.42" stop-color="#3990F9"/>
<stop offset="0.99" stop-color="#3990F9"/>
</linearGradient>
<radialGradient id="paint4_radial_207_25244" cx="0" cy="0" r="1" gradientUnits="userSpaceOnUse" gradientTransform="translate(130.977 263.442) scale(131.202 3.63329)">
<stop stop-color="white"/>
<stop offset="0.08" stop-color="#CDCDCD" stop-opacity="0.8"/>
<stop offset="0.17" stop-color="#9D9D9D" stop-opacity="0.62"/>
<stop offset="0.26" stop-color="#737373" stop-opacity="0.45"/>
<stop offset="0.36" stop-color="#4F4F4F" stop-opacity="0.31"/>
<stop offset="0.46" stop-color="#323232" stop-opacity="0.2"/>
<stop offset="0.57" stop-color="#1C1C1C" stop-opacity="0.11"/>
<stop offset="0.68" stop-color="#0C0C0C" stop-opacity="0.05"/>
<stop offset="0.82" stop-color="#020202" stop-opacity="0.01"/>
<stop offset="1" stop-opacity="0"/>
</radialGradient>
<radialGradient id="paint5_radial_207_25244" cx="0" cy="0" r="1" gradientUnits="userSpaceOnUse" gradientTransform="translate(130.903 266.774) scale(40.326 29.986)">
<stop stop-color="white"/>
<stop offset="0.15" stop-color="#C4C4C4" stop-opacity="0.77"/>
<stop offset="0.32" stop-color="#898989" stop-opacity="0.54"/>
<stop offset="0.48" stop-color="#585858" stop-opacity="0.35"/>
<stop offset="0.64" stop-color="#323232" stop-opacity="0.2"/>
<stop offset="0.78" stop-color="#161616" stop-opacity="0.09"/>
<stop offset="0.9" stop-color="#050505" stop-opacity="0.02"/>
<stop offset="1" stop-opacity="0"/>
</radialGradient>
<radialGradient id="paint6_radial_207_25244" cx="0" cy="0" r="1" gradientUnits="userSpaceOnUse" gradientTransform="translate(130.903 256.614) scale(30.108 13.317)">
<stop stop-color="#F8F8F8" stop-opacity="0.98"/>
<stop offset="0.09" stop-color="#C5C5C5" stop-opacity="0.77"/>
<stop offset="0.17" stop-color="#969696" stop-opacity="0.59"/>
<stop offset="0.26" stop-color="#6D6D6D" stop-opacity="0.43"/>
<stop offset="0.35" stop-color="#4B4B4B" stop-opacity="0.3"/>
<stop offset="0.45" stop-color="#303030" stop-opacity="0.19"/>
<stop offset="0.55" stop-color="#1A1A1A" stop-opacity="0.1"/>
<stop offset="0.66" stop-color="#0B0B0B" stop-opacity="0.05"/>
<stop offset="0.8" stop-color="#020202" stop-opacity="0.01"/>
<stop offset="1" stop-opacity="0"/>
</radialGradient>
<radialGradient id="paint7_radial_207_25244" cx="0" cy="0" r="1" gradientUnits="userSpaceOnUse" gradientTransform="translate(152.073 281.37) rotate(-45) scale(76.1573 3.4443)">
<stop stop-color="white"/>
<stop offset="0.08" stop-color="#CDCDCD" stop-opacity="0.8"/>
<stop offset="0.17" stop-color="#9D9D9D" stop-opacity="0.62"/>
<stop offset="0.26" stop-color="#737373" stop-opacity="0.45"/>
<stop offset="0.36" stop-color="#4F4F4F" stop-opacity="0.31"/>
<stop offset="0.46" stop-color="#323232" stop-opacity="0.2"/>
<stop offset="0.57" stop-color="#1C1C1C" stop-opacity="0.11"/>
<stop offset="0.68" stop-color="#0C0C0C" stop-opacity="0.05"/>
<stop offset="0.82" stop-color="#020202" stop-opacity="0.01"/>
<stop offset="1" stop-opacity="0"/>
</radialGradient>
<radialGradient id="paint8_radial_207_25244" cx="0" cy="0" r="1" gradientUnits="userSpaceOnUse" gradientTransform="translate(141.977 264.491) rotate(-45) scale(23.52 28.42)">
<stop stop-color="white"/>
<stop offset="0.15" stop-color="#C4C4C4" stop-opacity="0.77"/>
<stop offset="0.32" stop-color="#898989" stop-opacity="0.54"/>
<stop offset="0.48" stop-color="#585858" stop-opacity="0.35"/>
<stop offset="0.64" stop-color="#323232" stop-opacity="0.2"/>
<stop offset="0.78" stop-color="#161616" stop-opacity="0.09"/>
<stop offset="0.9" stop-color="#050505" stop-opacity="0.02"/>
<stop offset="1" stop-opacity="0"/>
</radialGradient>
<radialGradient id="paint9_radial_207_25244" cx="0" cy="0" r="1" gradientUnits="userSpaceOnUse" gradientTransform="translate(132.661 255.159) rotate(-45) scale(17.5584 12.6201)">
<stop stop-color="#F8F8F8" stop-opacity="0.98"/>
<stop offset="0.09" stop-color="#C5C5C5" stop-opacity="0.77"/>
<stop offset="0.17" stop-color="#969696" stop-opacity="0.59"/>
<stop offset="0.26" stop-color="#6D6D6D" stop-opacity="0.43"/>
<stop offset="0.35" stop-color="#4B4B4B" stop-opacity="0.3"/>
<stop offset="0.45" stop-color="#303030" stop-opacity="0.19"/>
<stop offset="0.55" stop-color="#1A1A1A" stop-opacity="0.1"/>
<stop offset="0.66" stop-color="#0B0B0B" stop-opacity="0.05"/>
<stop offset="0.8" stop-color="#020202" stop-opacity="0.01"/>
<stop offset="1" stop-opacity="0"/>
</radialGradient>
<radialGradient id="paint10_radial_207_25244" cx="0" cy="0" r="1" gradientUnits="userSpaceOnUse" gradientTransform="translate(220.576 46.8728) rotate(18.33) scale(80.8976 3.472)">
<stop stop-color="white"/>
<stop offset="0.08" stop-color="#CDCDCD" stop-opacity="0.8"/>
<stop offset="0.17" stop-color="#9D9D9D" stop-opacity="0.62"/>
<stop offset="0.26" stop-color="#737373" stop-opacity="0.45"/>
<stop offset="0.36" stop-color="#4F4F4F" stop-opacity="0.31"/>
<stop offset="0.46" stop-color="#323232" stop-opacity="0.2"/>
<stop offset="0.57" stop-color="#1C1C1C" stop-opacity="0.11"/>
<stop offset="0.68" stop-color="#0C0C0C" stop-opacity="0.05"/>
<stop offset="0.82" stop-color="#020202" stop-opacity="0.01"/>
<stop offset="1" stop-opacity="0"/>
</radialGradient>
<radialGradient id="paint11_radial_207_25244" cx="0" cy="0" r="1" gradientUnits="userSpaceOnUse" gradientTransform="translate(223.138 57.6756) rotate(18.33) scale(35.552 12.8876)">
<stop stop-color="white"/>
<stop offset="0.15" stop-color="#C4C4C4" stop-opacity="0.77"/>
<stop offset="0.32" stop-color="#898989" stop-opacity="0.54"/>
<stop offset="0.48" stop-color="#585858" stop-opacity="0.35"/>
<stop offset="0.64" stop-color="#323232" stop-opacity="0.2"/>
<stop offset="0.78" stop-color="#161616" stop-opacity="0.09"/>
<stop offset="0.9" stop-color="#050505" stop-opacity="0.02"/>
<stop offset="1" stop-opacity="0"/>
</radialGradient>
<radialGradient id="paint12_radial_207_25244" cx="0" cy="0" r="1" gradientUnits="userSpaceOnUse" gradientTransform="translate(220.28 66.6374) rotate(18.34) scale(26.544 5.6406)">
<stop stop-color="#F8F8F8" stop-opacity="0.98"/>
<stop offset="0.09" stop-color="#C5C5C5" stop-opacity="0.77"/>
<stop offset="0.17" stop-color="#969696" stop-opacity="0.59"/>
<stop offset="0.26" stop-color="#6D6D6D" stop-opacity="0.43"/>
<stop offset="0.35" stop-color="#4B4B4B" stop-opacity="0.3"/>
<stop offset="0.45" stop-color="#303030" stop-opacity="0.19"/>
<stop offset="0.55" stop-color="#1A1A1A" stop-opacity="0.1"/>
<stop offset="0.66" stop-color="#0B0B0B" stop-opacity="0.05"/>
<stop offset="0.8" stop-color="#020202" stop-opacity="0.01"/>
<stop offset="1" stop-opacity="0"/>
</radialGradient>
<radialGradient id="paint13_radial_207_25244" cx="0" cy="0" r="1" gradientUnits="userSpaceOnUse" gradientTransform="translate(238.9 163.841) rotate(140.2) scale(133.76 7.67999)">
<stop stop-color="white"/>
<stop offset="0.16" stop-color="#C0C0C0" stop-opacity="0.75"/>
<stop offset="0.32" stop-color="#868686" stop-opacity="0.53"/>
<stop offset="0.48" stop-color="#565656" stop-opacity="0.34"/>
<stop offset="0.63" stop-color="#303030" stop-opacity="0.19"/>
<stop offset="0.77" stop-color="#161616" stop-opacity="0.09"/>
<stop offset="0.9" stop-color="#050505" stop-opacity="0.02"/>
<stop offset="0.99" stop-opacity="0"/>
</radialGradient>
<radialGradient id="paint14_radial_207_25244" cx="0" cy="0" r="1" gradientUnits="userSpaceOnUse" gradientTransform="translate(276.578 196.73) rotate(140.2) scale(59.6505 28.1428)">
<stop stop-color="#F8F8F8" stop-opacity="0.98"/>
<stop offset="0.09" stop-color="#C5C5C5" stop-opacity="0.77"/>
<stop offset="0.17" stop-color="#969696" stop-opacity="0.59"/>
<stop offset="0.26" stop-color="#6D6D6D" stop-opacity="0.43"/>
<stop offset="0.35" stop-color="#4B4B4B" stop-opacity="0.3"/>
<stop offset="0.44" stop-color="#303030" stop-opacity="0.19"/>
<stop offset="0.55" stop-color="#1A1A1A" stop-opacity="0.1"/>
<stop offset="0.66" stop-color="#0B0B0B" stop-opacity="0.05"/>
<stop offset="0.8" stop-color="#020202" stop-opacity="0.01"/>
<stop offset="1" stop-opacity="0"/>
</radialGradient>
<radialGradient id="paint15_radial_207_25244" cx="0" cy="0" r="1" gradientUnits="userSpaceOnUse" gradientTransform="translate(242.411 164.344) rotate(140.2) scale(103.015 23.2252)">
<stop stop-color="#F8F8F8" stop-opacity="0.98"/>
<stop offset="0.09" stop-color="#C5C5C5" stop-opacity="0.77"/>
<stop offset="0.17" stop-color="#969696" stop-opacity="0.59"/>
<stop offset="0.26" stop-color="#6D6D6D" stop-opacity="0.43"/>
<stop offset="0.35" stop-color="#4B4B4B" stop-opacity="0.3"/>
<stop offset="0.44" stop-color="#303030" stop-opacity="0.19"/>
<stop offset="0.55" stop-color="#1A1A1A" stop-opacity="0.1"/>
<stop offset="0.66" stop-color="#0B0B0B" stop-opacity="0.05"/>
<stop offset="0.8" stop-color="#020202" stop-opacity="0.01"/>
<stop offset="1" stop-opacity="0"/>
</radialGradient>
<radialGradient id="paint16_radial_207_25244" cx="0" cy="0" r="1" gradientUnits="userSpaceOnUse" gradientTransform="translate(238.9 163.841) rotate(140.2) scale(133.76 7.67999)">
<stop stop-color="white"/>
<stop offset="0.16" stop-color="#C0C0C0" stop-opacity="0.75"/>
<stop offset="0.32" stop-color="#868686" stop-opacity="0.53"/>
<stop offset="0.48" stop-color="#565656" stop-opacity="0.34"/>
<stop offset="0.63" stop-color="#303030" stop-opacity="0.19"/>
<stop offset="0.77" stop-color="#161616" stop-opacity="0.09"/>
<stop offset="0.9" stop-color="#050505" stop-opacity="0.02"/>
<stop offset="0.99" stop-opacity="0"/>
</radialGradient>
<radialGradient id="paint17_radial_207_25244" cx="0" cy="0" r="1" gradientUnits="userSpaceOnUse" gradientTransform="translate(276.578 196.73) rotate(140.2) scale(59.6505 28.1428)">
<stop stop-color="#F8F8F8" stop-opacity="0.98"/>
<stop offset="0.09" stop-color="#C5C5C5" stop-opacity="0.77"/>
<stop offset="0.17" stop-color="#969696" stop-opacity="0.59"/>
<stop offset="0.26" stop-color="#6D6D6D" stop-opacity="0.43"/>
<stop offset="0.35" stop-color="#4B4B4B" stop-opacity="0.3"/>
<stop offset="0.44" stop-color="#303030" stop-opacity="0.19"/>
<stop offset="0.55" stop-color="#1A1A1A" stop-opacity="0.1"/>
<stop offset="0.66" stop-color="#0B0B0B" stop-opacity="0.05"/>
<stop offset="0.8" stop-color="#020202" stop-opacity="0.01"/>
<stop offset="1" stop-opacity="0"/>
</radialGradient>
<radialGradient id="paint18_radial_207_25244" cx="0" cy="0" r="1" gradientUnits="userSpaceOnUse" gradientTransform="translate(242.411 164.344) rotate(140.2) scale(103.015 23.2252)">
<stop stop-color="#F8F8F8" stop-opacity="0.98"/>
<stop offset="0.09" stop-color="#C5C5C5" stop-opacity="0.77"/>
<stop offset="0.17" stop-color="#969696" stop-opacity="0.59"/>
<stop offset="0.26" stop-color="#6D6D6D" stop-opacity="0.43"/>
<stop offset="0.35" stop-color="#4B4B4B" stop-opacity="0.3"/>
<stop offset="0.44" stop-color="#303030" stop-opacity="0.19"/>
<stop offset="0.55" stop-color="#1A1A1A" stop-opacity="0.1"/>
<stop offset="0.66" stop-color="#0B0B0B" stop-opacity="0.05"/>
<stop offset="0.8" stop-color="#020202" stop-opacity="0.01"/>
<stop offset="1" stop-opacity="0"/>
</radialGradient>
<radialGradient id="paint19_radial_207_25244" cx="0" cy="0" r="1" gradientUnits="userSpaceOnUse" gradientTransform="translate(97.6074 58.577) scale(31.4295 31.7028)">
<stop stop-color="white"/>
<stop offset="0.15" stop-color="#C4C4C4" stop-opacity="0.77"/>
<stop offset="0.32" stop-color="#898989" stop-opacity="0.54"/>
<stop offset="0.48" stop-color="#585858" stop-opacity="0.35"/>
<stop offset="0.64" stop-color="#323232" stop-opacity="0.2"/>
<stop offset="0.78" stop-color="#161616" stop-opacity="0.09"/>
<stop offset="0.9" stop-color="#050505" stop-opacity="0.02"/>
<stop offset="1" stop-opacity="0"/>
</radialGradient>
<radialGradient id="paint20_radial_207_25244" cx="0" cy="0" r="1" gradientUnits="userSpaceOnUse" gradientTransform="translate(34.7137 20.4588) scale(9.591 9.6744)">
<stop stop-color="white"/>
<stop offset="0.15" stop-color="#C4C4C4" stop-opacity="0.77"/>
<stop offset="0.32" stop-color="#898989" stop-opacity="0.54"/>
<stop offset="0.48" stop-color="#585858" stop-opacity="0.35"/>
<stop offset="0.64" stop-color="#323232" stop-opacity="0.2"/>
<stop offset="0.78" stop-color="#161616" stop-opacity="0.09"/>
<stop offset="0.9" stop-color="#050505" stop-opacity="0.02"/>
<stop offset="1" stop-opacity="0"/>
</radialGradient>
<radialGradient id="paint21_radial_207_25244" cx="0" cy="0" r="1" gradientUnits="userSpaceOnUse" gradientTransform="translate(75.3202 74.6068) scale(13.869 13.9896)">
<stop stop-color="white"/>
<stop offset="0.15" stop-color="#C4C4C4" stop-opacity="0.77"/>
<stop offset="0.32" stop-color="#898989" stop-opacity="0.54"/>
<stop offset="0.48" stop-color="#585858" stop-opacity="0.35"/>
<stop offset="0.64" stop-color="#323232" stop-opacity="0.2"/>
<stop offset="0.78" stop-color="#161616" stop-opacity="0.09"/>
<stop offset="0.9" stop-color="#050505" stop-opacity="0.02"/>
<stop offset="1" stop-opacity="0"/>
</radialGradient>
<radialGradient id="paint22_radial_207_25244" cx="0" cy="0" r="1" gradientUnits="userSpaceOnUse" gradientTransform="translate(85.5781 24.7401) scale(8.9355 9.01319)">
<stop stop-color="white"/>
<stop offset="0.15" stop-color="#C4C4C4" stop-opacity="0.77"/>
<stop offset="0.32" stop-color="#898989" stop-opacity="0.54"/>
<stop offset="0.48" stop-color="#585858" stop-opacity="0.35"/>
<stop offset="0.64" stop-color="#323232" stop-opacity="0.2"/>
<stop offset="0.78" stop-color="#161616" stop-opacity="0.09"/>
<stop offset="0.9" stop-color="#050505" stop-opacity="0.02"/>
<stop offset="1" stop-opacity="0"/>
</radialGradient>
<radialGradient id="paint23_radial_207_25244" cx="0" cy="0" r="1" gradientUnits="userSpaceOnUse" gradientTransform="translate(71.8702 36.3744) scale(6.18701 6.2408)">
<stop stop-color="white"/>
<stop offset="0.15" stop-color="#C4C4C4" stop-opacity="0.77"/>
<stop offset="0.32" stop-color="#898989" stop-opacity="0.54"/>
<stop offset="0.48" stop-color="#585858" stop-opacity="0.35"/>
<stop offset="0.64" stop-color="#323232" stop-opacity="0.2"/>
<stop offset="0.78" stop-color="#161616" stop-opacity="0.09"/>
<stop offset="0.9" stop-color="#050505" stop-opacity="0.02"/>
<stop offset="1" stop-opacity="0"/>
</radialGradient>
<radialGradient id="paint24_radial_207_25244" cx="0" cy="0" r="1" gradientUnits="userSpaceOnUse" gradientTransform="translate(37.2551 65.5945) scale(15.6975 15.834)">
<stop stop-color="white"/>
<stop offset="0.15" stop-color="#C4C4C4" stop-opacity="0.77"/>
<stop offset="0.32" stop-color="#898989" stop-opacity="0.54"/>
<stop offset="0.48" stop-color="#585858" stop-opacity="0.35"/>
<stop offset="0.64" stop-color="#323232" stop-opacity="0.2"/>
<stop offset="0.78" stop-color="#161616" stop-opacity="0.09"/>
<stop offset="0.9" stop-color="#050505" stop-opacity="0.02"/>
<stop offset="1" stop-opacity="0"/>
</radialGradient>
<radialGradient id="paint25_radial_207_25244" cx="0" cy="0" r="1" gradientUnits="userSpaceOnUse" gradientTransform="translate(68.6155 106.02) scale(25.3575 25.578)">
<stop stop-color="white"/>
<stop offset="0.15" stop-color="#C4C4C4" stop-opacity="0.77"/>
<stop offset="0.32" stop-color="#898989" stop-opacity="0.54"/>
<stop offset="0.48" stop-color="#585858" stop-opacity="0.35"/>
<stop offset="0.64" stop-color="#323232" stop-opacity="0.2"/>
<stop offset="0.78" stop-color="#161616" stop-opacity="0.09"/>
<stop offset="0.9" stop-color="#050505" stop-opacity="0.02"/>
<stop offset="1" stop-opacity="0"/>
</radialGradient>
</defs>
</svg>
