<svg width="116" height="24" viewBox="0 0 116 24" fill="none" xmlns="http://www.w3.org/2000/svg">
<path d="M28.6954 17.2465C28.5732 17.2465 28.4732 17.2084 28.3955 17.1321C28.3178 17.0558 28.2789 16.9578 28.2789 16.8379V6.21215C28.2789 6.09224 28.3178 5.99416 28.3955 5.9179C28.4732 5.84164 28.5732 5.80347 28.6954 5.80347H30.8945C31.0055 5.80347 31.1 5.84164 31.1777 5.9179C31.2666 5.99416 31.311 6.09224 31.311 6.21215V14.7781H36.3422C36.4644 14.7781 36.5644 14.8217 36.6421 14.9089C36.731 14.9851 36.7754 15.0832 36.7754 15.2031V16.8379C36.7754 16.9578 36.731 17.0558 36.6421 17.1321C36.5644 17.2084 36.4644 17.2465 36.3422 17.2465H28.6954ZM42.8893 17.41C41.8897 17.41 41.0123 17.252 40.257 16.9359C39.5129 16.609 38.9353 16.1131 38.5244 15.4483C38.1135 14.7726 37.908 13.9172 37.908 12.8818V6.21215C37.908 6.09224 37.9469 5.99416 38.0246 5.9179C38.1023 5.84164 38.2023 5.80347 38.3245 5.80347H40.4736C40.5958 5.80347 40.6957 5.84164 40.7735 5.9179C40.8512 5.99416 40.8901 6.09224 40.8901 6.21215V12.8655C40.8901 13.5739 41.0623 14.1079 41.4065 14.4675C41.762 14.8163 42.2562 14.9906 42.8893 14.9906C43.5112 14.9906 43.9944 14.8163 44.3387 14.4675C44.6941 14.1079 44.8718 13.5739 44.8718 12.8655V6.21215C44.8718 6.09224 44.9107 5.99416 44.9884 5.9179C45.0773 5.84164 45.1772 5.80347 45.2883 5.80347H47.454C47.5651 5.80347 47.6595 5.84164 47.7372 5.9179C47.8261 5.99416 47.8705 6.09224 47.8705 6.21215V12.8818C47.8705 13.9172 47.665 14.7726 47.2541 15.4483C46.8432 16.1131 46.2656 16.609 45.5215 16.9359C44.7774 17.252 43.8999 17.41 42.8893 17.41ZM50.4963 17.2465C50.3741 17.2465 50.2741 17.2084 50.1964 17.1321C50.1186 17.0558 50.0798 16.9578 50.0798 16.8379V6.21215C50.0798 6.09224 50.1186 5.99416 50.1964 5.9179C50.2741 5.84164 50.3741 5.80347 50.4963 5.80347H58.1431C58.2652 5.80347 58.3652 5.84164 58.443 5.9179C58.5318 5.99416 58.5762 6.09224 58.5762 6.21215V7.86322C58.5762 7.98313 58.5318 8.08121 58.443 8.15747C58.3652 8.23373 58.2652 8.2719 58.1431 8.2719H53.0119V10.6749H57.8099C57.932 10.6749 58.032 10.7185 58.1098 10.8057C58.1986 10.882 58.2431 10.9801 58.2431 11.1V12.7347C58.2431 12.8437 58.1986 12.9417 58.1098 13.0289C58.032 13.1052 57.932 13.1434 57.8099 13.1434H53.0119V16.8379C53.0119 16.9578 52.973 17.0558 52.8953 17.1321C52.8175 17.2084 52.7175 17.2465 52.5954 17.2465H50.4963ZM60.7787 17.2465C60.6563 17.2465 60.5563 17.2084 60.4789 17.1321C60.4008 17.0558 60.3619 16.9578 60.3619 16.8379V6.21215C60.3619 6.09224 60.4008 5.99416 60.4789 5.9179C60.5563 5.84164 60.6563 5.80347 60.7787 5.80347H68.4256C68.5472 5.80347 68.6472 5.84164 68.7255 5.9179C68.8137 5.99416 68.8587 6.09224 68.8587 6.21215V7.86322C68.8587 7.98313 68.8137 8.08121 68.7255 8.15747C68.6472 8.23373 68.5472 8.2719 68.4256 8.2719H63.2944V10.6749H68.0924C68.214 10.6749 68.314 10.7185 68.3923 10.8057C68.4806 10.882 68.5255 10.9801 68.5255 11.1V12.7347C68.5255 12.8437 68.4806 12.9417 68.3923 13.0289C68.314 13.1052 68.214 13.1434 68.0924 13.1434H63.2944V16.8379C63.2944 16.9578 63.2552 17.0558 63.1777 17.1321C63.0994 17.2084 62.9995 17.2465 62.8779 17.2465H60.7787ZM74.0591 17.2465C73.9483 17.2465 73.8483 17.2084 73.7592 17.1321C73.6817 17.0558 73.6426 16.9578 73.6426 16.8379V13.3232L69.7775 6.32658C69.7667 6.29389 69.7559 6.26667 69.7442 6.24484C69.7334 6.21215 69.7275 6.17945 69.7275 6.14676C69.7275 6.05955 69.7609 5.98329 69.8275 5.9179C69.9058 5.84164 69.9941 5.80347 70.094 5.80347H72.1765C72.3431 5.80347 72.4714 5.84703 72.5597 5.93424C72.6596 6.0105 72.7213 6.08137 72.743 6.14676L75.142 10.3643L77.541 6.14676C77.5743 6.08137 77.6359 6.0105 77.7242 5.93424C77.8242 5.84703 77.9575 5.80347 78.1241 5.80347H80.2065C80.3065 5.80347 80.3898 5.84164 80.4564 5.9179C80.5231 5.98329 80.5564 6.05955 80.5564 6.14676C80.5564 6.17945 80.5514 6.21215 80.5397 6.24484C80.5397 6.26667 80.5347 6.29389 80.5231 6.32658L76.6413 13.3232V16.8379C76.6413 16.9578 76.603 17.0558 76.5247 17.1321C76.4472 17.2084 76.3473 17.2465 76.2248 17.2465H74.0591Z" fill="white"/>
<path d="M87.499 17.41C87.3148 17.41 87.1681 17.3603 87.0588 17.2608C86.9504 17.1613 86.8746 17.0452 86.8306 16.9126L83.5046 6.30089C83.4835 6.24559 83.472 6.19585 83.472 6.15166C83.472 6.0632 83.5046 5.98586 83.5699 5.91953C83.6465 5.84218 83.7329 5.80347 83.8307 5.80347H85.8524C86.0268 5.80347 86.1621 5.85321 86.26 5.95269C86.3578 6.05218 86.4181 6.14611 86.4393 6.23457L88.7381 13.8949L91.0532 6.23457C91.0858 6.14611 91.1462 6.05218 91.2326 5.95269C91.3304 5.85321 91.4665 5.80347 91.6402 5.80347H93.6618C93.7596 5.80347 93.8412 5.84218 93.9064 5.91953C93.983 5.98586 94.0205 6.0632 94.0205 6.15166C94.0205 6.19585 94.0099 6.24559 93.9879 6.30089L90.6619 16.9126C90.6187 17.0452 90.5429 17.1613 90.4337 17.2608C90.3359 17.3603 90.1891 17.41 89.9935 17.41H87.499ZM95.9508 17.41C95.831 17.41 95.7332 17.3713 95.6574 17.2939C95.5808 17.2166 95.5433 17.1171 95.5433 16.9955V6.21799C95.5433 6.09637 95.5808 5.99688 95.6574 5.91953C95.7332 5.84218 95.831 5.80347 95.9508 5.80347H100.516C101.417 5.80347 102.2 5.94714 102.864 6.23457C103.537 6.51089 104.059 6.93096 104.429 7.49471C104.809 8.05845 104.999 8.77143 104.999 9.63363C104.999 10.4848 104.809 11.1867 104.429 11.7394C104.059 12.2921 103.537 12.7011 102.864 12.9664C102.2 13.2317 101.417 13.3643 100.516 13.3643H98.5757V16.9955C98.5757 17.1171 98.5317 17.2166 98.4453 17.2939C98.3687 17.3713 98.2709 17.41 98.1518 17.41H95.9508ZM98.5268 11.0762H100.434C100.901 11.0762 101.271 10.9545 101.543 10.7114C101.825 10.4682 101.967 10.0979 101.967 9.60046C101.967 9.18039 101.847 8.82672 101.608 8.5393C101.369 8.25187 100.977 8.1082 100.434 8.1082H98.5268V11.0762ZM106.968 17.41C106.849 17.41 106.751 17.3713 106.675 17.2939C106.599 17.2166 106.56 17.1171 106.56 16.9955V6.21799C106.56 6.09637 106.599 5.99688 106.675 5.91953C106.751 5.84218 106.849 5.80347 106.968 5.80347H108.696C108.881 5.80347 109.012 5.84765 109.088 5.93611C109.175 6.01346 109.229 6.07431 109.251 6.1185L113.229 12.5021V6.21799C113.229 6.09637 113.267 5.99688 113.343 5.91953C113.419 5.84218 113.517 5.80347 113.636 5.80347H115.593C115.712 5.80347 115.81 5.84218 115.886 5.91953C115.963 5.99688 116 6.09637 116 6.21799V16.9955C116 17.106 115.963 17.2055 115.886 17.2939C115.81 17.3713 115.712 17.41 115.593 17.41H113.848C113.675 17.41 113.544 17.3658 113.457 17.2774C113.381 17.1889 113.332 17.1281 113.31 17.095L109.332 10.9601V16.9955C109.332 17.1171 109.295 17.2166 109.218 17.2939C109.142 17.3713 109.044 17.41 108.924 17.41H106.968Z" fill="url(#paint0_linear_601_900)"/>
<mask id="mask0_601_900" style="mask-type:luminance" maskUnits="userSpaceOnUse" x="0" y="0" width="24" height="24">
<path d="M23.632 0H0V24H23.632V0Z" fill="white"/>
</mask>
<g mask="url(#mask0_601_900)">
<path d="M23.3121 23.3548C22.8011 22.8485 22.4572 22.2289 22.1051 21.6129C21.8566 21.1786 21.6951 20.6911 21.3304 20.3267C21.2388 20.2349 21.1387 20.1488 21.0611 20.0464C20.7913 19.6894 20.523 19.3303 20.2667 18.9634C20.1135 18.7451 19.988 18.5077 19.8411 18.2842C19.7036 18.076 19.5759 17.8547 19.4056 17.6751C19.0961 17.3478 18.756 17.0502 18.4335 16.7349C18.2298 16.535 18.098 16.3043 18.1022 15.9995C18.1063 15.6941 18.1204 15.6487 18.408 15.5422C18.4809 15.515 18.5564 15.4953 18.6288 15.4666C18.6913 15.442 18.7502 15.4096 18.7607 15.4044C18.5096 15.359 18.2173 15.3533 17.9662 15.2484C17.6344 15.1095 17.3322 14.8975 17.0233 14.7076C16.8982 14.6314 16.7821 14.5379 16.6742 14.4382C16.407 14.1913 16.1492 13.935 15.8845 13.6855C15.5522 13.3718 15.2068 13.0732 14.9864 12.6572C14.7916 12.2902 14.9348 11.9702 15.3459 11.8789C15.6506 11.811 15.9507 11.7234 16.2528 11.644C16.2518 11.6221 16.2512 11.6002 16.2508 11.5777C16.0856 11.5678 15.9194 11.5652 15.7548 11.5458C15.4573 11.5109 15.1609 11.4676 14.865 11.4237C14.8349 11.4191 14.801 11.3919 14.7822 11.3658C14.6562 11.1915 14.5364 11.0119 14.4092 10.838C14.2712 10.6496 14.2592 10.4476 14.366 10.2503C14.5144 9.97835 14.6593 9.6996 14.8463 9.4553C15.1625 9.044 15.4672 8.6055 15.8564 8.27195C16.3862 7.8173 16.991 7.45035 17.5646 7.04735C17.6068 7.0176 17.663 7.0072 17.7031 6.97585C17.9589 6.77385 18.2538 6.6037 18.4564 6.3568C18.807 5.93135 19.0899 5.4506 19.4181 5.00535C19.7207 4.59455 20.0343 4.19055 20.3636 3.8001C20.8251 3.25199 21.3518 2.75871 21.6685 2.09474C21.8014 1.81495 21.9879 1.55918 22.166 1.30341C22.4692 0.86859 22.7849 0.442125 23.1037 0C23.0657 0.00835 23.0365 0.00678499 23.0193 0.02036C22.5176 0.41707 21.9795 0.77724 21.5258 1.22354C20.97 1.77007 20.4162 2.2576 19.603 2.36722C19.2456 2.41524 18.9513 2.63134 18.7492 2.95445C18.6866 3.05468 18.5908 3.13767 18.4986 3.21545C18.0683 3.57825 17.5979 3.9024 17.2103 4.3064C16.8384 4.6937 16.4508 4.90515 15.9085 4.85345C15.6131 4.82525 15.3115 4.866 15.0479 4.87485C14.8776 5.2606 14.7504 5.6025 14.5791 5.9209C14.3983 6.25655 14.1899 6.5854 13.8476 6.78535C13.4616 7.0103 13.0407 7.134 12.5969 7.18205C12.3958 7.20395 12.1937 7.2452 12.0796 7.43575C11.903 7.73015 11.7399 8.0329 11.5711 8.3325C11.5248 8.415 11.48 8.4985 11.443 8.56585C11.1419 8.6436 10.9137 8.52875 10.7136 8.34815C10.3605 8.02925 10.0057 7.71185 9.67024 7.3752C9.57439 7.2786 9.49934 7.1215 9.48896 6.9863C9.45298 6.5233 9.20762 6.23515 8.80179 6.0582C8.48977 5.9225 8.19127 5.77005 7.97301 5.4929C7.92715 5.43495 7.8537 5.3812 7.78339 5.3629C7.43225 5.2726 7.26503 5.0205 7.14103 4.70365C7.10096 4.6008 6.9832 4.4844 6.88061 4.45935C6.5628 4.3826 6.23565 4.31005 5.91111 4.3059C5.62823 4.30225 5.38966 4.20985 5.1427 4.1065C4.97444 4.0355 4.88642 3.93525 4.89006 3.73275C4.8937 3.48479 4.78847 3.24938 4.54416 3.17108C4.05449 3.01501 3.57471 2.85058 3.18085 2.50346C3.09387 2.42672 2.98549 2.35522 2.93809 2.25656C2.77242 1.91309 2.63854 1.55448 2.47292 1.21101C2.38849 1.0351 2.29733 0.83257 2.14943 0.722955C1.69409 0.38575 1.16066 0.235415 0.596475 0.20671C0.525627 0.203055 0.452699 0.248465 0.380809 0.27091C0.380809 0.292315 0.380285 0.313715 0.379766 0.335115C0.475618 0.38836 0.567304 0.449955 0.667327 0.4938C1.02055 0.64831 1.28726 0.92966 1.41071 1.26008C1.70607 2.05141 2.06759 2.83387 2.0603 3.70875C2.05771 4.09815 2.25826 4.35235 2.57083 4.5575C2.90945 4.77935 3.26109 4.997 3.55125 5.2747C4.03259 5.73455 4.44052 6.25185 4.39311 6.98945C4.38632 7.09645 4.44361 7.2353 4.51866 7.31465C4.83956 7.65445 5.1693 7.98695 5.51311 8.3038C6.08511 8.83155 6.58884 9.43285 7.25515 9.86195C7.49217 10.0149 7.67396 10.278 7.83284 10.5227C7.93603 10.681 7.98443 10.8949 7.99591 11.0876C8.00684 11.2677 8.05998 11.3955 8.17929 11.5229C8.29232 11.643 8.4502 11.7505 8.41681 11.9802C8.27725 12.0632 8.12825 12.1482 7.98239 12.239C7.80265 12.3513 7.71148 12.4859 7.81148 12.7146C7.89067 12.8958 7.91727 13.0993 7.98548 13.2857C8.03498 13.4214 8.01103 13.5237 7.90944 13.613C7.82506 13.687 7.74482 13.7748 7.64686 13.8233C7.04103 14.125 6.42891 14.4064 5.73606 14.4481C5.46989 14.4643 5.20578 14.5218 4.94061 14.5604C4.93747 14.5818 4.93437 14.6037 4.93173 14.6256C5.42454 14.8543 5.78815 15.2086 6.02103 15.7024C5.98406 15.7489 5.95592 15.7928 5.91944 15.8283C5.58446 16.1519 5.24899 16.4756 4.91092 16.7966C4.84839 16.8561 4.76816 16.8968 4.70668 16.9573C4.5728 17.0905 4.4254 17.2157 4.32016 17.3697C3.93309 17.9361 3.4559 18.3823 2.80057 18.6183C2.60785 18.6877 2.42392 18.7817 2.24683 18.8594C2.21714 20.9093 1.33047 22.5457 0 24C0.215147 23.9207 0.40998 23.8278 0.575118 23.6973C1.03616 23.3329 1.45916 22.9242 2.00666 22.6721C2.20616 22.5807 2.39738 22.3918 2.50626 22.1986C2.73495 21.7936 3.07561 21.6129 3.50595 21.5409C3.58823 21.5273 3.68094 21.5101 3.74506 21.4626C3.94611 21.3123 4.14671 21.1583 4.32744 20.9844C4.75204 20.5768 5.17294 20.1644 5.58082 19.7395C5.85537 19.4529 6.1127 19.1481 6.3633 18.8402C6.75137 18.3625 7.12127 17.8703 7.51144 17.3948C7.66877 17.2027 7.89696 17.1521 8.16417 17.1744C8.2267 17.8081 8.18658 18.4241 8.03239 19.0886C8.09386 19.0233 8.11782 19.0082 8.1267 18.9868C8.15429 18.9231 8.18034 18.8584 8.19855 18.7921C8.43508 17.9439 8.80339 17.1536 9.23627 16.392C9.27429 16.3247 9.32169 16.2578 9.37953 16.2088C9.76605 15.8784 10.1213 15.5166 10.5532 15.2316C10.8996 15.0025 11.2377 14.8496 11.6488 14.8188C11.8655 14.8026 12.0405 14.8527 12.1989 14.9895C12.9574 15.6466 13.4788 16.4223 13.4517 17.4799C13.4486 17.5968 13.4908 17.7153 13.5122 17.8327C13.6883 17.5326 13.8107 17.236 13.9497 16.9474C14.0498 16.7391 14.179 16.6833 14.343 16.7918C15.0192 17.2387 15.5897 17.7638 15.6053 18.6632C15.6053 18.6825 15.6298 18.7018 15.6438 18.7227C15.7569 18.6465 15.8558 18.5556 15.9721 18.5071C16.1101 18.4497 16.2882 18.3599 16.4054 18.4032C16.905 18.588 17.4359 18.7483 17.8646 19.0484C18.2887 19.3449 18.6398 19.7703 18.9597 20.1884C19.6462 21.0858 20.4464 21.8306 21.4695 22.3249C21.6612 22.4178 21.8269 22.5656 22.003 22.6898C22.537 23.0672 23.0704 23.4452 23.6038 23.823C23.6132 23.8179 23.6226 23.8121 23.632 23.8069C23.5267 23.655 23.4413 23.4827 23.3121 23.3548ZM22.5776 22.9649C22.4057 22.8302 22.2348 22.694 22.0608 22.5609C21.8561 22.4037 21.6665 22.2148 21.4398 22.1005C20.6152 21.687 19.9874 21.0534 19.3967 20.3638C19.0367 19.9436 18.6335 19.5605 18.2543 19.1565C17.9594 18.8423 17.6323 18.5823 17.2207 18.4351C16.7733 18.2749 16.3258 18.1709 15.8637 18.3458C15.6522 17.5237 15.0864 17.021 14.3988 16.6301C14.2295 16.5335 14.0435 16.5601 13.8852 16.6817C13.7987 16.7475 13.7216 16.8258 13.6341 16.9041C13.5367 15.8393 12.8959 15.1554 12.0775 14.5938C11.8576 14.4429 11.6138 14.5087 11.3987 14.5729C11.146 14.6486 10.9095 14.7854 10.6756 14.9132C10.4933 15.0124 10.3282 15.1413 10.1526 15.2535C9.61031 15.6001 9.15189 16.0115 8.91536 16.6425C8.80493 16.9369 8.61272 17.2006 8.44027 17.5096C8.41736 17.3969 8.40434 17.3222 8.38712 17.2481C8.29077 16.8342 7.90474 16.6588 7.5797 16.9291C7.26348 17.1922 6.92641 17.4845 6.73994 17.8389C6.35546 18.5687 5.83611 19.1674 5.24899 19.7255C4.7463 20.2031 4.25868 20.6953 3.75859 21.175C3.69606 21.235 3.60125 21.2815 3.51583 21.2935C3.01259 21.3645 2.62502 21.5832 2.38281 22.0577C2.3109 22.1986 2.14314 22.3176 1.99209 22.3839C1.66804 22.5259 1.38571 22.7122 1.15443 22.9795C1.12469 23.0135 1.07833 23.0333 1.00074 23.0865C1.7905 21.8066 2.52188 20.5596 2.46509 19.0088C2.59687 18.9524 2.73599 18.885 2.8808 18.8333C3.48768 18.6157 3.95499 18.2398 4.33059 17.7048C4.56971 17.3645 4.9203 17.104 5.21565 16.8028C5.51261 16.5011 5.80173 16.1921 6.09658 15.8888C6.21325 15.7693 6.21485 15.643 6.12837 15.5114C5.9632 15.2604 5.79389 15.0124 5.61939 14.7525C5.66889 14.7399 5.71735 14.7195 5.7663 14.7174C6.61748 14.6799 7.35206 14.338 8.02041 13.8337C8.2522 13.6583 8.28867 13.3896 8.26731 13.1259C8.24855 12.8958 8.18189 12.6697 8.13239 12.4223C8.26213 12.3231 8.41996 12.2171 8.56008 12.0913C8.76641 11.906 8.78981 11.7949 8.62784 11.573C8.45119 11.3303 8.36108 11.0777 8.3017 10.779C8.19177 10.2278 7.77506 9.8588 7.37287 9.49915C7.30984 9.4428 7.2312 9.40365 7.15201 9.35195C7.26558 8.9161 7.37601 8.49065 7.48694 8.06575C7.47187 8.06005 7.45675 8.0543 7.44163 8.04855C7.29108 8.42385 7.14103 8.79915 6.9832 9.19325C6.78006 9.02725 6.57687 8.8618 6.33934 8.66865C6.50237 8.2756 6.67168 7.86635 6.84153 7.45765C6.81753 7.44615 6.79413 7.43415 6.77013 7.4227C6.67587 7.60485 6.57946 7.78545 6.4883 7.9692C6.39663 8.15295 6.31015 8.3398 6.20442 8.5606C6.03042 8.31945 6.30861 8.0929 6.16949 7.8074C6.07158 7.9859 5.99758 8.11955 5.90332 8.29125C5.7668 8.16285 5.6173 8.03965 5.48916 7.8977C5.31565 7.70405 5.14535 7.50465 4.99894 7.2906C4.90932 7.1591 4.85259 6.99935 4.80618 6.84485C4.59001 6.12815 4.32435 5.45115 3.64711 5.0257C3.42885 4.88895 3.24233 4.7 3.04228 4.534C2.84957 4.37425 2.66199 4.20775 2.46404 4.0548C2.33435 3.9546 2.26764 3.84025 2.29733 3.6748C2.36664 3.29166 2.26035 2.92835 2.13431 2.57914C1.93685 2.03367 1.70712 1.50072 1.4654 0.89782C1.74409 1.00431 1.92747 1.14994 2.08845 1.31802C2.42757 1.67193 2.70057 2.06707 2.8334 2.552C2.91883 2.86415 3.18344 2.9863 3.46687 3.07138C3.72316 3.14812 3.98623 3.20867 4.23054 3.31411C4.32744 3.35587 4.44416 3.49889 4.44361 3.59545C4.44156 3.96555 4.70359 4.0955 4.96561 4.19155C5.4657 4.3748 5.95956 4.5977 6.51434 4.57785C6.58365 4.57575 6.66803 4.63995 6.72482 4.6953C6.84827 4.81535 6.95975 4.94795 7.07332 5.0774C7.20929 5.2319 7.32546 5.40935 7.48125 5.53935C7.67865 5.70325 7.90579 5.83165 8.12251 5.97205C8.34755 6.1172 8.60439 6.2268 8.79296 6.409C8.97215 6.5828 9.118 6.81455 9.21441 7.04735C9.44724 7.6127 9.80777 8.0637 10.3162 8.3894C10.6043 8.57365 10.8741 8.8002 11.2502 8.81065C11.6138 8.82055 11.6805 8.75845 11.829 8.42855C11.9686 8.11695 12.1457 7.80845 12.3697 7.55525C12.4869 7.42215 12.7365 7.39085 12.9339 7.34855C13.3861 7.25095 13.8424 7.1481 14.1764 6.80935C14.404 6.5786 14.5926 6.30195 14.7619 6.02325C14.9302 5.74605 15.0526 5.4412 15.2011 5.13585C15.5006 5.13585 15.7772 5.12435 16.0523 5.13845C16.3998 5.1562 16.6868 5.0633 16.9483 4.81585C17.5833 4.2156 18.2335 3.6299 18.8888 3.0505C19.1545 2.81508 19.4436 2.60629 19.8213 2.57393C20.3516 2.52904 20.7563 2.24298 21.1236 1.88125C21.3794 1.62965 21.6461 1.38953 21.9472 1.17186C21.8884 1.3128 21.8415 1.46053 21.7675 1.59311C21.3185 2.39906 20.771 3.12828 20.1062 3.77135C19.8906 3.98015 19.7239 4.2422 19.5504 4.49065C19.3128 4.83155 19.1081 5.1969 18.8565 5.5263C18.4902 6.00495 18.1032 6.4455 17.5927 6.8104C16.7665 7.40025 15.8079 7.83765 15.1844 8.688C14.8286 9.17345 14.3827 9.5952 14.1847 10.1945C14.0451 10.6157 14.1467 10.9571 14.404 11.2823C14.4519 11.3434 14.5212 11.3945 14.5494 11.4634C14.6197 11.6362 14.7541 11.6842 14.9203 11.6952C14.9953 11.6999 15.0692 11.7155 15.1661 11.7296C14.691 11.9948 14.6572 12.1227 14.8046 12.6499C14.8968 12.9777 15.0598 13.2569 15.2724 13.5106C15.3532 13.6072 15.4725 13.6714 15.5756 13.7486C15.7507 13.8812 15.9621 13.9846 16.0939 14.1517C16.3127 14.4299 16.5544 14.6559 16.866 14.8292C17.2488 15.0422 17.6078 15.2984 17.9808 15.538C17.9626 15.715 17.9474 15.9035 17.9235 16.0903C17.8839 16.3983 18.023 16.628 18.2387 16.8211C18.9044 17.4172 19.5296 18.0399 19.9286 18.8652C20.1901 19.407 20.5954 19.8523 21.0246 20.2735C21.17 20.4165 21.2825 20.5993 21.3867 20.7773C21.5263 21.0168 21.6289 21.2783 21.7732 21.5148C21.9613 21.8243 22.1811 22.1146 22.3744 22.4215C22.4734 22.5781 22.5447 22.753 22.6281 22.9195C22.6114 22.9346 22.5947 22.9497 22.5776 22.9649Z" fill="white"/>
<path d="M22.3743 22.4219C22.1811 22.115 21.9613 21.8247 21.7732 21.5152C21.6289 21.2787 21.5262 21.0172 21.3866 20.7776C21.2825 20.5996 21.17 20.4169 21.0246 20.2739C20.5953 19.8527 20.19 19.4074 19.9286 18.8656C19.5295 18.0403 18.9044 17.4176 18.2386 16.8215C18.0229 16.6283 17.8838 16.3987 17.9234 16.0907C17.9474 15.9038 17.9625 15.7154 17.9807 15.5384C17.6077 15.2988 17.2488 15.0425 16.8659 14.8296C16.5544 14.6563 16.3127 14.4302 16.0939 14.152C15.9621 13.985 15.7506 13.8816 15.5756 13.749C15.4724 13.6718 15.3531 13.6076 15.2724 13.511C15.0598 13.2573 14.8968 12.9781 14.8046 12.6503C14.6571 12.123 14.691 11.9952 15.1661 11.73C15.0692 11.7159 14.9952 11.7002 14.9202 11.6955C14.754 11.6846 14.6196 11.6366 14.5493 11.4638C14.5212 11.3949 14.4519 11.3437 14.404 11.2826C14.1466 10.9574 14.045 10.6161 14.1847 10.1948C14.3826 9.59556 14.8285 9.17381 15.1843 8.68836C15.8079 7.83801 16.7664 7.40061 17.5927 6.81076C18.1032 6.44586 18.4902 6.00531 18.8564 5.52666C19.1081 5.19731 19.3128 4.83191 19.5503 4.49107C19.7238 4.24257 19.8905 3.98052 20.1061 3.77177C20.7709 3.12865 21.3184 2.39943 21.7675 1.59348C21.8414 1.4609 21.8883 1.31318 21.9472 1.17224C21.646 1.38991 21.3793 1.63002 21.1235 1.88162C20.7563 2.24336 20.3516 2.52941 19.8212 2.5743C19.4435 2.60666 19.1544 2.81546 18.8887 3.05088C18.2334 3.63027 17.5833 4.21597 16.9482 4.81621C16.6867 5.06366 16.3997 5.15657 16.0522 5.13882C15.7772 5.12472 15.5005 5.13621 15.201 5.13621C15.0525 5.44156 14.9301 5.74641 14.7618 6.02361C14.5925 6.30236 14.404 6.57901 14.1763 6.80971C13.8424 7.14846 13.386 7.25131 12.9339 7.34891C12.7364 7.39121 12.4869 7.42251 12.3697 7.55561C12.1457 7.80881 11.9686 8.11731 11.8289 8.42891C11.6805 8.75881 11.6138 8.82091 11.2502 8.81101C10.8741 8.80056 10.6042 8.57401 10.3161 8.38976C9.80771 8.06406 9.44718 7.61306 9.21435 7.04776C9.11795 6.81491 8.97209 6.58316 8.7929 6.40936C8.60433 6.22716 8.3475 6.11756 8.12245 5.97246C7.90573 5.83201 7.67859 5.70361 7.48119 5.53971C7.3254 5.40976 7.20923 5.23226 7.07326 5.07776C6.95969 4.94832 6.84821 4.81572 6.72476 4.69567C6.66797 4.64032 6.58359 4.57612 6.51428 4.57822C5.9595 4.59807 5.46564 4.37517 4.96555 4.19197C4.70352 4.09592 4.44145 3.96592 4.44355 3.59582C4.4441 3.49926 4.32738 3.35624 4.23048 3.31448C3.98617 3.20904 3.7231 3.14849 3.46681 3.07176C3.18338 2.98667 2.91876 2.86453 2.83334 2.55238C2.7005 2.06745 2.4275 1.6723 2.08838 1.3184C1.92741 1.15032 1.74403 1.00468 1.46534 0.898193C1.70705 1.50109 1.93679 2.03404 2.13424 2.57952C2.26029 2.92873 2.36657 3.29204 2.29726 3.67517C2.26757 3.84067 2.33429 3.95497 2.46398 4.05517C2.66193 4.20812 2.84945 4.37462 3.04222 4.53437C3.24226 4.70037 3.42879 4.88932 3.64705 5.02607C4.32424 5.45151 4.58995 6.12851 4.80612 6.84521C4.85247 6.99971 4.90926 7.15946 4.99888 7.29096C5.14529 7.50501 5.31559 7.70441 5.48909 7.89806C5.61724 8.04006 5.76674 8.16321 5.90321 8.29166C5.99752 8.11991 6.07147 7.98626 6.16943 7.80776C6.30855 8.09326 6.03036 8.31981 6.20436 8.56096C6.31009 8.34016 6.39657 8.15331 6.48823 7.96956C6.5794 7.78581 6.67581 7.60521 6.77007 7.42306C6.79402 7.43451 6.81747 7.44656 6.84142 7.45801C6.67162 7.86676 6.50231 8.27596 6.33928 8.66901C6.57681 8.86216 6.78 9.02766 6.98314 9.19361C7.14097 8.79951 7.29102 8.42421 7.44157 8.04891C7.45669 8.05466 7.47181 8.06041 7.48688 8.06616C7.37595 8.49106 7.26547 8.91646 7.15195 9.35231C7.23109 9.40401 7.30978 9.44316 7.37281 9.49951C7.775 9.85916 8.19171 10.2282 8.30164 10.7794C8.36102 11.078 8.45114 11.3307 8.62773 11.5734C8.78976 11.7952 8.7663 11.9064 8.56002 12.0917C8.4199 12.2175 8.26207 12.3235 8.13233 12.4227C8.18183 12.6701 8.24849 12.8961 8.26726 13.1263C8.28861 13.3899 8.25214 13.6587 8.02035 13.8341C7.35195 14.3384 6.61742 14.6803 5.76624 14.7179C5.71724 14.7199 5.66883 14.7403 5.61933 14.7528C5.79383 15.0128 5.96314 15.2607 6.12826 15.5118C6.21474 15.6433 6.21319 15.7697 6.09652 15.8892C5.80167 16.1925 5.51255 16.5015 5.21559 16.8032C4.92024 17.1044 4.56964 17.3649 4.33052 17.7052C3.95493 18.2402 3.48762 18.6161 2.88074 18.8337C2.73593 18.8854 2.59681 18.9527 2.46503 19.0091C2.52181 20.56 1.79038 21.807 1.00067 23.0868C1.07827 23.0336 1.12462 23.0138 1.15431 22.9798C1.38565 22.7126 1.66798 22.5262 1.99203 22.3843C2.14307 22.318 2.31084 22.1989 2.38269 22.0581C2.62495 21.5835 3.01253 21.3649 3.51576 21.2939C3.60119 21.2819 3.696 21.2354 3.75852 21.1754C4.25862 20.6957 4.74624 20.2034 5.24893 19.7258C5.83605 19.1678 6.3554 18.5691 6.73988 17.8393C6.92635 17.4849 7.26343 17.1926 7.57964 16.9295C7.90469 16.6591 8.29071 16.8345 8.38707 17.2485C8.40428 17.3226 8.4173 17.3972 8.44021 17.51C8.61266 17.201 8.80488 16.9373 8.9153 16.6429C9.15183 16.0119 9.61026 15.6005 10.1526 15.2539C10.3281 15.1417 10.4932 15.0128 10.6756 14.9136C10.9095 14.7857 11.146 14.649 11.3987 14.5733C11.6138 14.5091 11.8576 14.4433 12.0774 14.5941C12.8958 15.1558 13.5366 15.8396 13.634 16.9045C13.7215 16.8262 13.7986 16.7479 13.8851 16.6821C14.0434 16.5605 14.2294 16.5339 14.3987 16.6304C15.0864 17.0214 15.6521 17.5241 15.8636 18.3462C16.3257 18.1713 16.7732 18.2752 17.2207 18.4355C17.6322 18.5827 17.9594 18.8426 18.2542 19.1568C18.6335 19.5609 19.0367 19.944 19.3967 20.3642C19.9874 21.0538 20.6151 21.6874 21.4398 22.1009C21.6664 22.2152 21.856 22.4041 22.0608 22.5613C22.2347 22.6943 22.4056 22.8306 22.5775 22.9652C22.5947 22.9501 22.6114 22.935 22.628 22.9198C22.5447 22.7533 22.4733 22.5784 22.3743 22.4219ZM16.9545 5.84926C17.0519 5.99386 17.1493 6.13791 17.2467 6.28251C17.2311 6.29396 17.216 6.30496 17.2009 6.31641C17.0993 6.17446 16.9982 6.03246 16.8967 5.89051C16.9159 5.87691 16.9352 5.86281 16.9545 5.84926ZM16.5721 6.97571C16.5883 6.98876 16.6044 7.00181 16.6201 7.01486C16.6148 7.02006 16.608 7.03101 16.6049 7.03001C16.5841 7.02266 16.5643 7.01331 16.544 7.00491C16.5533 6.99501 16.5627 6.98511 16.5721 6.97571ZM16.5012 6.72256C16.2877 6.77631 16.1548 6.63276 16.0063 6.17861C16.3184 6.27051 16.3648 6.52991 16.5012 6.72256ZM15.076 7.96071C14.9963 7.93721 14.9322 7.91791 14.8598 7.89651C14.9362 7.81681 15.0082 7.83821 15.076 7.96071ZM8.54754 16.3303C8.40323 15.955 8.25892 15.5791 8.11461 15.2033C8.14066 15.1913 8.16726 15.1798 8.19381 15.1678C8.33657 15.5452 8.47928 15.9231 8.62204 16.3005C8.59754 16.3104 8.57254 16.3204 8.54754 16.3303ZM9.18516 15.4351C9.05078 15.0963 8.91635 14.758 8.78197 14.4198C9.11121 14.6761 9.11121 15.0697 9.23985 15.4126C9.22164 15.4199 9.20337 15.4272 9.18516 15.4351ZM13.5715 15.6454C13.5486 15.6402 13.5256 15.6355 13.5022 15.6308C13.5235 15.5238 13.5449 15.4163 13.5663 15.3093C13.5882 15.3134 13.6106 15.3181 13.633 15.3223C13.6127 15.4298 13.5923 15.5374 13.5715 15.6454ZM13.9648 9.63421C13.8372 9.51206 13.709 9.38991 13.5814 9.26826C13.6001 9.24896 13.6189 9.23016 13.6377 9.21086C13.7627 9.34081 13.8877 9.47081 14.0122 9.60076C13.9966 9.61176 13.981 9.62271 13.9648 9.63421ZM15.3911 16.5318C15.3713 16.5187 15.3521 16.5057 15.3328 16.4926C15.375 16.2421 15.5005 16.0458 15.7438 15.9268C15.6266 16.1283 15.5088 16.3298 15.3911 16.5318ZM16.0887 17.225C16.0887 17.225 16.0871 17.2276 16.0861 17.2291V17.2333C16.0965 17.2678 16.1064 17.3022 16.1173 17.3367C16.1069 17.3393 16.0965 17.3414 16.0861 17.3435V17.2333C16.0861 17.2333 16.0845 17.2286 16.084 17.2265C16.0855 17.226 16.0871 17.2255 16.0887 17.225C16.1955 17.0595 16.3022 16.894 16.4085 16.7286C16.4278 16.7426 16.4476 16.7562 16.4669 16.7698C16.4106 16.976 16.3236 17.1582 16.0887 17.225Z" fill="url(#paint1_linear_601_900)"/>
<path d="M16.5006 6.72242C16.2872 6.77617 16.1545 6.63262 16.0062 6.17847C16.318 6.27037 16.3643 6.52977 16.5006 6.72242Z" fill="white"/>
<path d="M8.62154 16.3004C8.59711 16.3103 8.57213 16.3203 8.54716 16.3302C8.40298 15.9549 8.2588 15.579 8.11462 15.2032C8.14065 15.1912 8.16717 15.1797 8.19374 15.1677C8.33632 15.5451 8.47896 15.923 8.62154 16.3004Z" fill="white"/>
<path d="M9.23973 15.4122C9.22149 15.4195 9.20329 15.4268 9.18505 15.4347C9.05079 15.0959 8.91653 14.7577 8.78223 14.4194C9.11116 14.6757 9.11116 15.0693 9.23973 15.4122Z" fill="white"/>
<path d="M15.7436 15.9265C15.6265 16.128 15.5089 16.3295 15.3913 16.5315C15.3715 16.5185 15.3522 16.5054 15.3329 16.4924C15.3751 16.2418 15.5006 16.0455 15.7436 15.9265Z" fill="white"/>
<path d="M16.0844 17.2273C16.0844 17.2273 16.0892 17.2257 16.0916 17.2249C16.0899 17.2273 16.0892 17.2288 16.0876 17.2313L16.0844 17.2273Z" fill="white"/>
<path d="M16.4668 16.7695C16.4106 16.9757 16.3237 17.1579 16.089 17.2247C16.1957 17.0592 16.3024 16.8937 16.4086 16.7283C16.4278 16.7424 16.4476 16.7559 16.4668 16.7695Z" fill="white"/>
<path d="M14.012 9.60035C13.9964 9.61135 13.9808 9.6223 13.9646 9.6338C13.8371 9.51165 13.709 9.3895 13.5816 9.26785C13.6003 9.24855 13.619 9.22975 13.6378 9.21045C13.7627 9.3404 13.8876 9.4704 14.012 9.60035Z" fill="white"/>
<path d="M17.2464 6.28237C17.2308 6.29382 17.2157 6.30477 17.2006 6.31627C17.0991 6.17432 16.9981 6.03232 16.8966 5.89032C16.9159 5.87677 16.9352 5.86267 16.9544 5.84912C17.0517 5.99367 17.1491 6.13777 17.2464 6.28237Z" fill="white"/>
<path d="M13.6336 15.3221C13.6133 15.4296 13.5929 15.5372 13.572 15.6452C13.5491 15.64 13.5261 15.6353 13.5026 15.6306C13.524 15.5236 13.5454 15.4161 13.5668 15.3091C13.5887 15.3132 13.6112 15.3179 13.6336 15.3221Z" fill="white"/>
<path d="M15.0762 7.96044C14.9963 7.93699 14.9321 7.91764 14.8596 7.89624C14.9361 7.81654 15.0083 7.83794 15.0762 7.96044Z" fill="white"/>
<path d="M16.6202 7.01498C16.615 7.02018 16.6082 7.03113 16.6051 7.03013C16.5842 7.02278 16.5644 7.01338 16.544 7.00503C16.5534 6.99513 16.5628 6.98523 16.5722 6.97583C16.5884 6.98888 16.6046 7.00193 16.6202 7.01498Z" fill="white"/>
<path d="M16.0871 17.2299V17.2353C16.0871 17.2353 16.0851 17.2293 16.0844 17.2266L16.0871 17.2299Z" fill="white"/>
<path d="M16.0863 17.3433V17.2332C16.0968 17.2676 16.1067 17.3021 16.1177 17.3365C16.1072 17.3391 16.0968 17.3412 16.0863 17.3433Z" fill="white"/>
</g>
<defs>
<linearGradient id="paint0_linear_601_900" x1="87" y1="6" x2="119.5" y2="17" gradientUnits="userSpaceOnUse">
<stop stop-color="#6200BF"/>
<stop offset="1" stop-color="#FF00F8"/>
</linearGradient>
<linearGradient id="paint1_linear_601_900" x1="11.8143" y1="0.898193" x2="11.8143" y2="23.0868" gradientUnits="userSpaceOnUse">
<stop stop-color="#6200BF"/>
<stop offset="1" stop-color="#FF00F8"/>
</linearGradient>
</defs>
</svg>
